<svg t="1640795021391" class="icon" viewBox="0 0 1024 1024" version="1.1" xmlns="http://www.w3.org/2000/svg" p-id="4558" width="200" height="200"><path d="M293.546667 861.866667h-1.706667c-64.853333-10.24-80.213333-51.2-78.506667-69.973334V271.36c0-8.533333 6.826667-15.36 15.36-15.36s15.36 6.826667 15.36 15.36v520.533333c0 3.413333 0 32.426667 52.906667 40.96 8.533333 1.706667 13.653333 8.533333 11.946667 17.066667-1.706667 6.826667-8.533333 11.946667-15.36 11.946667z" fill="#4E85F0" p-id="4559"></path><path d="M797.013333 861.866667H296.96c-8.533333 0-15.36-6.826667-15.36-15.36V177.493333c0-8.533333 6.826667-15.36 15.36-15.36h378.88c3.413333 0 8.533333 1.706667 10.24 5.12l119.466667 134.826667c1.706667 3.413333 3.413333 6.826667 3.413333 10.24v535.893333c1.706667 6.826667-3.413333 13.653333-11.946667 13.653334z m-484.693333-29.013334h469.333333V317.44l-110.933333-126.293333h-358.4v641.706666z" fill="#4E85F0" p-id="4560"></path><path d="M547.84 327.68h-158.72c-8.533333 0-15.36-6.826667-15.36-15.36s6.826667-15.36 15.36-15.36h158.72c8.533333 0 15.36 6.826667 15.36 15.36s-8.533333 15.36-15.36 15.36zM718.506667 433.493333H389.12c-8.533333 0-15.36-6.826667-15.36-15.36s6.826667-15.36 15.36-15.36h329.386667c8.533333 0 15.36 6.826667 15.36 15.36s-6.826667 15.36-15.36 15.36zM718.506667 525.653333H389.12c-8.533333 0-15.36-6.826667-15.36-15.36s6.826667-15.36 15.36-15.36h329.386667c8.533333 0 15.36 6.826667 15.36 15.36s-6.826667 15.36-15.36 15.36zM718.506667 619.52H389.12c-8.533333 0-15.36-6.826667-15.36-15.36s6.826667-15.36 15.36-15.36h329.386667c8.533333 0 15.36 6.826667 15.36 15.36s-6.826667 15.36-15.36 15.36z" fill="#4E85F0" p-id="4561"></path></svg>