<svg t="1638536905793" class="icon" viewBox="0 0 1024 1024" version="1.1" xmlns="http://www.w3.org/2000/svg" p-id="34685" width="200" height="200"><path d="M0.234057 508.679314C0.234057 789.562514 227.913143 1017.270857 508.781714 1017.270857c280.868571 0 508.576914-227.693714 508.576915-508.576914 0-280.868571-227.693714-508.562286-508.576915-508.562286C227.927771 0.117029 0.234057 227.810743 0.234057 508.679314z" fill="#EBF2FF" p-id="34686"></path><path d="M701.674057 531.280457c3.189029-14.1312-8.206629-22.908343-21.679543-22.908343-11.951543 0-25.921829 3.028114-36.981028 14.145829-15.930514-20.670171-32.299886-18.168686-64.2048 1.287314a1009.371429 1009.371429 0 0 1-30.837029 18.212572c-2.121143 1.170286-3.861943 2.062629-5.5296 2.954971 3.130514 0.6144 6.304914 1.170286 9.771886 1.170286 44.763429 0 80.120686 0 80.120686 38.224457 0 29.3888-34.640457 37.829486-53.013943 38.165943h-82.914743c-34.143086 0-67.613257-35.035429-67.613257-35.035429s39.497143 15.915886 67.613257 15.915886h82.680686c0.175543 0 33.806629-1.3312 33.806628-19.0464 0-16.266971-9.055086-19.104914-60.679314-19.104914-33.6896 0-67.715657-19.5584-67.715657-19.5584s-34.084571-24.4736-44.529372-30.954058c-24.751543-15.213714-44.529371-29.666743-87.771428-12.9024-27.384686 10.605714-87.274057 38.034286-87.274057 38.034286-6.421943 4.359314-2.574629 25.541486 11.527314 63.531886 14.087314 37.9904 28.657371 56.992914 43.666286 56.992914l28.16-17.993143c15.594057-9.713371 24.195657-11.395657 44.324571-1.2288 19.485257 9.8304 79.330743 40.521143 94.295771 47.659886 45.992229 21.957486 65.711543 2.296686 87.946972-10.327771 18.944-10.737371 153.205029-98.230857 167.350857-108.061258 21.942857-15.2576 28.818286-28.613486 18.768457-41.457371-7.606857-9.728-24.649143-17.832229-59.2896 2.282057z" fill="#377FFC" p-id="34687"></path><path d="M538.755657 351.787886c0 3.364571 1.609143 6.714514 4.754286 9.815771 3.115886 3.115886 7.753143 5.953829 13.5168 8.338286 5.778286 2.369829 12.712229 4.271543 20.260571 5.558857a143.945143 143.945143 0 0 0 23.888457 1.960229 143.945143 143.945143 0 0 0 23.903086-1.960229c7.548343-1.287314 14.467657-3.189029 20.245943-5.558857 5.778286-2.384457 10.400914-5.2224 13.531429-8.338286 3.130514-3.101257 4.754286-6.465829 4.754285-9.815771 0-3.364571-1.623771-6.729143-4.754285-9.8304-3.130514-3.101257-7.753143-5.9392-13.531429-8.323657a96.928914 96.928914 0 0 0-20.245943-5.558858 143.901257 143.901257 0 0 0-23.888457-1.960228c-8.177371 0-16.340114 0.672914-23.903086 1.960228-7.548343 1.287314-14.482286 3.189029-20.245943 5.558858-5.778286 2.384457-10.415543 5.2224-13.531428 8.338285-3.130514 3.086629-4.754286 6.4512-4.754286 9.801143z m62.420114 33.294628c-24.970971 0-50.629486-6.2464-62.434742-17.700571v13.882514c0 14.218971 28.086857 25.673143 62.434742 25.673143s62.434743-11.454171 62.434743-25.673143v-13.867886c-11.790629 11.439543-37.449143 17.700571-62.434743 17.700572z m0 58.2656c-24.970971 0-50.629486-6.231771-62.434742-17.700571v13.897143c0 14.218971 28.086857 25.658514 62.434742 25.658514s62.434743-11.454171 62.434743-25.673143v-13.867886c-11.790629 11.439543-37.449143 17.700571-62.434743 17.700572z m0-29.140114c-24.970971 0-50.629486-6.231771-62.434742-17.671314v13.867885c0 14.218971 28.086857 25.658514 62.434742 25.658515s62.434743-11.439543 62.434743-25.658515v-13.882514c-11.790629 11.454171-37.449143 17.700571-62.434743 17.700572z m0 58.280229c-24.970971 0-50.629486-6.231771-62.434742-17.700572v13.897143c0 14.204343 28.086857 25.658514 62.434742 25.658514s62.434743-11.454171 62.434743-25.673143v-13.867885c-11.790629 11.439543-37.449143 17.685943-62.434743 17.685943z m-200.133485-62.434743c0 3.364571 1.623771 6.729143 4.754285 9.8304 3.130514 3.101257 7.753143 5.953829 13.531429 8.323657 5.778286 2.369829 12.6976 4.271543 20.260571 5.558857a143.945143 143.945143 0 0 0 23.888458 1.960229c8.177371 0 16.340114-0.658286 23.888457-1.9456 7.548343-1.287314 14.482286-3.189029 20.260571-5.573486s10.400914-5.2224 13.531429-8.338286c3.130514-3.086629 4.754286-6.436571 4.754285-9.801143 0-3.364571-1.6384-6.729143-4.754285-9.8304-3.130514-3.101257-7.753143-5.953829-13.531429-8.338285a96.958171 96.958171 0 0 0-20.260571-5.558858 143.286857 143.286857 0 0 0-23.888457-1.9456c-8.177371 0-16.340114 0.658286-23.888458 1.960229-7.562971 1.287314-14.482286 3.1744-20.260571 5.558857-5.778286 2.369829-10.400914 5.2224-13.531429 8.338286-3.130514 3.086629-4.754286 6.436571-4.754285 9.801143z m62.434743 33.309257c-24.970971 0-50.644114-6.2464-62.434743-17.700572v13.882515c0 14.218971 28.086857 25.673143 62.434743 25.673143 34.333257 0 62.434743-11.454171 62.434742-25.673143v-13.867886c-11.790629 11.439543-37.449143 17.685943-62.434742 17.685943z m0 29.125486c-24.970971 0-50.644114-6.231771-62.434743-17.685943v13.882514c0 14.218971 28.086857 25.658514 62.434743 25.658514 34.333257 0 62.434743-11.439543 62.434742-25.658514v-13.882514c-11.790629 11.439543-37.449143 17.700571-62.434742 17.700571z" fill="#ABC6F6" p-id="34688"></path></svg>