<svg t="1638600052203" class="icon" viewBox="0 0 1707 1024" version="1.1" xmlns="http://www.w3.org/2000/svg" p-id="9194" width="200" height="200"><path d="M1372.41818 448.12698v-7.501602c0-2.500534 0-2.500534-2.500534-4.876042 0 0 0-2.500534-2.500534-2.500534 0-2.500534-2.500534-2.500534-2.500534-2.500534l-2.500535-2.500534-84.017948-71.390251V142.811758c0-56.637099-46.885016-100.896554-101.271634-100.896554H910.444492l-39.50844-34.507372c-12.377644-9.87711-29.63133-9.87711-39.50844 0L791.919172 41.915204H527.61271c-56.762126 0-101.271634 46.759989-101.271634 100.896554v211.670218l-84.017948 71.39025-4.876042 4.876042s0 2.500534-2.500534 2.500534c-2.500534 4.876042-2.500534 4.876042-2.500534 7.376576v497.23122c0 46.759989 39.50844 86.143402 86.518482 86.143402h869.435732c47.010042 0 86.518482-39.383413 86.518482-86.143402l-2.500534-489.729618z m-93.895058-28.631116l25.880529 19.37914-25.880529 19.37914v-38.75828zM496.981167 114.805775c7.501603-7.376576 17.628766-11.502457 28.131009-11.37743h652.139312c10.502244-0.125027 20.629407 4.000855 28.131009 11.37743 7.501603 7.376576 11.627484 17.503739 11.502458 28.005983v344.698635L851.181832 701.681145 485.603736 487.510393V142.811758c-0.125027-10.502244 4.000855-20.629407 11.377431-28.005983zM421.340008 419.495864V458.129117l-25.880529-19.37914 25.880529-19.254113z m891.690486 518.48576h-2.500535c0 14.753152-12.377644 24.630262-24.630261 24.630262H416.33894c-14.753152 0-24.630262-12.252617-24.630262-24.630262V504.639053l9.87711 4.876041L836.303654 765.69482c9.87711 4.876042 22.254754 4.876042 32.131864 0l444.594976-260.930741v433.217545z" fill="#333333" p-id="9195"></path><path d="M543.241049 453.003022l307.815756 180.288514L1158.997589 453.003022V188.071426c0.125027-8.876896-3.375721-17.378712-9.627057-23.630048-6.251335-6.251335-14.753152-9.752083-23.630048-9.627056H576.62318c-8.876896-0.125027-17.378712 3.250694-23.630048 9.50203-6.251335 6.251335-9.752083 14.753152-9.627056 23.630048v265.056622z" fill="#61C6F1" p-id="9196"></path><path d="M441.969415 583.780959v312.566772c0 11.00235 8.75187 22.004701 22.004701 22.0047h774.665486c11.00235 0 22.004701-8.75187 22.004701-22.0047h2.125454v-312.566772L866.685144 816.20561c-8.75187 4.375935-19.75422 4.375935-28.631116 0L441.969415 583.780959z" fill="#61C6F1" p-id="9197"></path></svg>