<svg t="1638536750300" class="icon" viewBox="0 0 1024 1024" version="1.1" xmlns="http://www.w3.org/2000/svg" p-id="27124" width="200" height="200"><path d="M512 512m-512 0a512 512 0 1 0 1024 0 512 512 0 1 0-1024 0Z" fill="#AF90FF" p-id="27125"></path><path d="M708.608 379.904H315.392c-27.648 0-49.152 21.504-49.152 49.152v248.832c0 27.648 21.504 49.152 49.152 49.152h6.144v2.048c6.144 29.696 31.744 52.224 63.488 52.224s59.392-23.552 64.512-54.272h124.928c5.12 30.72 31.744 54.272 64.512 54.272 31.744 0 59.392-23.552 64.512-54.272h6.144c27.648 0 49.152-21.504 49.152-49.152V429.056c-1.024-26.624-22.528-49.152-50.176-49.152z m10.24 297.984c0 5.12-4.096 10.24-10.24 10.24h-25.6c-12.288 0-21.504 10.24-19.456 22.528l1.024 3.072v3.072c0 14.336-11.264 25.6-25.6 25.6s-25.6-11.264-25.6-25.6v-3.072l1.024-3.072c1.024-11.264-7.168-22.528-19.456-22.528H430.08c-12.288 0-21.504 10.24-19.456 22.528l1.024 3.072v3.072c0 14.336-11.264 25.6-25.6 25.6s-25.6-11.264-25.6-25.6v-3.072l1.024-3.072c1.024-11.264-7.168-22.528-19.456-22.528h-25.6c-5.12 0-10.24-4.096-10.24-10.24V429.056c0-5.12 4.096-10.24 10.24-10.24h393.216c5.12 0 10.24 4.096 10.24 10.24v248.832z" fill="#FFFFFF" p-id="27126"></path><path d="M601.088 479.232H422.912c-21.504 0-38.912 17.408-38.912 38.912v69.632c0 21.504 17.408 38.912 38.912 38.912h178.176c21.504 0 38.912-17.408 38.912-38.912v-69.632c0-20.48-17.408-38.912-38.912-38.912z m0 108.544H422.912v-69.632h178.176v69.632zM394.24 358.4c11.264 0 19.456-9.216 19.456-19.456v-50.176c0-8.192 6.144-14.336 14.336-14.336h167.936c8.192 0 14.336 6.144 14.336 14.336v50.176c0 11.264 9.216 19.456 19.456 19.456 11.264 0 19.456-9.216 19.456-19.456v-50.176c0-29.696-23.552-53.248-53.248-53.248H428.032c-29.696 0-53.248 23.552-53.248 53.248v50.176c0 11.264 9.216 19.456 19.456 19.456z" fill="#FFFFFF" p-id="27127"></path></svg>