<svg t="1638597554162" class="icon" viewBox="0 0 1024 1024" version="1.1" xmlns="http://www.w3.org/2000/svg" p-id="3331" width="200" height="200"><path d="M518.4512 596.9408a60.7744 60.7744 0 1 1 60.7744-60.7232 60.7744 60.7744 0 0 1-60.7744 60.7232z m0-90.7776a30.0544 30.0544 0 1 0 30.0544 30.0544 30.0544 30.0544 0 0 0-30.0544-30.0544z" fill="#099DFD" p-id="3332"></path><path d="M747.52 750.7456H289.5872a15.36 15.36 0 0 1-15.36-15.36V395.9808a15.36 15.36 0 0 1 15.36-15.36H747.52a15.36 15.36 0 0 1 15.36 15.36v339.4048a15.36 15.36 0 0 1-15.36 15.36z m-442.4192-30.72H732.16V411.3408H304.9472z" fill="#099DFD" p-id="3333"></path><path d="M643.072 407.3472a15.36 15.36 0 0 1-15.36-15.36V335.0528a109.2608 109.2608 0 1 0-218.4704 0v56.9344a15.36 15.36 0 0 1-30.72 0V335.0528a139.9808 139.9808 0 1 1 279.9104 0v56.9344a15.36 15.36 0 0 1-15.36 15.36zM518.4512 647.6288a15.36 15.36 0 0 1-15.36-15.36v-50.688a15.36 15.36 0 0 1 30.72 0v50.688a15.36 15.36 0 0 1-15.36 15.36z" fill="#099DFD" p-id="3334"></path></svg>