<svg t="1638588809568" class="icon" viewBox="0 0 1024 1024" version="1.1" xmlns="http://www.w3.org/2000/svg" p-id="2592" width="200" height="200"><path d="M390.912 85.35552c-152.8832 0-315.36128 47.23712-315.36128 134.78912 0 1.39776 0.1536 2.74944 0.24064 4.12672h-0.24064v585.05728h0.19456c-0.0512 1.03424-0.19456 2.06848-0.19456 3.1488 0 87.552 162.47808 134.79936 315.36128 134.79936 152.87808 0 315.36128-47.25248 315.36128-134.79936 0-1.08032-0.1536-2.11456-0.19456-3.1488h0.19456V224.25088h-0.24576c0.08192-1.37728 0.24576-2.72384 0.24576-4.12672 0-87.54688-162.4832-134.76864-315.36128-134.76864zM122.58816 346.34752h0.5376a39.25504 39.25504 0 0 1 34.20672-33.75104c33.91488 15.38048 75.84256 26.7008 120.89856 33.75104 36.4288 5.68832 74.85952 8.58624 112.71168 8.58624 37.84192 0 76.27264-2.89792 112.67584-8.58624 45.056-7.04512 86.9632-18.36544 120.88832-33.75104a39.2704 39.2704 0 0 1 34.21184 33.75104h0.52224c0 0.62976-0.27648 1.28-0.3328 1.90464-3.54816 35.712-107.03872 85.8624-267.98592 85.8624-160.95232 0-264.43264-50.14528-267.99616-85.8624-0.0512-0.62464-0.33792-1.27488-0.33792-1.90464z m536.64768 377.472a18.85184 18.85184 0 0 1-1.40288 4.56192 34.49344 34.49344 0 0 1-4.20864 7.10656 47.28832 47.28832 0 0 1-4.352 5.11488c-3.31776 3.36384-7.93088 7.1936-13.9776 11.12064-6.64576 4.3264-15.16032 8.81664-26.05568 13.19424-27.96032 11.29984-71.84384 21.77536-140.1856 26.37824-13.58848 0.92672-27.20256 1.58208-40.81664 1.96608-4.48512 0.11776-9.1392 0.18944-13.81376 0.28672v-205.30688c81.28-1.3568 146.03264-9.8816 193.92-25.44128 19.87584-6.43072 36.85376-14.08 50.8672-22.94784v183.97184h0.0256z m-44.70784-458.72128c-4.09088 2.0992-8.38144 4.1728-12.98432 6.20544-14.37696 6.2976-31.26272 12.17536-50.38592 17.31072-42.9312 11.53536-97.11616 19.29728-160.22016 19.29728-63.1296 0-117.31968-7.76192-160.24576-19.29728-19.11296-5.1456-36.00896-11.008-50.38592-17.31072-4.608-2.0224-8.89856-4.11136-12.98432-6.20544-26.04544-13.3632-41.2672-27.91424-44.00128-40.82688-0.2816-1.37728-0.7168-2.78016-0.7168-4.12672 0-35.77856 104.52992-87.75168 268.33408-87.75168 163.78368 0 268.29824 51.96288 268.29824 87.75168 0 1.3312-0.41984 2.74944-0.70144 4.12672-2.7392 12.91264-17.95584 27.46368-44.0064 40.82688z m68.23424 544.22016h-24.06912c0.15872 1.03936 0.54272 2.12992 0.54272 3.15392 0 35.75296-104.54528 87.76192-268.32384 87.76192-163.79392 0-268.32384-51.98336-268.32384-87.76192 0-1.024 0.39424-2.11456 0.54784-3.15392h-24.064 23.51616V419.6096c59.3152 40.30976 165.92896 61.52192 268.32384 61.52192 102.38976 0 209.01376-21.22752 268.32384-61.52192v51.79392c-0.42496 2.64704-2.23232 8.87296-9.97888 16.77312-19.4816 19.89632-78.94528 53.25312-258.36032 53.25312h-23.51616v299.58144h47.03744v-0.39424c90.97216-1.51552 161.22368-12.02176 210.31424-31.29344a218.624 218.624 0 0 0 27.83232-13.16352c2.23232-1.29024 4.5312-2.54464 6.64064-3.8656v17.02912h23.55712v-0.00512z m178.7904-529.84832c-70.53312 0-115.5328 105.51808-115.5328 178.15552 0 63.83104 33.96096 104.8064 92.01152 113.31584v288.47616a23.53664 23.53664 0 0 0 23.5264 23.51616 23.53152 23.53152 0 0 0 23.51616-23.51616v-288.47616c58.05568-8.50944 92.02176-49.4848 92.02176-113.31584-0.00512-72.63744-45.02528-178.15552-115.54304-178.15552z m0 246.19008c-46.72512 0-68.49024-21.61152-68.49024-68.03456 0-61.26592 36.46976-131.11296 68.49024-131.11296 32.01024 0 68.49536 69.84704 68.49536 131.11808 0 46.41792-21.78048 68.02944-68.49536 68.02944z" p-id="2593"></path></svg>