<svg t="1638600309539" class="icon" viewBox="0 0 1024 1024" version="1.1" xmlns="http://www.w3.org/2000/svg" p-id="12626" width="200" height="200"><path d="M290.3 643.5c-8.1-7.4-8.8-20.1-1.4-28.2l10.1-11.1c7.4-8.1 20.1-8.8 28.3-1.4l111 100.9c8.1 7.4 20.9 6.8 28.2-1.4l229.8-253.4c7.4-8.1 20.1-8.8 28.2-1.4l11.1 10.1c8.1 7.4 8.8 20.1 1.4 28.3l-266.8 294c-7.4 8.1-20.1 8.8-28.2 1.4L290.3 643.5z" fill="#2680F0" p-id="12627"></path><path d="M118 200.9c-11 0-20 9-20 20v687.3c0 11 9 20 20 20h790c11 0 20-9 20-20V220.9c0-11-9-20-20-20H118z m755 652.3c0 11-9 20-20 20H173c-11 0-20-9-20-20V275.9c0-11 9-20 20-20h680c11 0 20 9 20 20v577.3z" fill="#2680F0" p-id="12628"></path><path d="M720.5 335.4c0 11-9 20-20 20h-15c-11 0-20-9-20-20v-217c0-11 9-20 20-20h15c11 0 20 9 20 20v217zM360.5 335.4c0 11-9 20-20 20h-15c-11 0-20-9-20-20v-217c0-11 9-20 20-20h15c11 0 20 9 20 20v217z" fill="#2680F0" p-id="12629"></path></svg>