<?xml version="1.0" encoding="utf-8"?>
<!-- Generator: Adobe Illustrator 23.0.0, SVG Export Plug-In . SVG Version: 6.00 Build 0)  -->
<svg version="1.1" id="图层_1" xmlns="http://www.w3.org/2000/svg" xmlns:xlink="http://www.w3.org/1999/xlink" x="0px" y="0px"
	 viewBox="0 0 300 300" style="enable-background:new 0 0 300 300;" xml:space="preserve">
<style type="text/css">
	.st0{fill:#ECF3F8;}
	.st1{fill:#DBDDE1;}
	.st2{fill:#E6EAEE;}
	.st3{fill:url(#SVGID_1_);}
	.st4{fill:url(#SVGID_2_);}
	.st5{fill:url(#SVGID_3_);}
	.st6{fill:#20569E;}
	.st7{fill:url(#SVGID_4_);}
	.st8{fill:url(#SVGID_5_);}
	.st9{fill:#F2F2F2;}
	.st10{fill:url(#SVGID_6_);}
	.st11{fill:url(#SVGID_7_);}
	.st12{fill:url(#SVGID_8_);}
	.st13{fill:url(#SVGID_9_);}
	.st14{fill:url(#SVGID_10_);}
	.st15{fill:url(#SVGID_11_);}
	.st16{opacity:0.2;fill:#404041;}
	.st17{fill:#250920;}
	.st18{fill:#40363B;}
	.st19{fill:#4E444A;}
	.st20{fill:#BBBDBF;}
	.st21{fill:#929497;}
	.st22{fill:#D0D2D3;}
	.st23{fill:#3A3D3F;}
	.st24{fill:#3C3E4A;}
	.st25{fill:#838383;}
	.st26{fill:#A4A7A9;}
	.st27{fill:#808080;}
	.st28{fill:#32343F;}
	.st29{fill:#FCFDFF;}
	.st30{fill:#D3D3D3;}
	.st31{fill:#E0E4E4;}
	.st32{fill:url(#SVGID_12_);}
	.st33{fill:#AAE0F9;}
	.st34{fill:url(#SVGID_13_);}
	.st35{fill:url(#SVGID_14_);}
	.st36{enable-background:new    ;}
	.st37{fill:#4F565B;}
	.st38{fill:#E6E7E8;}
	.st39{fill-rule:evenodd;clip-rule:evenodd;fill:#F1F1F2;}
	.st40{fill:url(#SVGID_15_);}
	.st41{fill:url(#SVGID_16_);}
	.st42{fill:url(#SVGID_17_);}
	.st43{fill:#96999B;}
	.st44{opacity:0.2;fill:#FFFFFF;}
	.st45{fill:url(#SVGID_18_);}
	.st46{fill:url(#SVGID_19_);}
	.st47{fill:url(#SVGID_20_);}
	.st48{fill:#FDC00F;}
	.st49{fill:#FBB03B;}
	.st50{fill:#F2D031;}
	.st51{fill:#FFFFFF;}
	.st52{fill:url(#SVGID_21_);}
	.st53{fill:url(#SVGID_22_);}
	.st54{fill:url(#SVGID_23_);}
	.st55{fill:url(#SVGID_24_);}
	.st56{fill:url(#SVGID_25_);}
	.st57{fill:url(#SVGID_26_);}
	.st58{fill:url(#SVGID_27_);}
	.st59{fill:url(#SVGID_28_);}
	.st60{fill:url(#SVGID_29_);}
</style>
<g>
	<polygon class="st0" points="218.53,151.17 123.37,206.27 197.22,248.98 292.28,193.67 	"/>
	<g>
		<polygon class="st1" points="123.52,187.56 50.25,145.06 50.27,163.68 123.53,206.18 		"/>
		<polygon class="st1" points="145.04,90.69 50.25,145.06 123.52,187.56 218.52,132.55 		"/>
		<polygon class="st1" points="218.52,132.55 123.52,187.56 123.53,206.18 218.53,151.17 		"/>
	</g>
	<g>
		<polygon class="st2" points="123.52,141.9 50.25,99.13 50.25,145.06 123.52,187.56 		"/>
		<polygon class="st2" points="145.02,44 50.24,99.15 123.5,141.91 218.52,86.62 		"/>
		<polygon class="st2" points="218.52,86.62 123.5,141.91 123.52,187.56 218.52,132.55 		"/>
	</g>
	<g>
		<linearGradient id="SVGID_1_" gradientUnits="userSpaceOnUse" x1="50.228" y1="100.2673" x2="123.489" y2="100.2673">
			<stop  offset="0" style="stop-color:#3282ED"/>
			<stop  offset="1" style="stop-color:#60A2F0"/>
		</linearGradient>
		<polygon class="st3" points="123.49,115.02 50.23,72.26 50.23,85.78 123.49,128.28 		"/>
		<linearGradient id="SVGID_2_" gradientUnits="userSpaceOnUse" x1="50.2136" y1="66.0751" x2="218.4907" y2="66.0751">
			<stop  offset="0" style="stop-color:#3282ED"/>
			<stop  offset="1" style="stop-color:#60A2F0"/>
		</linearGradient>
		<polygon class="st4" points="145,17.12 50.21,72.27 123.47,115.03 218.49,59.74 		"/>
		<linearGradient id="SVGID_3_" gradientUnits="userSpaceOnUse" x1="123.4748" y1="94.0102" x2="218.4942" y2="94.0102">
			<stop  offset="0" style="stop-color:#3282ED"/>
			<stop  offset="1" style="stop-color:#60A2F0"/>
		</linearGradient>
		<polygon class="st5" points="218.49,59.74 123.47,115.03 123.49,128.28 218.49,73.27 		"/>
	</g>
	<g>
		<polygon class="st6" points="123.49,128.28 55.65,88.92 55.65,98.92 123.49,138.28 		"/>
		<polygon class="st6" points="211.45,77.35 123.49,128.28 123.49,138.28 211.45,87.07 		"/>
	</g>
	<linearGradient id="SVGID_4_" gradientUnits="userSpaceOnUse" x1="60.1048" y1="63.2233" x2="208.5995" y2="63.2233">
		<stop  offset="0" style="stop-color:#3282ED"/>
		<stop  offset="1" style="stop-color:#60A2F0"/>
	</linearGradient>
	<polygon class="st7" points="143.75,20.02 60.1,68.69 124.75,106.43 208.6,57.64 	"/>
	<polygon class="st6" points="60.1,68.69 50.21,72.27 123.47,115.03 124.75,106.43 	"/>
	<polygon class="st6" points="124.75,106.43 123.47,115.03 218.49,59.74 208.6,57.64 	"/>
	<polygon class="st6" points="208.6,57.64 218.49,59.74 145,17.12 143.75,20.02 	"/>
	<polygon class="st6" points="50.21,72.27 60.1,68.69 143.75,20.02 145,17.12 	"/>
	<linearGradient id="SVGID_5_" gradientUnits="userSpaceOnUse" x1="59.8008" y1="178.0872" x2="115.1149" y2="178.0872">
		<stop  offset="0" style="stop-color:#FFFFFF"/>
		<stop  offset="1" style="stop-color:#CFCFD1"/>
	</linearGradient>
	<polygon class="st8" points="95.43,194.15 115.11,182.7 79.49,162.02 59.8,173.48 	"/>
	<polygon class="st9" points="41.57,244.14 95.43,194.15 59.8,173.48 6,223.44 	"/>
	<linearGradient id="SVGID_6_" gradientUnits="userSpaceOnUse" x1="41.5745" y1="213.4203" x2="115.1291" y2="213.4203">
		<stop  offset="0" style="stop-color:#FFFFFF"/>
		<stop  offset="1" style="stop-color:#CFCFD1"/>
	</linearGradient>
	<polygon class="st10" points="115.13,201.32 41.57,244.14 95.43,194.15 115.11,182.7 	"/>
	<g>
		<linearGradient id="SVGID_7_" gradientUnits="userSpaceOnUse" x1="79.4869" y1="171.1171" x2="113.4156" y2="171.1171">
			<stop  offset="0" style="stop-color:#FFFFFF"/>
			<stop  offset="1" style="stop-color:#CFCFD1"/>
		</linearGradient>
		<polygon class="st11" points="113.42,178.64 82.17,160.47 79.49,162.02 113.42,181.77 		"/>
		<linearGradient id="SVGID_8_" gradientUnits="userSpaceOnUse" x1="97.7922" y1="144.4888" x2="97.7922" y2="172.211">
			<stop  offset="0" style="stop-color:#EBEBEC"/>
			<stop  offset="0.6359" style="stop-color:#FFFFFF"/>
			<stop  offset="1" style="stop-color:#DBDDE1"/>
		</linearGradient>
		<polygon class="st12" points="82.17,160.47 82.17,133.33 113.42,151.37 113.42,178.64 		"/>
		<linearGradient id="SVGID_9_" gradientUnits="userSpaceOnUse" x1="79.4872" y1="146.9024" x2="82.1688" y2="146.9024">
			<stop  offset="0" style="stop-color:#FFFFFF"/>
			<stop  offset="1" style="stop-color:#CFCFD1"/>
		</linearGradient>
		<polygon class="st13" points="79.49,131.78 79.49,162.02 82.17,160.47 82.17,133.33 		"/>
	</g>
	<linearGradient id="SVGID_10_" gradientUnits="userSpaceOnUse" x1="79.4872" y1="135.4555" x2="85.8953" y2="135.4555">
		<stop  offset="0" style="stop-color:#3282ED"/>
		<stop  offset="1" style="stop-color:#60A2F0"/>
	</linearGradient>
	<polygon class="st14" points="79.49,139.13 85.9,135.48 79.49,131.78 	"/>
	<linearGradient id="SVGID_11_" gradientUnits="userSpaceOnUse" x1="108.5881" y1="153.7181" x2="113.4156" y2="153.7181">
		<stop  offset="0" style="stop-color:#3282ED"/>
		<stop  offset="1" style="stop-color:#60A2F0"/>
	</linearGradient>
	<polygon class="st15" points="113.42,158.85 108.59,148.58 113.42,151.37 	"/>
	<g>
		<g>
			<polygon class="st16" points="89.81,263.4 68.07,250.58 117.59,221.72 139.33,234.55 			"/>
			<g>
				<polygon class="st17" points="104.47,248.49 136.3,230.37 134.58,229 104.47,246.95 				"/>
				<polygon class="st17" points="137.28,231.74 134.19,229.76 137.28,227.98 				"/>
				<g>
					<g>
						<path class="st18" d="M128.66,241.69c-0.01-0.01-0.03-0.02-0.04-0.03c-0.03-0.03-0.07-0.06-0.1-0.09
							c-0.01-0.01-0.01-0.01-0.02-0.01c-0.04-0.04-0.07-0.08-0.11-0.11c-0.01-0.01-0.02-0.02-0.03-0.03
							c-0.03-0.03-0.05-0.06-0.08-0.09c-0.01-0.01-0.02-0.03-0.03-0.04c-0.03-0.04-0.05-0.07-0.08-0.11
							c-0.01-0.01-0.01-0.02-0.02-0.03c-0.03-0.05-0.06-0.1-0.09-0.16c-0.03-0.05-0.06-0.11-0.08-0.17c0-0.01-0.01-0.02-0.01-0.03
							c-0.02-0.05-0.04-0.09-0.06-0.14c-0.01-0.01-0.01-0.03-0.02-0.04c-0.01-0.03-0.02-0.06-0.03-0.09
							c-0.02-0.05-0.03-0.09-0.05-0.14c-0.01-0.03-0.02-0.06-0.03-0.09c-0.01-0.04-0.02-0.08-0.03-0.12
							c-0.01-0.03-0.02-0.07-0.02-0.11c-0.01-0.03-0.01-0.07-0.02-0.11c-0.01-0.04-0.01-0.08-0.02-0.12
							c-0.01-0.03-0.01-0.06-0.01-0.1c-0.01-0.04-0.01-0.09-0.02-0.13c0-0.03-0.01-0.06-0.01-0.09c0-0.05-0.01-0.11-0.01-0.16
							c0-0.02,0-0.04,0-0.07c0-0.08-0.01-0.16-0.01-0.24c0-0.08,0-0.16,0-0.24c0-0.03,0-0.05,0-0.08c0-0.06,0.01-0.11,0.01-0.17
							c0-0.03,0-0.06,0.01-0.09c0.01-0.06,0.01-0.12,0.02-0.18c0-0.02,0-0.05,0.01-0.07c0.01-0.08,0.02-0.17,0.04-0.25
							c0-0.01,0-0.02,0.01-0.03c0.01-0.07,0.03-0.15,0.04-0.22c0.01-0.03,0.01-0.06,0.02-0.09c0.01-0.06,0.02-0.11,0.04-0.17
							c0.01-0.03,0.02-0.06,0.02-0.1c0.01-0.05,0.03-0.11,0.04-0.16c0.01-0.03,0.02-0.06,0.03-0.1c0.02-0.06,0.03-0.12,0.05-0.17
							c0.01-0.03,0.02-0.05,0.02-0.08c0.03-0.08,0.05-0.17,0.08-0.25c0-0.01,0-0.01,0.01-0.02c0.03-0.08,0.05-0.16,0.08-0.23
							c0.01-0.03,0.02-0.05,0.03-0.08c0.02-0.06,0.04-0.12,0.07-0.18c0.01-0.03,0.02-0.06,0.03-0.08c0.02-0.06,0.05-0.12,0.08-0.18
							c0.01-0.02,0.02-0.04,0.03-0.06c0.04-0.08,0.07-0.16,0.11-0.24c0.01-0.02,0.02-0.04,0.03-0.06c0.03-0.06,0.06-0.13,0.09-0.19
							c0.02-0.04,0.05-0.09,0.07-0.13c0.02-0.04,0.04-0.08,0.07-0.13c0.06-0.11,0.12-0.23,0.19-0.34c0.02-0.04,0.04-0.08,0.07-0.11
							c0.03-0.05,0.05-0.09,0.08-0.14c0.03-0.04,0.05-0.08,0.08-0.12c0.03-0.04,0.06-0.09,0.09-0.13c0.02-0.03,0.04-0.06,0.06-0.09
							c0.08-0.12,0.16-0.24,0.25-0.36c0,0,0,0,0,0c0.06-0.08,0.12-0.16,0.18-0.24c0.05-0.06,0.1-0.12,0.15-0.18
							c0.01-0.01,0.02-0.02,0.03-0.04c0.06-0.07,0.12-0.14,0.18-0.21c0.02-0.02,0.04-0.04,0.05-0.06c0.04-0.05,0.09-0.1,0.13-0.14
							c0.03-0.03,0.05-0.05,0.08-0.08c0.04-0.04,0.08-0.08,0.11-0.12c0.03-0.03,0.06-0.05,0.08-0.08c0.04-0.04,0.07-0.07,0.11-0.11
							c0.03-0.03,0.06-0.06,0.09-0.08c0.04-0.03,0.07-0.07,0.11-0.1c0.03-0.03,0.06-0.05,0.09-0.08c0.04-0.03,0.08-0.06,0.12-0.1
							c0.03-0.02,0.06-0.05,0.09-0.07c0.04-0.03,0.08-0.06,0.12-0.1c0.03-0.02,0.06-0.04,0.08-0.06c0.05-0.03,0.09-0.07,0.14-0.1
							c0.02-0.02,0.05-0.03,0.07-0.05c0.07-0.05,0.14-0.09,0.21-0.14c0,0,0.01-0.01,0.01-0.01c0.07-0.04,0.14-0.09,0.21-0.13
							c0.06-0.04,0.13-0.07,0.19-0.11c0.02-0.01,0.05-0.03,0.07-0.04c0.05-0.02,0.1-0.05,0.14-0.07c0.02-0.01,0.04-0.02,0.06-0.03
							c0.07-0.03,0.14-0.06,0.2-0.09c0.07-0.03,0.13-0.05,0.2-0.07c0.02-0.01,0.04-0.01,0.06-0.02c0.04-0.01,0.09-0.03,0.13-0.04
							c0.03-0.01,0.05-0.01,0.08-0.02c0.04-0.01,0.08-0.02,0.12-0.03c0.03-0.01,0.05-0.01,0.08-0.02c0.04-0.01,0.08-0.01,0.11-0.02
							c0.03,0,0.06-0.01,0.09-0.01c0.03-0.01,0.07-0.01,0.1-0.01c0.03,0,0.06-0.01,0.09-0.01c0.03,0,0.06,0,0.09-0.01
							c0.04,0,0.07,0,0.11,0c0.05,0,0.1,0,0.15,0c0,0,0.01,0,0.01,0c0.05,0,0.1,0.01,0.15,0.01c0.01,0,0.03,0,0.04,0
							c0.05,0.01,0.11,0.02,0.16,0.03c0.01,0,0.03,0.01,0.04,0.01c0.04,0.01,0.08,0.02,0.12,0.03c0.02,0.01,0.04,0.01,0.06,0.02
							c0.03,0.01,0.07,0.02,0.1,0.03c0.04,0.01,0.08,0.03,0.12,0.05c0.02,0.01,0.04,0.02,0.06,0.02c0.06,0.03,0.11,0.05,0.16,0.09
							c0,0-4.2-2.44-4.2-2.44c-0.05-0.03-0.11-0.06-0.16-0.09c-0.02-0.01-0.04-0.02-0.06-0.02c-0.61-0.27-1.34-0.21-1.96,0
							c-0.63,0.2-1.23,0.56-1.75,0.97c-0.02,0.01-0.03,0.03-0.05,0.04c-0.03,0.02-0.06,0.05-0.09,0.07
							c-1.89,1.56-3.24,4.02-3.42,6.48c-0.06,0.84,0.03,1.81,0.5,2.54c0,0,0,0.01,0.01,0.01c0.01,0.01,0.01,0.02,0.02,0.03
							c0.02,0.04,0.05,0.07,0.08,0.11c0.01,0.01,0.02,0.03,0.03,0.04c0.02,0.03,0.05,0.06,0.08,0.09c0.01,0.01,0.02,0.02,0.03,0.03
							c0.04,0.04,0.07,0.08,0.11,0.12c0.01,0.01,0.01,0.01,0.02,0.01c0.03,0.03,0.07,0.06,0.1,0.09c0.01,0.01,0.03,0.02,0.04,0.03
							c0.03,0.02,0.06,0.05,0.09,0.07c0.01,0.01,0.02,0.02,0.04,0.03c0.04,0.03,0.09,0.06,0.13,0.08l4.2,2.44
							c-0.05-0.03-0.09-0.05-0.13-0.08c-0.01-0.01-0.03-0.02-0.04-0.03C128.72,241.73,128.69,241.71,128.66,241.69z"/>
						<g>
							<path class="st19" d="M132.02,231.45c-2.43,1.4-4.39,4.8-4.39,7.6c0.01,2.79,1.98,3.92,4.42,2.52c2.43-1.4,4.39-4.8,4.39-7.6
								C136.43,231.17,134.45,230.04,132.02,231.45z"/>
						</g>
					</g>
					<g>
						<g>
							<path class="st20" d="M132.17,233.41c-1.5,0.87-2.73,2.89-2.86,4.66c-0.01,0.11-0.01,0.21-0.01,0.32
								c0,1.83,1.3,2.57,2.89,1.65c1.59-0.92,2.88-3.15,2.87-4.97c0-0.11,0-0.21-0.01-0.31
								C134.91,233.15,133.67,232.54,132.17,233.41z"/>
						</g>
						<g>
							<path class="st21" d="M132.17,234.31c-1.09,0.63-1.98,2.11-2.08,3.39c-0.01,0.08-0.01,0.16-0.01,0.23
								c0,1.33,0.95,1.87,2.1,1.2c1.16-0.67,2.09-2.29,2.09-3.62c0-0.08,0-0.15-0.01-0.22
								C134.16,234.12,133.26,233.68,132.17,234.31z"/>
						</g>
						<path class="st22" d="M134.27,235.29c-0.09-0.97-0.72-1.43-1.55-1.21c0.65-0.02,1.11,0.44,1.18,1.26
							c0.01,0.07,0.01,0.15,0.01,0.22c0,1.33-0.93,2.95-2.09,3.62c-0.19,0.11-0.37,0.18-0.54,0.23c0.28-0.01,0.58-0.1,0.91-0.29
							c1.16-0.67,2.09-2.29,2.09-3.62C134.28,235.43,134.27,235.36,134.27,235.29z"/>
						<g>
							<path class="st23" d="M132.97,236.98c0.06-0.03,0.12-0.04,0.17-0.02c0.09,0.05,0.09,0.22,0,0.38
								c-0.05,0.08-0.11,0.14-0.17,0.17c-0.06,0.03-0.12,0.04-0.17,0.02c-0.09-0.05-0.09-0.22,0-0.38
								C132.85,237.07,132.91,237.01,132.97,236.98z"/>
							<path class="st23" d="M132.05,236.11c0.3-0.17,0.54-0.03,0.54,0.31c0,0.34-0.24,0.75-0.53,0.92
								c-0.3,0.17-0.54,0.03-0.54-0.31C131.51,236.69,131.75,236.28,132.05,236.11z"/>
							<path class="st23" d="M132.05,237.94c0.13-0.08,0.24-0.01,0.24,0.13c0,0.15-0.1,0.33-0.23,0.41
								c-0.13,0.08-0.24,0.01-0.24-0.13C131.82,238.2,131.92,238.02,132.05,237.94z"/>
							<path class="st23" d="M131.13,238.04c0.06-0.03,0.12-0.04,0.17-0.02c0.09,0.05,0.09,0.22,0,0.38
								c-0.05,0.08-0.11,0.14-0.17,0.17c-0.06,0.04-0.12,0.04-0.17,0.02c-0.09-0.05-0.09-0.22,0-0.38
								C131.01,238.13,131.07,238.07,131.13,238.04z"/>
							<path class="st23" d="M132.96,234.86c0.06-0.03,0.12-0.04,0.17-0.02c0.09,0.05,0.09,0.22,0,0.38
								c-0.05,0.08-0.11,0.14-0.17,0.18c-0.06,0.03-0.12,0.04-0.17,0.02c-0.09-0.05-0.09-0.22,0-0.38
								C132.84,234.96,132.9,234.9,132.96,234.86z"/>
							<path class="st23" d="M132.04,235.5c-0.13,0.07-0.24,0.01-0.24-0.13c0-0.15,0.1-0.33,0.23-0.41
								c0.13-0.07,0.24-0.01,0.24,0.14C132.28,235.24,132.17,235.42,132.04,235.5z"/>
							<path class="st23" d="M131.13,236.47c-0.06,0.04-0.12,0.04-0.17,0.02c-0.09-0.05-0.09-0.22,0-0.38
								c0.05-0.08,0.11-0.14,0.17-0.17c0.06-0.03,0.12-0.04,0.17-0.02c0.09,0.05,0.09,0.22,0,0.38
								C131.25,236.37,131.19,236.43,131.13,236.47z"/>
							<path class="st23" d="M133.11,236.11c0-0.15,0.1-0.33,0.23-0.41c0.13-0.07,0.24-0.01,0.24,0.14c0,0.15-0.1,0.33-0.23,0.41
								C133.22,236.32,133.11,236.25,133.11,236.11z"/>
							<path class="st23" d="M130.75,237.2c0.13-0.07,0.24-0.01,0.24,0.13c0,0.15-0.1,0.33-0.23,0.41
								c-0.13,0.08-0.24,0.01-0.24-0.13C130.51,237.46,130.62,237.27,130.75,237.2z"/>
						</g>
					</g>
				</g>
				<polygon class="st24" points="102.33,245.62 86.42,236.6 123.41,215.13 139.33,224.15 				"/>
				<g>
					<path class="st25" d="M104.71,245.71c0,0,0.01,0,0.01-0.01c0.01,0,0.01-0.01,0.02-0.01c0,0,0.01,0,0.01-0.01
						c0.01,0,0.01-0.01,0.02-0.01c0.01,0,0.01,0,0.02-0.01c0,0,0.01,0,0.01,0c0.01,0,0.01,0,0.02-0.01c0,0,0.01,0,0.01,0
						c0.01,0,0.01,0,0.02-0.01c0,0,0.01,0,0.01,0c0.01,0,0.01,0,0.02,0c0,0,0.01,0,0.01,0c0.01,0,0.02,0,0.03-0.01
						c0,0,0.01,0,0.01,0c0.01,0,0.02,0,0.03,0c0,0,0.01,0,0.01,0c0.01,0,0.02,0,0.03,0c0.01,0,0.03,0,0.04,0c0,0,0.01,0,0.01,0
						c0.01,0,0.02,0,0.03,0c0.01,0,0.01,0,0.02,0c0.01,0,0.01,0,0.02,0c0.01,0,0.01,0,0.02,0c0.01,0,0.01,0,0.02,0
						c0.01,0,0.01,0,0.02,0c0.01,0,0.01,0,0.02,0c0.01,0,0.01,0,0.02,0c0.01,0,0.01,0,0.02,0c0.01,0,0.01,0,0.02,0
						c0.01,0,0.01,0,0.02,0c0.01,0,0.01,0,0.02,0c0.01,0,0.01,0,0.02,0c0.01,0,0.02,0,0.02,0c0,0,0.01,0,0.01,0
						c0.01,0,0.02,0,0.03,0.01c0,0,0.01,0,0.01,0c0.01,0,0.03,0.01,0.04,0.01c0,0,0.01,0,0.01,0c0.01,0,0.02,0.01,0.03,0.01
						c0,0,0.01,0,0.01,0c0.01,0,0.02,0.01,0.03,0.01c0,0,0.01,0,0.01,0c0.01,0,0.02,0.01,0.03,0.01c0,0,0.01,0,0.01,0
						c0.01,0,0.02,0.01,0.03,0.01c0,0,0,0,0.01,0c0.01,0.01,0.03,0.01,0.04,0.02c0,0,0.01,0,0.01,0.01c0.01,0,0.02,0.01,0.03,0.01
						c0,0,0.01,0,0.01,0.01c0.01,0,0.02,0.01,0.03,0.01c0,0,0.01,0,0.01,0.01c0.01,0.01,0.03,0.01,0.04,0.02c0,0,0,0,0,0
						c0.01,0.01,0.03,0.01,0.04,0.02c0,0,0,0,0.01,0c0.01,0.01,0.03,0.01,0.04,0.02l8.66-5.04c-0.01-0.01-0.03-0.01-0.04-0.02
						c0,0,0,0-0.01,0c0,0,0,0-0.01,0c-0.01-0.01-0.02-0.01-0.03-0.02l0,0c-0.01-0.01-0.02-0.01-0.03-0.02c0,0,0,0-0.01,0
						c0,0-0.01,0-0.01-0.01c-0.01,0-0.02-0.01-0.03-0.01c0,0-0.01,0-0.01-0.01c0,0-0.01,0-0.01,0c-0.01,0-0.01-0.01-0.02-0.01
						c0,0-0.01,0-0.01-0.01c-0.01-0.01-0.03-0.01-0.04-0.02c0,0,0,0,0,0c0,0,0,0-0.01,0c-0.01,0-0.02-0.01-0.03-0.01
						c0,0-0.01,0-0.01-0.01c-0.01,0-0.01,0-0.02-0.01c0,0-0.01,0-0.01,0c0,0-0.01,0-0.01-0.01c-0.01,0-0.02-0.01-0.03-0.01
						c0,0-0.01,0-0.01,0c0,0,0,0,0,0c-0.01,0-0.02-0.01-0.03-0.01c0,0-0.01,0-0.01,0c-0.01,0-0.02-0.01-0.04-0.01c0,0,0,0,0,0
						c0,0-0.01,0-0.01,0c-0.01,0-0.02,0-0.03-0.01c0,0-0.01,0-0.01,0c-0.01,0-0.01,0-0.02,0c0,0-0.01,0-0.01,0
						c-0.01,0-0.01,0-0.02,0c-0.01,0-0.01,0-0.02,0c-0.01,0-0.01,0-0.02,0c0,0-0.01,0-0.01,0c0,0-0.01,0-0.01,0
						c-0.01,0-0.01,0-0.02,0c-0.01,0-0.01,0-0.02,0c-0.01,0-0.01,0-0.02,0c0,0-0.01,0-0.01,0c0,0-0.01,0-0.01,0
						c-0.01,0-0.01,0-0.02,0c-0.01,0-0.01,0-0.02,0c-0.01,0-0.01,0-0.02,0c0,0-0.01,0-0.01,0c0,0,0,0-0.01,0c-0.01,0-0.02,0-0.03,0
						c0,0-0.01,0-0.01,0c-0.01,0-0.03,0-0.04,0h0c-0.01,0-0.02,0-0.03,0c0,0-0.01,0-0.01,0c-0.01,0-0.02,0-0.03,0c0,0,0,0-0.01,0
						c-0.01,0-0.02,0-0.03,0.01c0,0,0,0,0,0c0,0-0.01,0-0.01,0c-0.01,0-0.01,0-0.02,0c0,0-0.01,0-0.01,0c-0.01,0-0.01,0-0.02,0.01
						c0,0-0.01,0-0.01,0c-0.01,0-0.01,0-0.02,0.01c0,0-0.01,0-0.01,0c0,0-0.01,0-0.01,0c0,0-0.01,0-0.01,0
						c-0.01,0-0.01,0.01-0.02,0.01c0,0-0.01,0-0.01,0.01c-0.01,0-0.01,0.01-0.02,0.01c0,0-0.01,0-0.01,0.01
						c-0.01,0-0.01,0.01-0.02,0.01c0,0-0.01,0-0.01,0.01c-0.01,0.01-0.02,0.01-0.03,0.02l0,0l-8.66,5.04
						c0.01-0.01,0.02-0.01,0.03-0.02c0,0,0.01,0,0.01,0C104.7,245.72,104.71,245.71,104.71,245.71z"/>
					<g>
						<polygon class="st26" points="105.87,245.86 114.53,240.82 115.58,241.43 106.92,246.47 						"/>
					</g>
					<path class="st22" d="M117.29,244.35c0,0,0-0.01,0-0.01c0-0.01,0-0.01,0-0.02c0-0.01,0-0.01,0-0.02c0-0.01,0-0.01,0-0.02
						c0-0.01,0-0.02,0-0.04c0,0,0-0.01,0-0.01v0c0-0.01,0-0.03,0-0.04c0,0,0-0.01,0-0.01c0-0.01,0-0.02,0-0.03c0,0,0-0.01,0-0.01
						c0-0.01,0-0.01,0-0.02c0-0.01,0-0.02,0-0.03c0-0.01,0-0.01,0-0.02c0,0,0-0.01,0-0.01c0-0.01,0-0.02,0-0.03c0,0,0-0.01,0-0.01
						c0-0.02,0-0.03-0.01-0.04c0,0,0,0,0,0c0,0,0-0.01,0-0.01c0-0.01,0-0.02-0.01-0.04c0-0.01,0-0.01,0-0.02c0-0.01,0-0.01,0-0.02
						c0-0.01,0-0.01,0-0.02c0-0.01,0-0.01,0-0.02c0-0.01,0-0.02-0.01-0.03c0-0.01,0-0.01,0-0.02c0,0,0,0,0-0.01
						c0-0.01-0.01-0.03-0.01-0.04c0,0,0,0,0,0c0-0.02-0.01-0.03-0.01-0.05c0,0,0,0,0,0c0-0.01,0-0.01,0-0.02
						c0-0.01-0.01-0.02-0.01-0.03c0-0.01,0-0.01,0-0.02c0-0.01,0-0.01-0.01-0.02c0,0,0-0.01,0-0.01c0-0.01,0-0.01-0.01-0.02
						c0-0.01-0.01-0.02-0.01-0.03c0-0.01,0-0.01-0.01-0.02c0,0,0-0.01,0-0.01c0-0.01-0.01-0.02-0.01-0.03c0,0,0-0.01,0-0.01
						c0-0.01-0.01-0.03-0.02-0.05l0,0c0,0,0-0.01,0-0.01c0-0.01-0.01-0.03-0.01-0.04c0-0.01,0-0.01-0.01-0.02
						c0-0.01,0-0.01-0.01-0.02c0,0,0-0.01-0.01-0.01c0-0.01,0-0.01-0.01-0.02c0-0.01-0.01-0.02-0.01-0.04c0,0,0-0.01,0-0.01
						c0,0,0,0,0,0c-0.01-0.02-0.01-0.03-0.02-0.04c0,0,0-0.01,0-0.01c0-0.01-0.01-0.02-0.01-0.03c0,0,0,0,0-0.01
						c-0.01-0.02-0.02-0.05-0.03-0.07c0,0,0,0,0,0c0,0,0-0.01,0-0.01c-0.01-0.02-0.02-0.04-0.03-0.07c0,0,0-0.01,0-0.01
						c0,0,0,0,0-0.01c0-0.01-0.01-0.01-0.01-0.02c0-0.01-0.01-0.02-0.02-0.03c0-0.01-0.01-0.01-0.01-0.02
						c0-0.01-0.01-0.01-0.01-0.02c0,0,0-0.01-0.01-0.01c0-0.01-0.01-0.02-0.01-0.03c0-0.01-0.01-0.02-0.01-0.03
						c0-0.01-0.01-0.02-0.01-0.03c0,0-0.01-0.01-0.01-0.01c0,0,0-0.01,0-0.01c-0.01-0.02-0.02-0.04-0.04-0.07c0,0,0-0.01,0-0.01
						c-0.01-0.02-0.02-0.04-0.03-0.06c0,0,0-0.01-0.01-0.01c0,0,0-0.01-0.01-0.01c-0.01-0.01-0.01-0.02-0.02-0.03
						c0-0.01-0.01-0.02-0.01-0.02c-0.01-0.01-0.01-0.02-0.02-0.03c0-0.01-0.01-0.02-0.01-0.02c-0.01-0.01-0.01-0.02-0.02-0.03
						c-0.01-0.01-0.01-0.02-0.01-0.02c-0.01-0.01-0.01-0.02-0.02-0.03c0-0.01-0.01-0.01-0.01-0.02c0,0,0,0,0,0
						c-0.02-0.02-0.03-0.05-0.05-0.07c0-0.01-0.01-0.01-0.01-0.01c-0.02-0.02-0.03-0.05-0.05-0.07c0,0,0,0,0,0
						c0,0-0.01-0.01-0.01-0.01c-0.01-0.01-0.02-0.02-0.03-0.04c0-0.01-0.01-0.01-0.01-0.02c-0.01-0.01-0.02-0.02-0.02-0.03
						c0,0,0,0,0,0c-0.01-0.01-0.01-0.01-0.02-0.02c0-0.01-0.01-0.01-0.01-0.02c-0.01-0.01-0.01-0.02-0.02-0.03
						c0-0.01-0.01-0.01-0.01-0.02c0,0,0,0,0,0c-0.01-0.01-0.02-0.03-0.03-0.04c0,0,0,0,0,0c-0.01-0.01-0.02-0.02-0.03-0.04
						c0,0,0,0,0,0c0,0-0.01-0.01-0.01-0.01c-0.01-0.01-0.02-0.02-0.02-0.03c0-0.01-0.01-0.01-0.01-0.02
						c-0.01-0.01-0.01-0.01-0.02-0.02c0,0,0-0.01-0.01-0.01c-0.01-0.01-0.01-0.01-0.02-0.02c-0.01-0.01-0.01-0.02-0.02-0.02
						c-0.01-0.01-0.01-0.01-0.02-0.02c0,0-0.01-0.01-0.01-0.01c0,0-0.01-0.01-0.01-0.01c-0.01-0.01-0.01-0.01-0.02-0.02
						c-0.01-0.01-0.01-0.01-0.02-0.02c-0.01,0-0.01-0.01-0.02-0.02c0,0,0,0-0.01-0.01c-0.01-0.01-0.01-0.01-0.02-0.01
						c-0.01-0.01-0.01-0.01-0.02-0.02c-0.01-0.01-0.01-0.01-0.02-0.02c-0.01,0-0.01-0.01-0.02-0.01c0,0,0,0,0,0
						c-0.01-0.01-0.01-0.01-0.02-0.02c0,0-0.01-0.01-0.01-0.01c-0.01-0.01-0.02-0.02-0.03-0.03c0,0-0.01,0-0.01-0.01h0
						c-0.01-0.01-0.03-0.02-0.04-0.03c0,0-0.01-0.01-0.01-0.01c-0.01-0.01-0.02-0.01-0.03-0.02c0,0,0,0,0,0c0,0-0.01-0.01-0.01-0.01
						c-0.01-0.01-0.02-0.01-0.03-0.02c-0.01,0-0.01-0.01-0.02-0.01c-0.01,0-0.01-0.01-0.02-0.01c0,0-0.01-0.01-0.01-0.01
						c-0.01,0-0.01-0.01-0.02-0.01c-0.01-0.01-0.02-0.01-0.03-0.02c0,0-0.01-0.01-0.02-0.01c0,0-0.01,0-0.01-0.01
						c-0.01,0-0.01-0.01-0.02-0.01c0,0-0.01-0.01-0.01-0.01c-0.01-0.01-0.03-0.02-0.04-0.03l0,0c0,0,0,0,0,0
						c-0.01-0.01-0.03-0.02-0.04-0.02c0,0-0.01-0.01-0.01-0.01c-0.01,0-0.01-0.01-0.02-0.01c-0.01,0-0.01-0.01-0.02-0.01l-8.66,5.04
						c0.01,0.01,0.02,0.01,0.03,0.02c0,0,0.01,0.01,0.01,0.01c0.01,0.01,0.03,0.02,0.04,0.02c0,0,0,0,0,0
						c0.01,0.01,0.03,0.02,0.04,0.03c0,0,0.01,0.01,0.01,0.01c0.01,0.01,0.02,0.01,0.03,0.02c0.01,0,0.01,0.01,0.02,0.01
						c0.01,0.01,0.02,0.01,0.03,0.02c0.01,0,0.01,0.01,0.02,0.01c0.01,0.01,0.02,0.01,0.02,0.02c0.01,0,0.01,0.01,0.02,0.01
						c0.01,0.01,0.02,0.01,0.03,0.02c0,0,0.01,0.01,0.01,0.01c0.01,0.01,0.02,0.01,0.03,0.02c0,0,0.01,0.01,0.01,0.01
						c0.01,0.01,0.03,0.02,0.04,0.03c0,0,0.01,0,0.01,0.01c0.01,0.01,0.02,0.02,0.03,0.03c0,0,0.01,0.01,0.01,0.01
						c0.01,0.01,0.02,0.01,0.02,0.02c0.01,0.01,0.01,0.01,0.02,0.02c0.01,0.01,0.02,0.01,0.02,0.02c0.01,0.01,0.01,0.01,0.02,0.02
						c0.01,0.01,0.01,0.01,0.02,0.02c0.01,0.01,0.01,0.01,0.02,0.02c0.01,0.01,0.01,0.01,0.02,0.02c0.01,0.01,0.01,0.01,0.02,0.02
						c0.01,0.01,0.01,0.01,0.02,0.02c0.01,0.01,0.01,0.01,0.02,0.02c0.01,0.01,0.01,0.01,0.02,0.02c0.01,0.01,0.01,0.01,0.02,0.02
						c0.01,0.01,0.01,0.02,0.02,0.02c0,0.01,0.01,0.01,0.01,0.02c0.01,0.01,0.02,0.02,0.02,0.03c0,0,0.01,0.01,0.01,0.01
						c0.01,0.01,0.02,0.03,0.03,0.04l0,0c0.01,0.01,0.02,0.03,0.04,0.04c0,0.01,0.01,0.01,0.01,0.02c0.01,0.01,0.02,0.02,0.02,0.03
						c0,0.01,0.01,0.01,0.01,0.02c0.01,0.01,0.01,0.02,0.02,0.03c0.01,0.01,0.02,0.02,0.02,0.03c0,0.01,0.01,0.01,0.01,0.02
						c0.01,0.01,0.02,0.02,0.03,0.04c0,0,0.01,0.01,0.01,0.01c0.02,0.02,0.03,0.04,0.05,0.07c0,0,0.01,0.01,0.01,0.01
						c0.02,0.02,0.03,0.05,0.05,0.07c0.01,0.01,0.01,0.01,0.01,0.02c0.01,0.01,0.01,0.02,0.02,0.03c0,0.01,0.01,0.02,0.01,0.02
						c0.01,0.01,0.01,0.02,0.02,0.03c0,0.01,0.01,0.02,0.01,0.02c0.01,0.01,0.01,0.02,0.02,0.03c0,0.01,0.01,0.02,0.01,0.02
						c0.01,0.01,0.01,0.02,0.02,0.03c0,0.01,0.01,0.01,0.01,0.02c0.01,0.02,0.02,0.04,0.03,0.06c0,0,0,0.01,0,0.01
						c0.01,0.02,0.02,0.05,0.04,0.07c0,0.01,0.01,0.01,0.01,0.02c0,0.01,0.01,0.02,0.01,0.03c0,0.01,0.01,0.02,0.01,0.03
						c0,0.01,0.01,0.02,0.01,0.03c0.01,0.01,0.01,0.02,0.01,0.03c0,0.01,0.01,0.01,0.01,0.02c0.01,0.01,0.01,0.02,0.02,0.03
						c0,0.01,0.01,0.01,0.01,0.02c0,0,0,0.01,0.01,0.01c0.01,0.02,0.02,0.04,0.03,0.07c0,0.01,0,0.01,0.01,0.01
						c0.01,0.02,0.02,0.05,0.03,0.07c0.01,0.01,0.01,0.02,0.01,0.04c0,0,0,0.01,0,0.01c0.01,0.02,0.01,0.03,0.02,0.05
						c0,0,0,0.01,0,0.01c0,0.01,0.01,0.02,0.01,0.04c0,0.01,0,0.01,0.01,0.02c0,0.01,0.01,0.02,0.01,0.03c0,0.01,0,0.01,0.01,0.02
						c0,0.01,0.01,0.03,0.01,0.04c0,0,0,0.01,0,0.01c0.01,0.02,0.01,0.03,0.02,0.05c0,0,0,0.01,0,0.01c0,0.01,0.01,0.03,0.01,0.04
						c0,0.01,0,0.01,0.01,0.02c0,0.01,0.01,0.02,0.01,0.03c0,0.01,0,0.01,0.01,0.02c0,0.01,0.01,0.02,0.01,0.03
						c0,0.01,0,0.01,0.01,0.02c0,0.01,0.01,0.02,0.01,0.03c0,0.01,0,0.01,0,0.02c0,0.02,0.01,0.03,0.01,0.05c0,0,0,0,0,0
						c0,0.02,0.01,0.03,0.01,0.05c0,0.01,0,0.01,0,0.02c0,0.01,0,0.02,0.01,0.03c0,0.01,0,0.01,0,0.02c0,0.01,0,0.02,0.01,0.03
						c0,0.01,0,0.01,0,0.02c0,0.01,0,0.02,0.01,0.04c0,0,0,0.01,0,0.01c0,0.02,0,0.03,0.01,0.05c0,0,0,0.01,0,0.01
						c0,0.01,0,0.03,0,0.04c0,0,0,0.01,0,0.02c0,0.01,0,0.02,0,0.03c0,0.01,0,0.01,0,0.02c0,0.01,0,0.02,0,0.04c0,0,0,0.01,0,0.01
						c0,0.02,0,0.03,0,0.05c0,0,0,0.01,0,0.01c0,0.01,0,0.02,0,0.04c0,0.01,0,0.01,0,0.02c0,0.01,0,0.02,0,0.03
						c0,0.01,0,0.01,0,0.01c0,0.02,0,0.03,0,0.05c0,0.02,0,0.03,0,0.05c0,0,0,0.01,0,0.01c0,0.01,0,0.02,0,0.04c0,0,0,0.01,0,0.02
						c0,0.01,0,0.02,0,0.03c0,0.01,0,0.01,0,0.02c0,0.01,0,0.02,0,0.03c0,0.01,0,0.01,0,0.02c0,0.01,0,0.02,0,0.03
						c0,0.01,0,0.01,0,0.02c0,0.01,0,0.02,0,0.03c0,0,0,0.01,0,0.01c0,0.01,0,0.03-0.01,0.04c0,0,0,0.01,0,0.01
						c0,0.01,0,0.02-0.01,0.03c0,0.01,0,0.01,0,0.02c0,0.01,0,0.02-0.01,0.03c0,0.01-0.01,0.03-0.01,0.04c0,0,0,0,0,0.01
						c0,0.01-0.01,0.02-0.01,0.04c0,0,0,0.01,0,0.01c0,0.01-0.01,0.02-0.01,0.03c0,0.01,0,0.01-0.01,0.02
						c0,0.01-0.01,0.02-0.01,0.03c0,0.01,0,0.01-0.01,0.02c0,0.01-0.01,0.02-0.01,0.03c0,0,0,0.01,0,0.01
						c-0.01,0.01-0.01,0.03-0.02,0.04c0,0.01-0.01,0.02-0.01,0.03c0,0,0,0,0,0.01c-0.01,0.01-0.01,0.02-0.02,0.03
						c0,0,0,0.01-0.01,0.01c0,0.01-0.01,0.01-0.01,0.02c0,0,0,0.01-0.01,0.01c0,0.01-0.01,0.01-0.01,0.02c0,0,0,0.01-0.01,0.01
						c0,0.01-0.01,0.01-0.01,0.02c0,0,0,0.01-0.01,0.01c-0.01,0.01-0.01,0.02-0.02,0.02c0,0,0,0,0,0c-0.01,0.01-0.01,0.02-0.02,0.03
						c0,0,0,0-0.01,0.01c-0.01,0.01-0.01,0.01-0.01,0.02c0,0,0,0.01-0.01,0.01c-0.01,0.01-0.01,0.01-0.02,0.02c0,0,0,0,0,0.01
						c-0.01,0.01-0.01,0.01-0.02,0.02c0,0,0,0-0.01,0.01c-0.01,0-0.01,0.01-0.02,0.02c0,0,0,0.01-0.01,0.01
						c-0.01,0-0.01,0.01-0.02,0.01c0,0,0,0-0.01,0.01c-0.01,0.01-0.02,0.01-0.02,0.02c0,0,0,0,0,0c-0.01,0.01-0.01,0.01-0.02,0.01
						c0,0-0.01,0-0.01,0.01c-0.01,0-0.01,0.01-0.02,0.01c0,0,0,0-0.01,0c-0.01,0.01-0.02,0.01-0.03,0.02l0,0l8.66-5.04
						c0.01-0.01,0.02-0.01,0.03-0.02c0,0,0,0,0.01-0.01c0.01,0,0.01-0.01,0.02-0.01c0,0,0.01,0,0.01-0.01
						c0.01,0,0.01-0.01,0.02-0.01c0,0,0,0,0,0c0.01-0.01,0.02-0.01,0.02-0.02c0,0,0,0,0.01-0.01c0.01-0.01,0.01-0.01,0.02-0.01
						c0,0,0.01,0,0.01-0.01c0.01-0.01,0.01-0.01,0.02-0.02c0,0,0,0,0.01,0c0.01-0.01,0.01-0.01,0.02-0.02c0,0,0,0,0,0
						c0.01-0.01,0.01-0.01,0.02-0.02c0,0,0-0.01,0.01-0.01c0.01-0.01,0.01-0.01,0.02-0.02c0,0,0-0.01,0.01-0.01
						c0.01-0.01,0.01-0.02,0.02-0.03c0,0,0,0,0,0c0.01-0.01,0.01-0.02,0.02-0.02c0,0,0-0.01,0.01-0.01c0-0.01,0.01-0.01,0.01-0.02
						c0,0,0-0.01,0.01-0.01c0,0,0,0,0,0c0,0,0.01-0.01,0.01-0.01c0,0,0-0.01,0.01-0.01c0-0.01,0.01-0.01,0.01-0.02
						c0,0,0-0.01,0.01-0.01c0.01-0.01,0.01-0.02,0.02-0.03c0,0,0,0,0-0.01c0-0.01,0.01-0.02,0.01-0.02c0,0,0,0,0,0
						c0.01-0.01,0.01-0.03,0.02-0.04c0,0,0-0.01,0-0.01c0-0.01,0.01-0.02,0.01-0.03c0,0,0-0.01,0-0.01c0,0,0-0.01,0-0.01
						c0-0.01,0.01-0.02,0.01-0.03c0-0.01,0-0.01,0-0.01c0-0.01,0.01-0.02,0.01-0.03c0,0,0-0.01,0-0.01c0,0,0,0,0,0
						c0-0.01,0.01-0.02,0.01-0.04c0,0,0,0,0-0.01c0-0.01,0.01-0.03,0.01-0.04v0c0-0.01,0-0.02,0.01-0.03c0,0,0-0.01,0-0.01
						c0-0.01,0-0.02,0.01-0.04c0,0,0,0,0-0.01v0c0-0.01,0-0.03,0.01-0.04c0,0,0-0.01,0-0.01c0-0.01,0-0.02,0-0.02l0,0
						c0-0.01,0-0.01,0-0.02c0-0.01,0-0.02,0-0.03c0-0.01,0-0.01,0-0.02c0-0.01,0-0.01,0-0.02c0,0,0-0.01,0-0.01
						c0-0.01,0-0.01,0-0.02c0-0.01,0-0.02,0-0.03c0-0.01,0-0.01,0-0.02c0,0,0,0,0-0.01c0-0.01,0-0.02,0-0.03c0,0,0-0.01,0-0.01
						c0-0.01,0-0.03,0-0.04v0C117.29,244.38,117.29,244.36,117.29,244.35z"/>
					<g>
						<path class="st27" d="M106.92,246.47c0.94,0.55,1.71,1.88,1.71,2.96c0,1.09-0.78,1.53-1.72,0.98l-1.05-0.61
							c-0.94-0.55-1.71-1.88-1.71-2.97c0-1.08,0.78-1.53,1.72-0.98L106.92,246.47z"/>
					</g>
				</g>
				<polygon class="st28" points="139.35,230.54 139.33,224.15 102.33,245.62 102.33,251.99 104.47,250.76 104.47,246.95 
					137.28,227.98 137.28,231.74 				"/>
			</g>
			<g>
				<polygon class="st29" points="86.02,216.11 103.22,226.12 139.83,204.88 122.68,194.91 				"/>
				<polygon class="st30" points="103.22,226.12 103.22,245.26 86.02,235.25 86.02,216.11 				"/>
				<polygon class="st31" points="139.83,204.88 103.22,226.12 103.22,245.26 139.83,224.02 				"/>
			</g>
			<g>
				<g>
					<path class="st18" d="M93.32,262.08c-0.01-0.01-0.03-0.02-0.04-0.03c-0.03-0.03-0.07-0.06-0.1-0.09
						c-0.01,0-0.01-0.01-0.02-0.01c-0.04-0.04-0.07-0.08-0.11-0.11c-0.01-0.01-0.02-0.02-0.03-0.03c-0.03-0.03-0.05-0.06-0.08-0.09
						c-0.01-0.01-0.02-0.03-0.03-0.04c-0.03-0.03-0.05-0.07-0.08-0.11c-0.01-0.01-0.01-0.02-0.02-0.03
						c-0.03-0.05-0.06-0.1-0.09-0.16c-0.03-0.05-0.06-0.11-0.08-0.17c0-0.01-0.01-0.02-0.01-0.03c-0.02-0.05-0.04-0.09-0.06-0.14
						c-0.01-0.01-0.01-0.03-0.02-0.04c-0.01-0.03-0.02-0.06-0.03-0.09c-0.02-0.05-0.03-0.09-0.05-0.14
						c-0.01-0.03-0.02-0.06-0.03-0.09c-0.01-0.04-0.02-0.08-0.03-0.12c-0.01-0.03-0.02-0.07-0.02-0.11
						c-0.01-0.03-0.01-0.07-0.02-0.11c-0.01-0.04-0.01-0.08-0.02-0.12c0-0.03-0.01-0.06-0.01-0.1c-0.01-0.04-0.01-0.09-0.02-0.13
						c0-0.03-0.01-0.06-0.01-0.09c0-0.05-0.01-0.11-0.01-0.16c0-0.02,0-0.04,0-0.07c0-0.08-0.01-0.16-0.01-0.24
						c0-0.08,0-0.16,0-0.24c0-0.03,0-0.05,0-0.08c0-0.06,0.01-0.11,0.01-0.17c0-0.03,0-0.06,0.01-0.09
						c0.01-0.06,0.01-0.12,0.02-0.18c0-0.02,0.01-0.05,0.01-0.07c0.01-0.08,0.02-0.17,0.03-0.25c0-0.01,0-0.02,0.01-0.03
						c0.01-0.07,0.02-0.15,0.04-0.22c0.01-0.03,0.01-0.06,0.02-0.09c0.01-0.06,0.02-0.11,0.04-0.17c0.01-0.03,0.01-0.06,0.02-0.1
						c0.01-0.05,0.03-0.11,0.04-0.16c0.01-0.03,0.02-0.06,0.03-0.1c0.02-0.06,0.03-0.12,0.05-0.17c0.01-0.03,0.02-0.05,0.02-0.08
						c0.03-0.08,0.05-0.17,0.08-0.25c0-0.01,0-0.01,0.01-0.02c0.03-0.08,0.05-0.16,0.08-0.23c0.01-0.02,0.02-0.05,0.03-0.08
						c0.02-0.06,0.04-0.12,0.07-0.18c0.01-0.03,0.02-0.06,0.03-0.08c0.02-0.06,0.05-0.12,0.08-0.18c0.01-0.02,0.02-0.04,0.03-0.07
						c0.04-0.08,0.07-0.16,0.11-0.24c0.01-0.02,0.02-0.04,0.03-0.06c0.03-0.06,0.06-0.12,0.09-0.19c0.02-0.04,0.05-0.09,0.07-0.13
						c0.02-0.04,0.04-0.08,0.07-0.13c0.06-0.11,0.12-0.23,0.19-0.34c0.02-0.04,0.04-0.08,0.07-0.11c0.03-0.05,0.06-0.09,0.08-0.14
						c0.03-0.04,0.05-0.08,0.08-0.12c0.03-0.04,0.06-0.09,0.09-0.13c0.02-0.03,0.04-0.06,0.06-0.09c0.08-0.12,0.16-0.24,0.25-0.36
						c0,0,0,0,0,0c0.06-0.08,0.12-0.16,0.18-0.24c0.05-0.06,0.1-0.12,0.15-0.18c0.01-0.01,0.02-0.02,0.03-0.04
						c0.06-0.07,0.12-0.14,0.18-0.21c0.02-0.02,0.04-0.04,0.05-0.06c0.04-0.05,0.09-0.1,0.13-0.14c0.03-0.03,0.05-0.05,0.08-0.08
						c0.04-0.04,0.08-0.08,0.11-0.12c0.03-0.03,0.06-0.06,0.08-0.08c0.04-0.04,0.07-0.07,0.11-0.11c0.03-0.03,0.06-0.06,0.09-0.08
						c0.04-0.03,0.07-0.07,0.11-0.1c0.03-0.03,0.06-0.05,0.09-0.08c0.04-0.03,0.08-0.06,0.12-0.1c0.03-0.02,0.06-0.05,0.09-0.07
						c0.04-0.03,0.08-0.06,0.12-0.1c0.03-0.02,0.06-0.04,0.08-0.06c0.05-0.03,0.09-0.07,0.14-0.1c0.02-0.02,0.05-0.03,0.07-0.05
						c0.07-0.05,0.14-0.09,0.21-0.14c0,0,0.01,0,0.01-0.01c0.07-0.04,0.14-0.09,0.21-0.13c0.06-0.04,0.13-0.07,0.19-0.11
						c0.02-0.01,0.05-0.03,0.07-0.04c0.05-0.02,0.1-0.05,0.14-0.07c0.02-0.01,0.04-0.02,0.06-0.03c0.07-0.03,0.14-0.06,0.2-0.09
						c0.07-0.03,0.13-0.05,0.2-0.07c0.02-0.01,0.04-0.01,0.06-0.02c0.05-0.01,0.09-0.03,0.13-0.04c0.03-0.01,0.05-0.01,0.08-0.02
						c0.04-0.01,0.08-0.02,0.12-0.03c0.03-0.01,0.05-0.01,0.08-0.02c0.04-0.01,0.08-0.02,0.11-0.02c0.03,0,0.06-0.01,0.09-0.01
						c0.04-0.01,0.07-0.01,0.1-0.01c0.03,0,0.06-0.01,0.1-0.01c0.03,0,0.06,0,0.09,0c0.04,0,0.08,0,0.11,0c0.05,0,0.1,0,0.15,0
						c0,0,0.01,0,0.02,0c0.05,0,0.1,0.01,0.15,0.01c0.01,0,0.03,0,0.04,0.01c0.05,0.01,0.11,0.02,0.16,0.03
						c0.01,0,0.03,0.01,0.04,0.01c0.04,0.01,0.08,0.02,0.12,0.03c0.02,0.01,0.04,0.01,0.06,0.02c0.03,0.01,0.07,0.02,0.1,0.03
						c0.04,0.01,0.08,0.03,0.12,0.05c0.02,0.01,0.04,0.01,0.06,0.02c0.06,0.03,0.11,0.05,0.16,0.09c0,0-3.25-1.9-3.25-1.9
						c-0.05-0.03-0.11-0.06-0.16-0.08c-0.02-0.01-0.04-0.02-0.06-0.02c-0.61-0.27-1.34-0.21-1.96,0c-0.63,0.21-1.23,0.56-1.75,0.97
						c-0.02,0.01-0.03,0.03-0.05,0.04c-0.03,0.02-0.06,0.05-0.09,0.07c-1.89,1.56-3.24,4.02-3.42,6.48
						c-0.06,0.84,0.03,1.81,0.5,2.54c0,0,0,0.01,0.01,0.01c0.01,0.01,0.01,0.02,0.02,0.03c0.02,0.04,0.05,0.07,0.08,0.11
						c0.01,0.01,0.02,0.03,0.03,0.04c0.02,0.03,0.05,0.06,0.08,0.09c0.01,0.01,0.02,0.02,0.03,0.03c0.04,0.04,0.07,0.08,0.11,0.11
						c0.01,0.01,0.01,0.01,0.02,0.01c0.03,0.03,0.07,0.06,0.1,0.09c0.01,0.01,0.03,0.02,0.04,0.03c0.03,0.02,0.06,0.05,0.09,0.07
						c0.01,0.01,0.03,0.02,0.04,0.03c0.04,0.03,0.09,0.06,0.13,0.08l3.25,1.9c-0.04-0.03-0.09-0.05-0.13-0.08
						c-0.01-0.01-0.03-0.02-0.04-0.03C93.38,262.13,93.35,262.11,93.32,262.08z"/>
					<g>
						<path class="st19" d="M96.68,251.84c-2.43,1.4-4.39,4.8-4.39,7.6c0.01,2.79,1.98,3.92,4.42,2.52c2.43-1.4,4.39-4.8,4.39-7.6
							C101.09,251.56,99.11,250.44,96.68,251.84z"/>
					</g>
				</g>
				<g>
					<g>
						<path class="st20" d="M96.83,253.8c-1.5,0.87-2.73,2.9-2.86,4.66c-0.01,0.11-0.01,0.21-0.01,0.32c0,1.83,1.3,2.57,2.89,1.65
							c1.59-0.92,2.88-3.15,2.87-4.98c0-0.11-0.01-0.21-0.01-0.3C99.57,253.54,98.33,252.94,96.83,253.8z"/>
					</g>
					<g>
						<path class="st21" d="M96.83,254.71c-1.09,0.63-1.98,2.11-2.08,3.39c-0.01,0.08-0.01,0.16-0.01,0.23c0,1.33,0.95,1.87,2.1,1.2
							c1.16-0.67,2.09-2.29,2.09-3.62c0-0.08,0-0.15-0.01-0.22C98.82,254.52,97.93,254.08,96.83,254.71z"/>
					</g>
					<path class="st22" d="M98.93,255.68c-0.09-0.97-0.72-1.43-1.55-1.21c0.65-0.02,1.11,0.44,1.18,1.26
						c0.01,0.07,0.01,0.15,0.01,0.22c0,1.33-0.93,2.95-2.09,3.62c-0.19,0.11-0.37,0.18-0.54,0.23c0.28-0.01,0.58-0.1,0.91-0.29
						c1.16-0.67,2.09-2.29,2.09-3.62C98.94,255.83,98.93,255.75,98.93,255.68z"/>
					<g>
						<path class="st23" d="M97.63,257.37c0.06-0.03,0.12-0.04,0.17-0.02c0.09,0.05,0.09,0.22,0,0.38
							c-0.05,0.08-0.11,0.14-0.17,0.18c-0.06,0.03-0.12,0.04-0.17,0.02c-0.09-0.05-0.09-0.22,0-0.38
							C97.51,257.47,97.57,257.41,97.63,257.37z"/>
						<path class="st23" d="M96.71,256.5c0.3-0.17,0.54-0.03,0.54,0.31c0,0.34-0.24,0.75-0.53,0.92c-0.3,0.17-0.54,0.03-0.54-0.31
							C96.17,257.09,96.41,256.67,96.71,256.5z"/>
						<path class="st23" d="M96.71,258.34c0.13-0.07,0.24-0.02,0.24,0.13c0,0.15-0.1,0.33-0.23,0.41c-0.13,0.07-0.24,0.01-0.24-0.13
							C96.48,258.6,96.58,258.41,96.71,258.34z"/>
						<path class="st23" d="M95.79,258.43c0.06-0.03,0.12-0.04,0.17-0.02c0.09,0.05,0.09,0.22,0,0.38
							c-0.05,0.08-0.11,0.14-0.17,0.18c-0.06,0.03-0.12,0.04-0.17,0.02c-0.09-0.05-0.09-0.22,0-0.38
							C95.67,258.53,95.73,258.47,95.79,258.43z"/>
						<path class="st23" d="M97.62,255.26c0.06-0.03,0.12-0.04,0.17-0.02c0.09,0.05,0.09,0.22,0,0.38
							c-0.05,0.08-0.11,0.14-0.17,0.18c-0.06,0.03-0.12,0.04-0.17,0.02c-0.09-0.05-0.09-0.22,0-0.38
							C97.5,255.36,97.56,255.29,97.62,255.26z"/>
						<path class="st23" d="M96.7,255.89c-0.13,0.08-0.24,0.02-0.24-0.13c0-0.15,0.1-0.33,0.23-0.41c0.13-0.07,0.24-0.01,0.24,0.13
							C96.94,255.64,96.83,255.82,96.7,255.89z"/>
						<path class="st23" d="M95.79,256.86c-0.06,0.03-0.12,0.04-0.17,0.02c-0.09-0.05-0.09-0.22,0-0.38
							c0.05-0.08,0.11-0.14,0.17-0.18c0.06-0.03,0.12-0.04,0.17-0.02c0.09,0.05,0.09,0.22,0,0.38
							C95.91,256.77,95.85,256.83,95.79,256.86z"/>
						<path class="st23" d="M97.77,256.5c0-0.15,0.1-0.33,0.24-0.41c0.13-0.07,0.24-0.01,0.24,0.13c0,0.15-0.1,0.33-0.23,0.41
							C97.88,256.71,97.77,256.65,97.77,256.5z"/>
						<path class="st23" d="M95.41,257.6c0.13-0.08,0.24-0.02,0.24,0.13c0,0.15-0.1,0.33-0.23,0.41c-0.13,0.08-0.24,0.02-0.24-0.13
							C95.17,257.85,95.28,257.67,95.41,257.6z"/>
					</g>
				</g>
			</g>
			<linearGradient id="SVGID_12_" gradientUnits="userSpaceOnUse" x1="73.4512" y1="250.1127" x2="89.4507" y2="250.1127">
				<stop  offset="0" style="stop-color:#3282ED"/>
				<stop  offset="1" style="stop-color:#60A2F0"/>
			</linearGradient>
			<polygon class="st32" points="89.45,259.46 73.48,250.42 73.45,240.77 89.42,249.8 			"/>
			<polygon class="st33" points="89.42,249.8 73.45,240.77 75.62,231.38 91.59,240.42 			"/>
			<linearGradient id="SVGID_13_" gradientUnits="userSpaceOnUse" x1="75.6228" y1="232.8089" x2="102.3028" y2="232.8089">
				<stop  offset="0" style="stop-color:#3282ED"/>
				<stop  offset="1" style="stop-color:#60A2F0"/>
			</linearGradient>
			<polygon class="st34" points="91.59,240.42 75.62,231.38 86.33,225.2 102.3,234.24 			"/>
			<linearGradient id="SVGID_14_" gradientUnits="userSpaceOnUse" x1="73.4512" y1="240.5924" x2="91.5946" y2="240.5924">
				<stop  offset="0" style="stop-color:#3282ED"/>
				<stop  offset="1" style="stop-color:#60A2F0"/>
			</linearGradient>
			<path class="st35" d="M75.62,231.38l-2.17,9.39l15.97,9.03l2.17-9.38L75.62,231.38z M89,248.84l-14.83-8.39l1.88-8.11l14.83,8.39
				L89,248.84z"/>
			<g id="XMLID_143_">
				<g id="XMLID_144_" class="st36">
					<g id="XMLID_145_">
						<polygon id="XMLID_146_" class="st37" points="76.3,244.19 76.3,250.39 86.6,256.35 86.6,250.15 						"/>
					</g>
				</g>
			</g>
			<g>
				<polygon class="st22" points="88.67,257.73 88.67,259.9 72.78,250.77 72.78,248.59 				"/>
				<polygon class="st20" points="88.67,257.73 88.67,259.9 89.45,259.46 89.45,257.29 				"/>
				<polygon class="st38" points="72.78,248.59 88.67,257.73 89.45,257.29 73.57,248.15 				"/>
			</g>
			<g>
				<polygon class="st39" points="89.42,255.07 86.87,253.6 86.87,255.13 89.42,256.59 				"/>
			</g>
			<g>
				<polygon class="st39" points="76,247.32 73.45,245.85 73.45,247.38 76,248.84 				"/>
			</g>
			<linearGradient id="SVGID_15_" gradientUnits="userSpaceOnUse" x1="89.4228" y1="246.8465" x2="102.3344" y2="246.8465">
				<stop  offset="0" style="stop-color:#3282ED"/>
				<stop  offset="1" style="stop-color:#60A2F0"/>
			</linearGradient>
			<path class="st40" d="M102.3,234.24l-10.71,6.18l-2.17,9.38l0.03,9.66l2.29-1.33c0.58-2.74,2.5-5.61,4.77-6.92
				c2.27-1.31,4.19-0.67,4.79,1.38l1.03-0.59v-6.38L102.3,234.24z"/>
			<g>
				<path class="st33" d="M98.06,237.48c0.11-0.06,0.2-0.01,0.21,0.12l0.02,5.59c0,0.13-0.09,0.29-0.2,0.35l-7.11,4.1
					c-0.14,0.08-0.24-0.02-0.19-0.2l1.26-6.33c0.03-0.11,0.11-0.22,0.19-0.27L98.06,237.48z"/>
			</g>
			<linearGradient id="SVGID_16_" gradientUnits="userSpaceOnUse" x1="86.346" y1="258.2182" x2="88.2789" y2="258.2182">
				<stop  offset="0" style="stop-color:#3282ED"/>
				<stop  offset="1" style="stop-color:#60A2F0"/>
			</linearGradient>
			<polygon class="st41" points="88.28,258.28 88.28,259.27 86.35,258.16 86.35,257.17 			"/>
			<linearGradient id="SVGID_17_" gradientUnits="userSpaceOnUse" x1="73.091" y1="250.6229" x2="75.0239" y2="250.6229">
				<stop  offset="0" style="stop-color:#3282ED"/>
				<stop  offset="1" style="stop-color:#60A2F0"/>
			</linearGradient>
			<polygon class="st42" points="75.02,250.68 75.02,251.68 73.09,250.57 73.09,249.57 			"/>
			<polygon class="st20" points="124.89,235.14 124.89,238.75 118.17,242.56 118.17,239.03 			"/>
			<polygon class="st43" points="118.17,242.56 116.9,241.87 116.9,239.76 118.17,239.03 			"/>
			<polygon class="st44" points="90.88,240.73 74.17,240.45 76.05,232.34 			"/>
		</g>
		<g>
			<linearGradient id="SVGID_18_" gradientUnits="userSpaceOnUse" x1="122.7313" y1="223.0466" x2="124.6167" y2="223.0466">
				<stop  offset="0" style="stop-color:#3282ED"/>
				<stop  offset="1" style="stop-color:#60A2F0"/>
			</linearGradient>
			<polygon class="st45" points="122.73,229.85 124.62,228.77 124.62,216.24 122.73,217.33 			"/>
			<linearGradient id="SVGID_19_" gradientUnits="userSpaceOnUse" x1="126.8881" y1="219.4443" x2="132.9294" y2="219.4443">
				<stop  offset="0" style="stop-color:#3282ED"/>
				<stop  offset="1" style="stop-color:#60A2F0"/>
			</linearGradient>
			<polygon class="st46" points="131.04,222.93 128.77,224.24 128.77,213.84 126.89,214.93 126.89,225.33 126.89,227.45 
				128.77,226.37 128.77,226.36 132.93,223.96 132.93,221.84 132.93,211.44 131.04,212.52 			"/>
			<linearGradient id="SVGID_20_" gradientUnits="userSpaceOnUse" x1="135.2008" y1="215.8425" x2="137.0857" y2="215.8425">
				<stop  offset="0" style="stop-color:#3282ED"/>
				<stop  offset="1" style="stop-color:#60A2F0"/>
			</linearGradient>
			<polygon class="st47" points="135.2,210.12 135.2,222.65 137.09,221.56 137.09,209.04 			"/>
		</g>
	</g>
	<polygon class="st48" points="255.59,175.66 255.59,199.31 274.04,188.66 274.04,165.01 	"/>
	<polygon class="st49" points="255.59,175.66 255.59,199.31 199.16,166.72 199.16,143.08 	"/>
	<polygon class="st0" points="249.74,176.92 249.74,184.28 232.17,174.14 232.17,166.78 	"/>
	<polygon class="st0" points="249.74,187.31 249.74,192.35 237.71,185.41 237.71,180.37 	"/>
	<polygon class="st50" points="274.04,165.01 255.59,175.66 199.16,143.08 217.61,132.43 	"/>
	<polygon class="st48" points="226.88,191.57 226.88,215.22 245.33,204.57 245.33,180.93 	"/>
	<polygon class="st49" points="226.88,191.57 226.88,215.22 170.45,182.64 170.45,158.99 	"/>
	<polygon class="st0" points="221.02,192.84 221.02,200.2 203.46,190.05 203.46,182.69 	"/>
	<polygon class="st0" points="221.02,203.22 221.02,208.26 209,201.32 209,196.28 	"/>
	<polygon class="st50" points="245.33,180.93 226.88,191.57 170.45,158.99 188.9,148.34 	"/>
	<g>
		<polygon class="st48" points="196.43,206.1 196.43,229.75 214.88,219.1 214.88,195.45 		"/>
		<polygon class="st49" points="196.43,206.1 196.43,229.75 140.01,197.17 140.01,173.52 		"/>
		<polygon class="st51" points="190.58,207.36 190.58,214.73 173.02,204.58 173.02,197.22 		"/>
		<polygon class="st51" points="190.58,217.75 190.58,222.79 178.56,215.85 178.56,210.81 		"/>
		<polygon class="st50" points="214.88,195.45 196.43,206.1 140.01,173.52 158.46,162.87 		"/>
	</g>
	<g>
		<g>
			<polygon class="st16" points="124.58,284.01 102.84,271.18 152.37,242.33 174.1,255.15 			"/>
			<g>
				<polygon class="st17" points="139.24,269.1 171.07,250.98 169.35,249.61 139.24,267.56 				"/>
				<polygon class="st17" points="172.05,252.34 168.96,250.37 172.05,248.58 				"/>
				<g>
					<g>
						<path class="st18" d="M163.43,262.29c-0.01-0.01-0.03-0.02-0.04-0.03c-0.03-0.03-0.07-0.06-0.1-0.09
							c-0.01-0.01-0.01-0.01-0.02-0.01c-0.04-0.04-0.07-0.08-0.11-0.11c-0.01-0.01-0.02-0.02-0.03-0.03
							c-0.03-0.03-0.05-0.06-0.08-0.09c-0.01-0.01-0.02-0.03-0.03-0.04c-0.03-0.04-0.05-0.07-0.08-0.11
							c-0.01-0.01-0.01-0.02-0.02-0.03c-0.03-0.05-0.06-0.1-0.09-0.16c-0.03-0.05-0.06-0.11-0.08-0.17c0-0.01-0.01-0.02-0.01-0.03
							c-0.02-0.05-0.04-0.09-0.06-0.14c-0.01-0.01-0.01-0.03-0.02-0.04c-0.01-0.03-0.02-0.06-0.03-0.09
							c-0.02-0.05-0.03-0.09-0.05-0.14c-0.01-0.03-0.02-0.06-0.03-0.09c-0.01-0.04-0.02-0.08-0.03-0.12
							c-0.01-0.03-0.02-0.07-0.02-0.11c-0.01-0.03-0.01-0.07-0.02-0.11c-0.01-0.04-0.01-0.08-0.02-0.12
							c-0.01-0.03-0.01-0.06-0.01-0.1c-0.01-0.04-0.01-0.09-0.02-0.13c0-0.03-0.01-0.06-0.01-0.09c0-0.05-0.01-0.11-0.01-0.16
							c0-0.02,0-0.04,0-0.07c0-0.08-0.01-0.16-0.01-0.24c0-0.08,0-0.16,0-0.24c0-0.03,0-0.05,0-0.08c0-0.06,0.01-0.11,0.01-0.17
							c0-0.03,0-0.06,0.01-0.09c0.01-0.06,0.01-0.12,0.02-0.18c0-0.02,0-0.05,0.01-0.07c0.01-0.08,0.02-0.17,0.04-0.25
							c0-0.01,0-0.02,0.01-0.03c0.01-0.07,0.03-0.15,0.04-0.22c0.01-0.03,0.01-0.06,0.02-0.09c0.01-0.06,0.02-0.11,0.04-0.17
							c0.01-0.03,0.02-0.06,0.02-0.1c0.01-0.05,0.03-0.11,0.04-0.16c0.01-0.03,0.02-0.06,0.03-0.1c0.02-0.06,0.03-0.12,0.05-0.17
							c0.01-0.03,0.02-0.05,0.02-0.08c0.03-0.08,0.05-0.17,0.08-0.25c0-0.01,0-0.01,0.01-0.02c0.03-0.08,0.05-0.16,0.08-0.23
							c0.01-0.03,0.02-0.05,0.03-0.08c0.02-0.06,0.04-0.12,0.07-0.18c0.01-0.03,0.02-0.06,0.03-0.08c0.02-0.06,0.05-0.12,0.08-0.18
							c0.01-0.02,0.02-0.04,0.03-0.06c0.04-0.08,0.07-0.16,0.11-0.24c0.01-0.02,0.02-0.04,0.03-0.06c0.03-0.06,0.06-0.13,0.09-0.19
							c0.02-0.04,0.05-0.09,0.07-0.13c0.02-0.04,0.04-0.08,0.07-0.13c0.06-0.11,0.12-0.23,0.19-0.34c0.02-0.04,0.04-0.08,0.07-0.11
							c0.03-0.05,0.05-0.09,0.08-0.14c0.03-0.04,0.05-0.08,0.08-0.12c0.03-0.04,0.06-0.09,0.09-0.13c0.02-0.03,0.04-0.06,0.06-0.09
							c0.08-0.12,0.16-0.24,0.25-0.36c0,0,0,0,0,0c0.06-0.08,0.12-0.16,0.18-0.24c0.05-0.06,0.1-0.12,0.15-0.18
							c0.01-0.01,0.02-0.02,0.03-0.04c0.06-0.07,0.12-0.14,0.18-0.21c0.02-0.02,0.04-0.04,0.05-0.06c0.04-0.05,0.09-0.1,0.13-0.14
							c0.03-0.03,0.05-0.05,0.08-0.08c0.04-0.04,0.08-0.08,0.11-0.12c0.03-0.03,0.06-0.05,0.08-0.08c0.04-0.04,0.07-0.07,0.11-0.11
							c0.03-0.03,0.06-0.06,0.09-0.08c0.04-0.03,0.07-0.07,0.11-0.1c0.03-0.03,0.06-0.05,0.09-0.08c0.04-0.03,0.08-0.06,0.12-0.1
							c0.03-0.02,0.06-0.05,0.09-0.07c0.04-0.03,0.08-0.06,0.12-0.1c0.03-0.02,0.06-0.04,0.08-0.06c0.05-0.03,0.09-0.07,0.14-0.1
							c0.02-0.02,0.05-0.03,0.07-0.05c0.07-0.05,0.14-0.09,0.21-0.14c0,0,0.01-0.01,0.01-0.01c0.07-0.04,0.14-0.09,0.21-0.13
							c0.06-0.04,0.13-0.07,0.19-0.11c0.02-0.01,0.05-0.03,0.07-0.04c0.05-0.02,0.1-0.05,0.14-0.07c0.02-0.01,0.04-0.02,0.06-0.03
							c0.07-0.03,0.14-0.06,0.2-0.09c0.07-0.03,0.13-0.05,0.2-0.07c0.02-0.01,0.04-0.01,0.06-0.02c0.04-0.01,0.09-0.03,0.13-0.04
							c0.03-0.01,0.05-0.01,0.08-0.02c0.04-0.01,0.08-0.02,0.12-0.03c0.03-0.01,0.05-0.01,0.08-0.02c0.04-0.01,0.08-0.01,0.11-0.02
							c0.03,0,0.06-0.01,0.09-0.01c0.03-0.01,0.07-0.01,0.1-0.01c0.03,0,0.06-0.01,0.09-0.01c0.03,0,0.06,0,0.09-0.01
							c0.04,0,0.07,0,0.11,0c0.05,0,0.1,0,0.15,0c0,0,0.01,0,0.01,0c0.05,0,0.1,0.01,0.15,0.01c0.01,0,0.03,0,0.04,0
							c0.05,0.01,0.11,0.02,0.16,0.03c0.01,0,0.03,0.01,0.04,0.01c0.04,0.01,0.08,0.02,0.12,0.03c0.02,0.01,0.04,0.01,0.06,0.02
							c0.03,0.01,0.07,0.02,0.1,0.03c0.04,0.01,0.08,0.03,0.12,0.05c0.02,0.01,0.04,0.02,0.06,0.02c0.06,0.03,0.11,0.05,0.16,0.09
							c0,0-4.2-2.44-4.2-2.44c-0.05-0.03-0.11-0.06-0.16-0.09c-0.02-0.01-0.04-0.02-0.06-0.02c-0.61-0.27-1.34-0.21-1.96,0
							c-0.63,0.2-1.23,0.56-1.75,0.97c-0.02,0.01-0.03,0.03-0.05,0.04c-0.03,0.02-0.06,0.05-0.09,0.07
							c-1.89,1.56-3.24,4.02-3.42,6.48c-0.06,0.84,0.03,1.81,0.5,2.54c0,0,0,0.01,0.01,0.01c0.01,0.01,0.01,0.02,0.02,0.03
							c0.02,0.04,0.05,0.07,0.08,0.11c0.01,0.01,0.02,0.03,0.03,0.04c0.02,0.03,0.05,0.06,0.08,0.09c0.01,0.01,0.02,0.02,0.03,0.03
							c0.04,0.04,0.07,0.08,0.11,0.12c0.01,0.01,0.01,0.01,0.02,0.01c0.03,0.03,0.07,0.06,0.1,0.09c0.01,0.01,0.03,0.02,0.04,0.03
							c0.03,0.02,0.06,0.05,0.09,0.07c0.01,0.01,0.02,0.02,0.04,0.03c0.04,0.03,0.09,0.06,0.13,0.08l4.2,2.44
							c-0.05-0.03-0.09-0.05-0.13-0.08c-0.01-0.01-0.03-0.02-0.04-0.03C163.49,262.34,163.46,262.32,163.43,262.29z"/>
						<g>
							<path class="st19" d="M166.79,252.05c-2.43,1.4-4.39,4.8-4.39,7.6c0.01,2.79,1.98,3.92,4.42,2.52c2.43-1.4,4.39-4.8,4.39-7.6
								C171.2,251.78,169.22,250.65,166.79,252.05z"/>
						</g>
					</g>
					<g>
						<g>
							<path class="st20" d="M166.95,254.02c-1.5,0.87-2.73,2.89-2.86,4.66c-0.01,0.11-0.01,0.21-0.01,0.32
								c0,1.83,1.3,2.57,2.89,1.65c1.59-0.92,2.88-3.15,2.87-4.97c0-0.11,0-0.21-0.01-0.31
								C169.68,253.75,168.44,253.15,166.95,254.02z"/>
						</g>
						<g>
							<path class="st21" d="M166.95,254.92c-1.09,0.63-1.98,2.11-2.08,3.39c-0.01,0.08-0.01,0.16-0.01,0.23
								c0,1.33,0.95,1.87,2.1,1.2c1.16-0.67,2.09-2.29,2.09-3.62c0-0.08,0-0.15-0.01-0.22
								C168.94,254.73,168.04,254.29,166.95,254.92z"/>
						</g>
						<path class="st22" d="M169.04,255.89c-0.09-0.97-0.72-1.43-1.55-1.21c0.65-0.02,1.11,0.44,1.18,1.26
							c0.01,0.07,0.01,0.15,0.01,0.22c0,1.33-0.93,2.95-2.09,3.62c-0.19,0.11-0.37,0.18-0.54,0.23c0.28-0.01,0.58-0.1,0.91-0.29
							c1.16-0.67,2.09-2.29,2.09-3.62C169.05,256.04,169.05,255.96,169.04,255.89z"/>
						<g>
							<path class="st23" d="M167.74,257.58c0.06-0.03,0.12-0.04,0.17-0.02c0.09,0.05,0.09,0.22,0,0.38
								c-0.05,0.08-0.11,0.14-0.17,0.17c-0.06,0.03-0.12,0.04-0.17,0.02c-0.09-0.05-0.09-0.22,0-0.38
								C167.62,257.68,167.68,257.62,167.74,257.58z"/>
							<path class="st23" d="M166.82,256.71c0.3-0.17,0.54-0.03,0.54,0.31c0,0.34-0.24,0.75-0.53,0.92
								c-0.3,0.17-0.54,0.03-0.54-0.31C166.28,257.3,166.52,256.88,166.82,256.71z"/>
							<path class="st23" d="M166.82,258.55c0.13-0.08,0.24-0.01,0.24,0.13c0,0.15-0.1,0.33-0.23,0.41
								c-0.13,0.08-0.24,0.01-0.24-0.13C166.59,258.81,166.69,258.62,166.82,258.55z"/>
							<path class="st23" d="M165.9,258.64c0.06-0.03,0.12-0.04,0.17-0.02c0.09,0.05,0.09,0.22,0,0.38
								c-0.05,0.08-0.11,0.14-0.17,0.17c-0.06,0.04-0.12,0.04-0.17,0.02c-0.09-0.05-0.09-0.22,0-0.38
								C165.78,258.74,165.84,258.68,165.9,258.64z"/>
							<path class="st23" d="M167.74,255.47c0.06-0.03,0.12-0.04,0.17-0.02c0.09,0.05,0.09,0.22,0,0.38
								c-0.05,0.08-0.11,0.14-0.17,0.18c-0.06,0.03-0.12,0.04-0.17,0.02c-0.09-0.05-0.09-0.22,0-0.38
								C167.62,255.57,167.68,255.5,167.74,255.47z"/>
							<path class="st23" d="M166.82,256.1c-0.13,0.08-0.24,0.01-0.24-0.13c0-0.15,0.1-0.33,0.23-0.41
								c0.13-0.08,0.24-0.01,0.24,0.14C167.05,255.85,166.95,256.03,166.82,256.1z"/>
							<path class="st23" d="M165.9,257.07c-0.06,0.04-0.12,0.04-0.17,0.02c-0.09-0.05-0.09-0.22,0-0.38
								c0.05-0.08,0.11-0.14,0.17-0.17c0.06-0.03,0.12-0.04,0.17-0.02c0.09,0.05,0.09,0.22,0,0.38
								C166.02,256.98,165.96,257.04,165.9,257.07z"/>
							<path class="st23" d="M167.89,256.71c0-0.15,0.1-0.33,0.23-0.41c0.13-0.08,0.24-0.01,0.24,0.14c0,0.15-0.1,0.33-0.23,0.41
								C167.99,256.92,167.89,256.86,167.89,256.71z"/>
							<path class="st23" d="M165.52,257.81c0.13-0.07,0.24-0.01,0.24,0.13c0,0.15-0.1,0.33-0.23,0.41
								c-0.13,0.08-0.24,0.01-0.24-0.13C165.28,258.06,165.39,257.88,165.52,257.81z"/>
						</g>
					</g>
				</g>
				<polygon class="st24" points="137.11,266.22 121.19,257.21 158.19,235.74 174.1,244.76 				"/>
				<g>
					<path class="st25" d="M139.49,266.32c0,0,0.01,0,0.01-0.01c0.01,0,0.01-0.01,0.02-0.01c0,0,0.01,0,0.01-0.01
						c0.01,0,0.01-0.01,0.02-0.01c0.01,0,0.01,0,0.02-0.01c0,0,0.01,0,0.01,0c0.01,0,0.01,0,0.02-0.01c0,0,0.01,0,0.01,0
						c0.01,0,0.01,0,0.02-0.01c0,0,0.01,0,0.01,0c0.01,0,0.01,0,0.02,0c0,0,0.01,0,0.01,0c0.01,0,0.02,0,0.03-0.01
						c0,0,0.01,0,0.01,0c0.01,0,0.02,0,0.03,0c0,0,0.01,0,0.01,0c0.01,0,0.02,0,0.03,0c0.01,0,0.03,0,0.04,0c0,0,0.01,0,0.01,0
						c0.01,0,0.02,0,0.03,0c0.01,0,0.01,0,0.02,0c0.01,0,0.01,0,0.02,0c0.01,0,0.01,0,0.02,0c0.01,0,0.01,0,0.02,0
						c0.01,0,0.01,0,0.02,0c0.01,0,0.01,0,0.02,0c0.01,0,0.01,0,0.02,0c0.01,0,0.01,0,0.02,0c0.01,0,0.01,0,0.02,0
						c0.01,0,0.01,0,0.02,0c0.01,0,0.01,0,0.02,0c0.01,0,0.01,0,0.02,0c0.01,0,0.02,0,0.02,0c0,0,0.01,0,0.01,0
						c0.01,0,0.02,0,0.03,0.01c0,0,0.01,0,0.01,0c0.01,0,0.03,0.01,0.04,0.01c0,0,0.01,0,0.01,0c0.01,0,0.02,0.01,0.03,0.01
						c0,0,0.01,0,0.01,0c0.01,0,0.02,0.01,0.03,0.01c0,0,0.01,0,0.01,0c0.01,0,0.02,0.01,0.03,0.01c0,0,0.01,0,0.01,0
						c0.01,0,0.02,0.01,0.03,0.01c0,0,0,0,0.01,0c0.01,0.01,0.03,0.01,0.04,0.02c0,0,0.01,0,0.01,0.01c0.01,0,0.02,0.01,0.03,0.01
						c0,0,0.01,0,0.01,0.01c0.01,0,0.02,0.01,0.03,0.01c0,0,0.01,0,0.01,0.01c0.01,0.01,0.03,0.01,0.04,0.02c0,0,0,0,0,0
						c0.01,0.01,0.03,0.01,0.04,0.02c0,0,0,0,0.01,0c0.01,0.01,0.03,0.01,0.04,0.02l8.66-5.04c-0.01-0.01-0.03-0.01-0.04-0.02
						c0,0,0,0-0.01,0c0,0,0,0-0.01,0c-0.01-0.01-0.02-0.01-0.03-0.02l0,0c-0.01-0.01-0.02-0.01-0.03-0.02c0,0,0,0-0.01,0
						c0,0-0.01,0-0.01-0.01c-0.01,0-0.02-0.01-0.03-0.01c0,0-0.01,0-0.01-0.01c0,0-0.01,0-0.01,0c-0.01,0-0.01-0.01-0.02-0.01
						c0,0-0.01,0-0.01-0.01c-0.01-0.01-0.03-0.01-0.04-0.02c0,0,0,0,0,0c0,0,0,0-0.01,0c-0.01,0-0.02-0.01-0.03-0.01
						c0,0-0.01,0-0.01-0.01c-0.01,0-0.01,0-0.02-0.01c0,0-0.01,0-0.01,0c0,0-0.01,0-0.01-0.01c-0.01,0-0.02-0.01-0.03-0.01
						c0,0-0.01,0-0.01,0c0,0,0,0,0,0c-0.01,0-0.02-0.01-0.03-0.01c0,0-0.01,0-0.01,0c-0.01,0-0.02-0.01-0.04-0.01c0,0,0,0,0,0
						c0,0-0.01,0-0.01,0c-0.01,0-0.02,0-0.03-0.01c0,0-0.01,0-0.01,0c-0.01,0-0.01,0-0.02,0c0,0-0.01,0-0.01,0
						c-0.01,0-0.01,0-0.02,0c-0.01,0-0.01,0-0.02,0c-0.01,0-0.01,0-0.02,0c0,0-0.01,0-0.01,0c0,0-0.01,0-0.01,0
						c-0.01,0-0.01,0-0.02,0c-0.01,0-0.01,0-0.02,0c-0.01,0-0.01,0-0.02,0c0,0-0.01,0-0.01,0c0,0-0.01,0-0.01,0
						c-0.01,0-0.01,0-0.02,0c-0.01,0-0.01,0-0.02,0c-0.01,0-0.01,0-0.02,0c0,0-0.01,0-0.01,0c0,0,0,0-0.01,0c-0.01,0-0.02,0-0.03,0
						c0,0-0.01,0-0.01,0c-0.01,0-0.03,0-0.04,0h0c-0.01,0-0.02,0-0.03,0c0,0-0.01,0-0.01,0c-0.01,0-0.02,0-0.03,0c0,0,0,0-0.01,0
						c-0.01,0-0.02,0-0.03,0.01c0,0,0,0,0,0c0,0-0.01,0-0.01,0c-0.01,0-0.01,0-0.02,0c0,0-0.01,0-0.01,0c-0.01,0-0.01,0-0.02,0.01
						c0,0-0.01,0-0.01,0c-0.01,0-0.01,0-0.02,0.01c0,0-0.01,0-0.01,0c0,0-0.01,0-0.01,0c0,0-0.01,0-0.01,0
						c-0.01,0-0.01,0.01-0.02,0.01c0,0-0.01,0-0.01,0.01c-0.01,0-0.01,0.01-0.02,0.01c0,0-0.01,0-0.01,0.01
						c-0.01,0-0.01,0.01-0.02,0.01c0,0-0.01,0-0.01,0.01c-0.01,0.01-0.02,0.01-0.03,0.02l0,0l-8.66,5.04
						c0.01-0.01,0.02-0.01,0.03-0.02c0,0,0.01,0,0.01,0C139.47,266.32,139.48,266.32,139.49,266.32z"/>
					<g>
						<polygon class="st26" points="140.64,266.47 149.31,261.43 150.36,262.04 141.69,267.07 						"/>
					</g>
					<path class="st22" d="M152.07,264.95c0,0,0-0.01,0-0.01c0-0.01,0-0.01,0-0.02c0-0.01,0-0.01,0-0.02c0-0.01,0-0.01,0-0.02
						c0-0.01,0-0.02,0-0.04c0,0,0-0.01,0-0.01v0c0-0.01,0-0.03,0-0.04c0,0,0-0.01,0-0.01c0-0.01,0-0.02,0-0.03c0,0,0-0.01,0-0.01
						c0-0.01,0-0.01,0-0.02c0-0.01,0-0.02,0-0.03c0-0.01,0-0.01,0-0.02c0,0,0-0.01,0-0.01c0-0.01,0-0.02,0-0.03c0,0,0-0.01,0-0.01
						c0-0.02,0-0.03-0.01-0.04c0,0,0,0,0,0c0,0,0-0.01,0-0.01c0-0.01,0-0.02-0.01-0.04c0-0.01,0-0.01,0-0.02c0-0.01,0-0.01,0-0.02
						c0-0.01,0-0.01,0-0.02c0-0.01,0-0.01,0-0.02c0-0.01,0-0.02-0.01-0.03c0-0.01,0-0.01,0-0.02c0,0,0,0,0-0.01
						c0-0.01-0.01-0.03-0.01-0.04c0,0,0,0,0,0c0-0.02-0.01-0.03-0.01-0.05c0,0,0,0,0,0c0-0.01,0-0.01,0-0.02
						c0-0.01-0.01-0.02-0.01-0.03c0-0.01,0-0.01,0-0.02c0-0.01,0-0.01-0.01-0.02c0,0,0-0.01,0-0.01c0-0.01,0-0.01-0.01-0.02
						c0-0.01-0.01-0.02-0.01-0.03c0-0.01,0-0.01-0.01-0.02c0,0,0-0.01,0-0.01c0-0.01-0.01-0.02-0.01-0.03c0,0,0-0.01,0-0.01
						c0-0.01-0.01-0.03-0.02-0.05l0,0c0,0,0-0.01,0-0.01c0-0.01-0.01-0.02-0.01-0.04c0-0.01,0-0.01-0.01-0.02
						c0-0.01,0-0.01-0.01-0.02c0,0,0-0.01-0.01-0.01c0-0.01,0-0.01-0.01-0.02c0-0.01-0.01-0.02-0.01-0.04c0,0,0-0.01,0-0.01
						c0,0,0,0,0,0c-0.01-0.02-0.01-0.03-0.02-0.04c0,0,0-0.01,0-0.01c0-0.01-0.01-0.02-0.01-0.03c0,0,0,0,0-0.01
						c-0.01-0.02-0.02-0.05-0.03-0.07c0,0,0,0,0,0c0,0,0-0.01,0-0.01c-0.01-0.02-0.02-0.04-0.03-0.07c0,0,0-0.01,0-0.01
						c0,0,0,0,0-0.01c0-0.01-0.01-0.01-0.01-0.02c0-0.01-0.01-0.02-0.02-0.03c0-0.01-0.01-0.01-0.01-0.02
						c0-0.01-0.01-0.01-0.01-0.02c0,0,0-0.01-0.01-0.01c0-0.01-0.01-0.02-0.01-0.03c0-0.01-0.01-0.02-0.01-0.03
						c0-0.01-0.01-0.02-0.01-0.03c0,0-0.01-0.01-0.01-0.01c0,0,0-0.01,0-0.01c-0.01-0.02-0.02-0.04-0.04-0.07c0,0,0-0.01,0-0.01
						c-0.01-0.02-0.02-0.04-0.03-0.06c0,0,0-0.01-0.01-0.01c0,0,0-0.01-0.01-0.01c-0.01-0.01-0.01-0.02-0.02-0.03
						c0-0.01-0.01-0.02-0.01-0.02c-0.01-0.01-0.01-0.02-0.02-0.03c0-0.01-0.01-0.02-0.01-0.02c-0.01-0.01-0.01-0.02-0.02-0.03
						c-0.01-0.01-0.01-0.02-0.01-0.02c-0.01-0.01-0.01-0.02-0.02-0.03c0-0.01-0.01-0.01-0.01-0.02c0,0,0,0,0,0
						c-0.02-0.02-0.03-0.05-0.05-0.07c0-0.01-0.01-0.01-0.01-0.01c-0.02-0.02-0.03-0.05-0.05-0.07c0,0,0,0,0,0
						c0,0-0.01-0.01-0.01-0.01c-0.01-0.01-0.02-0.02-0.03-0.04c0-0.01-0.01-0.01-0.01-0.02c-0.01-0.01-0.02-0.02-0.02-0.03
						c0,0,0,0,0,0c-0.01-0.01-0.01-0.01-0.02-0.02c0-0.01-0.01-0.01-0.01-0.02c-0.01-0.01-0.01-0.02-0.02-0.03
						c0-0.01-0.01-0.01-0.01-0.02c0,0,0,0,0,0c-0.01-0.01-0.02-0.03-0.03-0.04c0,0,0,0,0,0c-0.01-0.01-0.02-0.02-0.03-0.04
						c0,0,0,0,0,0c0,0-0.01-0.01-0.01-0.01c-0.01-0.01-0.02-0.02-0.02-0.03c0-0.01-0.01-0.01-0.01-0.02
						c-0.01-0.01-0.01-0.01-0.02-0.02c0,0,0-0.01-0.01-0.01c-0.01-0.01-0.01-0.01-0.02-0.02c-0.01-0.01-0.01-0.02-0.02-0.02
						c-0.01-0.01-0.01-0.01-0.02-0.02c0,0-0.01-0.01-0.01-0.01c0,0-0.01-0.01-0.01-0.01c-0.01-0.01-0.01-0.01-0.02-0.02
						c-0.01-0.01-0.01-0.01-0.02-0.02c-0.01,0-0.01-0.01-0.02-0.02c0,0,0,0-0.01-0.01c-0.01-0.01-0.01-0.01-0.02-0.01
						c-0.01-0.01-0.01-0.01-0.02-0.02c-0.01-0.01-0.01-0.01-0.02-0.02c-0.01,0-0.01-0.01-0.02-0.01c0,0,0,0,0,0
						c-0.01-0.01-0.01-0.01-0.02-0.02c0,0-0.01-0.01-0.01-0.01c-0.01-0.01-0.02-0.02-0.03-0.03c0,0-0.01,0-0.01-0.01h0
						c-0.01-0.01-0.03-0.02-0.04-0.03c0,0-0.01-0.01-0.01-0.01c-0.01-0.01-0.02-0.01-0.03-0.02c0,0,0,0,0,0c0,0-0.01-0.01-0.01-0.01
						c-0.01-0.01-0.02-0.01-0.03-0.02c-0.01,0-0.01-0.01-0.02-0.01c-0.01,0-0.01-0.01-0.02-0.01c0,0-0.01-0.01-0.01-0.01
						c-0.01,0-0.01-0.01-0.02-0.01c-0.01-0.01-0.02-0.01-0.03-0.02c0,0-0.01-0.01-0.02-0.01c0,0-0.01,0-0.01-0.01
						c-0.01,0-0.01-0.01-0.02-0.01c0,0-0.01-0.01-0.01-0.01c-0.01-0.01-0.03-0.02-0.04-0.03l0,0c0,0,0,0,0,0
						c-0.01-0.01-0.03-0.02-0.04-0.02c0,0-0.01-0.01-0.01-0.01c-0.01,0-0.01-0.01-0.02-0.01c-0.01,0-0.01-0.01-0.02-0.01l-8.66,5.04
						c0.01,0.01,0.02,0.01,0.03,0.02c0,0,0.01,0.01,0.01,0.01c0.01,0.01,0.03,0.02,0.04,0.02c0,0,0,0,0,0
						c0.01,0.01,0.03,0.02,0.04,0.03c0,0,0.01,0.01,0.01,0.01c0.01,0.01,0.02,0.01,0.03,0.02c0.01,0,0.01,0.01,0.02,0.01
						c0.01,0.01,0.02,0.01,0.03,0.02c0.01,0,0.01,0.01,0.02,0.01c0.01,0.01,0.02,0.01,0.02,0.02c0.01,0,0.01,0.01,0.02,0.01
						c0.01,0.01,0.02,0.01,0.03,0.02c0,0,0.01,0.01,0.01,0.01c0.01,0.01,0.02,0.01,0.03,0.02c0,0,0.01,0.01,0.01,0.01
						c0.01,0.01,0.03,0.02,0.04,0.03c0,0,0.01,0,0.01,0.01c0.01,0.01,0.02,0.02,0.03,0.03c0,0,0.01,0.01,0.01,0.01
						c0.01,0.01,0.02,0.01,0.02,0.02c0.01,0.01,0.01,0.01,0.02,0.02c0.01,0.01,0.02,0.01,0.02,0.02c0.01,0.01,0.01,0.01,0.02,0.02
						c0.01,0.01,0.01,0.01,0.02,0.02c0.01,0.01,0.01,0.01,0.02,0.02c0.01,0.01,0.01,0.01,0.02,0.02c0.01,0.01,0.01,0.01,0.02,0.02
						c0.01,0.01,0.01,0.01,0.02,0.02c0.01,0.01,0.01,0.01,0.02,0.02c0.01,0.01,0.01,0.01,0.02,0.02c0.01,0.01,0.01,0.01,0.02,0.02
						c0.01,0.01,0.01,0.02,0.02,0.02c0,0.01,0.01,0.01,0.01,0.02c0.01,0.01,0.02,0.02,0.02,0.03c0,0,0.01,0.01,0.01,0.01
						c0.01,0.01,0.02,0.03,0.03,0.04l0,0c0.01,0.01,0.02,0.03,0.04,0.04c0,0.01,0.01,0.01,0.01,0.02c0.01,0.01,0.02,0.02,0.02,0.03
						c0,0.01,0.01,0.01,0.01,0.02c0.01,0.01,0.01,0.02,0.02,0.03c0.01,0.01,0.02,0.02,0.02,0.03c0,0.01,0.01,0.01,0.01,0.02
						c0.01,0.01,0.02,0.02,0.03,0.04c0,0,0.01,0.01,0.01,0.01c0.02,0.02,0.03,0.04,0.05,0.07c0,0,0.01,0.01,0.01,0.01
						c0.02,0.02,0.03,0.05,0.05,0.07c0.01,0.01,0.01,0.01,0.01,0.02c0.01,0.01,0.01,0.02,0.02,0.03c0,0.01,0.01,0.02,0.01,0.02
						c0.01,0.01,0.01,0.02,0.02,0.03c0,0.01,0.01,0.02,0.01,0.02c0.01,0.01,0.01,0.02,0.02,0.03c0,0.01,0.01,0.02,0.01,0.02
						c0.01,0.01,0.01,0.02,0.02,0.03c0,0.01,0.01,0.01,0.01,0.02c0.01,0.02,0.02,0.04,0.03,0.06c0,0,0,0.01,0,0.01
						c0.01,0.02,0.02,0.05,0.04,0.07c0,0.01,0.01,0.01,0.01,0.02c0,0.01,0.01,0.02,0.01,0.03c0,0.01,0.01,0.02,0.01,0.03
						c0,0.01,0.01,0.02,0.01,0.03c0.01,0.01,0.01,0.02,0.01,0.03c0,0.01,0.01,0.01,0.01,0.02c0.01,0.01,0.01,0.02,0.02,0.03
						c0,0.01,0.01,0.01,0.01,0.02c0,0,0,0.01,0.01,0.01c0.01,0.02,0.02,0.04,0.03,0.07c0,0.01,0,0.01,0.01,0.01
						c0.01,0.02,0.02,0.05,0.03,0.07c0.01,0.01,0.01,0.02,0.01,0.04c0,0,0,0.01,0,0.01c0.01,0.02,0.01,0.03,0.02,0.05
						c0,0,0,0.01,0,0.01c0,0.01,0.01,0.02,0.01,0.04c0,0.01,0,0.01,0.01,0.02c0,0.01,0.01,0.02,0.01,0.03c0,0.01,0,0.01,0.01,0.02
						c0,0.01,0.01,0.03,0.01,0.04c0,0,0,0.01,0,0.01c0.01,0.02,0.01,0.03,0.02,0.05c0,0,0,0.01,0,0.01c0,0.01,0.01,0.03,0.01,0.04
						c0,0.01,0,0.01,0.01,0.02c0,0.01,0.01,0.02,0.01,0.03c0,0.01,0,0.01,0.01,0.02c0,0.01,0.01,0.02,0.01,0.03
						c0,0.01,0,0.01,0.01,0.02c0,0.01,0.01,0.02,0.01,0.03c0,0.01,0,0.01,0,0.02c0,0.02,0.01,0.03,0.01,0.05c0,0,0,0,0,0
						c0,0.02,0.01,0.03,0.01,0.05c0,0.01,0,0.01,0,0.02c0,0.01,0,0.02,0.01,0.03c0,0.01,0,0.01,0,0.02c0,0.01,0,0.02,0.01,0.03
						c0,0.01,0,0.01,0,0.02c0,0.01,0,0.02,0.01,0.04c0,0,0,0.01,0,0.01c0,0.02,0,0.03,0.01,0.05c0,0,0,0.01,0,0.01
						c0,0.01,0,0.03,0,0.04c0,0,0,0.01,0,0.02c0,0.01,0,0.02,0,0.03c0,0.01,0,0.01,0,0.02c0,0.01,0,0.02,0,0.04c0,0,0,0.01,0,0.01
						c0,0.02,0,0.03,0,0.05c0,0,0,0.01,0,0.01c0,0.01,0,0.02,0,0.04c0,0.01,0,0.01,0,0.02c0,0.01,0,0.02,0,0.03
						c0,0.01,0,0.01,0,0.01c0,0.02,0,0.03,0,0.05c0,0.02,0,0.03,0,0.05c0,0,0,0.01,0,0.01c0,0.01,0,0.02,0,0.04c0,0,0,0.01,0,0.02
						c0,0.01,0,0.02,0,0.03c0,0.01,0,0.01,0,0.02c0,0.01,0,0.02,0,0.03c0,0.01,0,0.01,0,0.02c0,0.01,0,0.02,0,0.03
						c0,0.01,0,0.01,0,0.02c0,0.01,0,0.02,0,0.03c0,0,0,0.01,0,0.01c0,0.01,0,0.03-0.01,0.04c0,0,0,0.01,0,0.01
						c0,0.01,0,0.02-0.01,0.03c0,0.01,0,0.01,0,0.02c0,0.01,0,0.02-0.01,0.03c0,0.01-0.01,0.03-0.01,0.04c0,0,0,0,0,0.01
						c0,0.01-0.01,0.02-0.01,0.04c0,0,0,0.01,0,0.01c0,0.01-0.01,0.02-0.01,0.03c0,0.01,0,0.01-0.01,0.02
						c0,0.01-0.01,0.02-0.01,0.03c0,0.01,0,0.01-0.01,0.02c0,0.01-0.01,0.02-0.01,0.03c0,0,0,0.01,0,0.01
						c-0.01,0.01-0.01,0.03-0.02,0.04c0,0.01-0.01,0.02-0.01,0.03c0,0,0,0,0,0.01c-0.01,0.01-0.01,0.02-0.02,0.03
						c0,0,0,0.01-0.01,0.01c0,0.01-0.01,0.01-0.01,0.02c0,0,0,0.01-0.01,0.01c0,0.01-0.01,0.01-0.01,0.02c0,0,0,0.01-0.01,0.01
						c0,0.01-0.01,0.01-0.01,0.02c0,0,0,0.01-0.01,0.01c-0.01,0.01-0.01,0.02-0.02,0.02c0,0,0,0,0,0c-0.01,0.01-0.01,0.02-0.02,0.03
						c0,0,0,0-0.01,0.01c-0.01,0.01-0.01,0.01-0.01,0.02c0,0,0,0.01-0.01,0.01c-0.01,0.01-0.01,0.01-0.02,0.02c0,0,0,0,0,0.01
						c-0.01,0.01-0.01,0.01-0.02,0.02c0,0,0,0-0.01,0.01c-0.01,0-0.01,0.01-0.02,0.02c0,0,0,0.01-0.01,0.01
						c-0.01,0-0.01,0.01-0.02,0.01c0,0,0,0-0.01,0.01c-0.01,0.01-0.02,0.01-0.02,0.02c0,0,0,0,0,0c-0.01,0.01-0.01,0.01-0.02,0.01
						c0,0-0.01,0-0.01,0.01c-0.01,0-0.01,0.01-0.02,0.01c0,0,0,0-0.01,0c-0.01,0.01-0.02,0.01-0.03,0.02l0,0l8.66-5.04
						c0.01-0.01,0.02-0.01,0.03-0.02c0,0,0,0,0.01-0.01c0.01,0,0.01-0.01,0.02-0.01c0,0,0.01,0,0.01-0.01
						c0.01,0,0.01-0.01,0.02-0.01c0,0,0,0,0,0c0.01-0.01,0.02-0.01,0.02-0.02c0,0,0,0,0.01-0.01c0.01-0.01,0.01-0.01,0.02-0.01
						c0,0,0.01,0,0.01-0.01c0.01-0.01,0.01-0.01,0.02-0.02c0,0,0,0,0.01,0c0.01-0.01,0.01-0.01,0.02-0.02c0,0,0,0,0,0
						c0.01-0.01,0.01-0.01,0.02-0.02c0,0,0-0.01,0.01-0.01c0.01-0.01,0.01-0.01,0.02-0.02c0,0,0-0.01,0.01-0.01
						c0.01-0.01,0.01-0.02,0.02-0.02c0,0,0,0,0,0c0.01-0.01,0.01-0.02,0.02-0.02c0,0,0-0.01,0.01-0.01c0-0.01,0.01-0.01,0.01-0.02
						c0,0,0-0.01,0.01-0.01c0,0,0,0,0,0c0,0,0.01-0.01,0.01-0.01c0,0,0-0.01,0.01-0.01c0-0.01,0.01-0.01,0.01-0.02
						c0,0,0-0.01,0.01-0.01c0.01-0.01,0.01-0.02,0.02-0.03c0,0,0,0,0-0.01c0-0.01,0.01-0.02,0.01-0.02c0,0,0,0,0,0
						c0.01-0.01,0.01-0.03,0.02-0.04c0,0,0-0.01,0-0.01c0-0.01,0.01-0.02,0.01-0.03c0,0,0-0.01,0-0.01c0,0,0-0.01,0-0.01
						c0-0.01,0.01-0.02,0.01-0.03c0-0.01,0-0.01,0-0.01c0-0.01,0.01-0.02,0.01-0.03c0,0,0-0.01,0-0.01c0,0,0,0,0,0
						c0-0.01,0.01-0.02,0.01-0.04c0,0,0,0,0-0.01c0-0.01,0.01-0.03,0.01-0.04v0c0-0.01,0-0.02,0.01-0.03c0,0,0-0.01,0-0.01
						c0-0.01,0-0.02,0.01-0.04c0,0,0,0,0-0.01v0c0-0.01,0-0.03,0.01-0.04c0,0,0-0.01,0-0.01c0-0.01,0-0.02,0-0.02l0,0
						c0-0.01,0-0.01,0-0.02c0-0.01,0-0.02,0-0.03c0-0.01,0-0.01,0-0.02c0-0.01,0-0.01,0-0.02c0,0,0-0.01,0-0.01
						c0-0.01,0-0.01,0-0.02c0-0.01,0-0.02,0-0.03c0-0.01,0-0.01,0-0.02c0,0,0,0,0-0.01c0-0.01,0-0.02,0-0.03c0,0,0-0.01,0-0.01
						c0-0.01,0-0.03,0-0.04v0C152.07,264.98,152.07,264.97,152.07,264.95z"/>
					<g>
						<path class="st27" d="M141.69,267.07c0.94,0.55,1.71,1.88,1.71,2.96c0,1.09-0.78,1.53-1.72,0.98l-1.05-0.61
							c-0.94-0.55-1.71-1.88-1.71-2.97c0-1.08,0.78-1.53,1.72-0.98L141.69,267.07z"/>
					</g>
				</g>
				<polygon class="st28" points="174.12,251.15 174.1,244.76 137.11,266.22 137.11,272.6 139.24,271.36 139.24,267.56 
					172.05,248.58 172.05,252.34 				"/>
			</g>
			<g>
				<polygon class="st29" points="120.79,236.72 138,246.73 174.61,225.49 157.46,215.51 				"/>
				<polygon class="st30" points="138,246.73 138,265.87 120.79,255.86 120.79,236.72 				"/>
				<polygon class="st31" points="174.61,225.49 138,246.73 138,265.87 174.61,244.63 				"/>
			</g>
			<g>
				<g>
					<path class="st18" d="M128.09,282.69c-0.01-0.01-0.03-0.02-0.04-0.03c-0.03-0.03-0.07-0.06-0.1-0.09
						c-0.01,0-0.01-0.01-0.02-0.01c-0.04-0.04-0.07-0.08-0.11-0.11c-0.01-0.01-0.02-0.02-0.03-0.03c-0.03-0.03-0.05-0.06-0.08-0.09
						c-0.01-0.01-0.02-0.03-0.03-0.04c-0.03-0.03-0.05-0.07-0.08-0.11c-0.01-0.01-0.01-0.02-0.02-0.03
						c-0.03-0.05-0.06-0.1-0.09-0.16c-0.03-0.05-0.06-0.11-0.08-0.17c0-0.01-0.01-0.02-0.01-0.03c-0.02-0.05-0.04-0.09-0.06-0.14
						c-0.01-0.01-0.01-0.03-0.02-0.04c-0.01-0.03-0.02-0.06-0.03-0.09c-0.02-0.05-0.03-0.09-0.05-0.14
						c-0.01-0.03-0.02-0.06-0.03-0.09c-0.01-0.04-0.02-0.08-0.03-0.12c-0.01-0.03-0.02-0.07-0.02-0.11
						c-0.01-0.03-0.01-0.07-0.02-0.11c-0.01-0.04-0.01-0.08-0.02-0.12c0-0.03-0.01-0.06-0.01-0.1c-0.01-0.04-0.01-0.09-0.02-0.13
						c0-0.03-0.01-0.06-0.01-0.09c0-0.05-0.01-0.11-0.01-0.16c0-0.02,0-0.04,0-0.07c0-0.08-0.01-0.16-0.01-0.24
						c0-0.08,0-0.16,0-0.24c0-0.03,0-0.05,0-0.08c0-0.06,0.01-0.11,0.01-0.17c0-0.03,0-0.06,0.01-0.09
						c0.01-0.06,0.01-0.12,0.02-0.18c0-0.02,0.01-0.05,0.01-0.07c0.01-0.08,0.02-0.17,0.03-0.25c0-0.01,0-0.02,0.01-0.03
						c0.01-0.07,0.02-0.15,0.04-0.22c0.01-0.03,0.01-0.06,0.02-0.09c0.01-0.06,0.02-0.11,0.04-0.17c0.01-0.03,0.01-0.06,0.02-0.1
						c0.01-0.05,0.03-0.11,0.04-0.16c0.01-0.03,0.02-0.06,0.03-0.1c0.02-0.06,0.03-0.12,0.05-0.18c0.01-0.03,0.02-0.05,0.02-0.08
						c0.03-0.08,0.05-0.17,0.08-0.25c0-0.01,0-0.01,0.01-0.02c0.03-0.08,0.05-0.16,0.08-0.23c0.01-0.02,0.02-0.05,0.03-0.08
						c0.02-0.06,0.04-0.12,0.07-0.18c0.01-0.03,0.02-0.06,0.03-0.08c0.02-0.06,0.05-0.12,0.08-0.18c0.01-0.02,0.02-0.04,0.03-0.07
						c0.04-0.08,0.07-0.16,0.11-0.24c0.01-0.02,0.02-0.04,0.03-0.06c0.03-0.06,0.06-0.13,0.09-0.19c0.02-0.04,0.05-0.09,0.07-0.13
						c0.02-0.04,0.04-0.08,0.07-0.13c0.06-0.11,0.12-0.23,0.19-0.34c0.02-0.04,0.04-0.08,0.07-0.11c0.03-0.05,0.06-0.09,0.08-0.14
						c0.03-0.04,0.05-0.08,0.08-0.12c0.03-0.04,0.06-0.09,0.09-0.13c0.02-0.03,0.04-0.06,0.06-0.09c0.08-0.12,0.16-0.24,0.25-0.36
						c0,0,0,0,0,0c0.06-0.08,0.12-0.16,0.18-0.24c0.05-0.06,0.1-0.12,0.15-0.18c0.01-0.01,0.02-0.02,0.03-0.04
						c0.06-0.07,0.12-0.14,0.18-0.21c0.02-0.02,0.04-0.04,0.05-0.06c0.04-0.05,0.09-0.1,0.13-0.14c0.03-0.03,0.05-0.05,0.08-0.08
						c0.04-0.04,0.08-0.08,0.11-0.12c0.03-0.03,0.06-0.06,0.08-0.08c0.04-0.04,0.07-0.07,0.11-0.11c0.03-0.03,0.06-0.06,0.09-0.08
						c0.04-0.03,0.07-0.07,0.11-0.1c0.03-0.03,0.06-0.05,0.09-0.08c0.04-0.03,0.08-0.06,0.12-0.1c0.03-0.02,0.06-0.05,0.09-0.07
						c0.04-0.03,0.08-0.06,0.12-0.1c0.03-0.02,0.06-0.04,0.08-0.06c0.05-0.03,0.09-0.07,0.14-0.1c0.02-0.02,0.05-0.03,0.07-0.05
						c0.07-0.05,0.14-0.09,0.21-0.14c0,0,0.01,0,0.01-0.01c0.07-0.04,0.14-0.09,0.21-0.13c0.06-0.04,0.13-0.07,0.19-0.11
						c0.02-0.01,0.05-0.03,0.07-0.04c0.05-0.02,0.1-0.05,0.14-0.07c0.02-0.01,0.04-0.02,0.06-0.03c0.07-0.03,0.14-0.06,0.2-0.09
						c0.07-0.03,0.13-0.05,0.2-0.07c0.02-0.01,0.04-0.01,0.06-0.02c0.05-0.01,0.09-0.03,0.13-0.04c0.03-0.01,0.05-0.01,0.08-0.02
						c0.04-0.01,0.08-0.02,0.12-0.03c0.03-0.01,0.05-0.01,0.08-0.02c0.04-0.01,0.08-0.02,0.11-0.02c0.03,0,0.06-0.01,0.09-0.01
						c0.04-0.01,0.07-0.01,0.1-0.01c0.03,0,0.06-0.01,0.1-0.01c0.03,0,0.06,0,0.09,0c0.04,0,0.08,0,0.11,0c0.05,0,0.1,0,0.15,0
						c0,0,0.01,0,0.02,0c0.05,0,0.1,0.01,0.15,0.01c0.01,0,0.03,0,0.04,0.01c0.05,0.01,0.11,0.02,0.16,0.03
						c0.01,0,0.03,0.01,0.04,0.01c0.04,0.01,0.08,0.02,0.12,0.03c0.02,0.01,0.04,0.01,0.06,0.02c0.03,0.01,0.07,0.02,0.1,0.03
						c0.04,0.01,0.08,0.03,0.12,0.05c0.02,0.01,0.04,0.01,0.06,0.02c0.06,0.03,0.11,0.05,0.16,0.09c0,0-3.25-1.9-3.25-1.9
						c-0.05-0.03-0.11-0.06-0.16-0.08c-0.02-0.01-0.04-0.02-0.06-0.02c-0.61-0.27-1.34-0.21-1.96,0c-0.63,0.21-1.23,0.56-1.75,0.97
						c-0.02,0.01-0.03,0.03-0.05,0.04c-0.03,0.02-0.06,0.05-0.09,0.07c-1.89,1.56-3.24,4.02-3.42,6.48
						c-0.06,0.84,0.03,1.81,0.5,2.54c0,0,0,0.01,0.01,0.01c0.01,0.01,0.01,0.02,0.02,0.03c0.02,0.04,0.05,0.07,0.08,0.11
						c0.01,0.01,0.02,0.03,0.03,0.04c0.02,0.03,0.05,0.06,0.08,0.09c0.01,0.01,0.02,0.02,0.03,0.03c0.04,0.04,0.07,0.08,0.11,0.11
						c0.01,0.01,0.01,0.01,0.02,0.01c0.03,0.03,0.07,0.06,0.1,0.09c0.01,0.01,0.03,0.02,0.04,0.03c0.03,0.02,0.06,0.05,0.09,0.07
						c0.01,0.01,0.03,0.02,0.04,0.03c0.04,0.03,0.09,0.06,0.13,0.08l3.25,1.9c-0.04-0.03-0.09-0.05-0.13-0.08
						c-0.01-0.01-0.03-0.02-0.04-0.03C128.15,282.74,128.12,282.71,128.09,282.69z"/>
					<g>
						<path class="st19" d="M131.46,272.45c-2.43,1.4-4.39,4.8-4.39,7.6c0.01,2.79,1.98,3.92,4.42,2.52c2.43-1.4,4.39-4.8,4.39-7.6
							C135.86,272.17,133.89,271.05,131.46,272.45z"/>
					</g>
				</g>
				<g>
					<g>
						<path class="st20" d="M131.61,274.41c-1.5,0.87-2.73,2.9-2.86,4.66c-0.01,0.11-0.01,0.21-0.01,0.32c0,1.83,1.3,2.57,2.89,1.65
							c1.59-0.92,2.88-3.15,2.87-4.98c0-0.11-0.01-0.21-0.01-0.3C134.34,274.15,133.11,273.55,131.61,274.41z"/>
					</g>
					<g>
						<path class="st21" d="M131.61,275.31c-1.09,0.63-1.98,2.11-2.08,3.39c-0.01,0.08-0.01,0.16-0.01,0.23
							c0,1.33,0.95,1.87,2.1,1.2c1.16-0.67,2.09-2.29,2.09-3.62c0-0.08,0-0.15-0.01-0.22C133.6,275.13,132.7,274.68,131.61,275.31z"
							/>
					</g>
					<path class="st22" d="M133.7,276.29c-0.09-0.97-0.72-1.43-1.55-1.21c0.65-0.02,1.11,0.44,1.18,1.26
						c0.01,0.07,0.01,0.15,0.01,0.22c0,1.33-0.93,2.95-2.09,3.62c-0.19,0.11-0.37,0.18-0.54,0.23c0.28-0.01,0.58-0.1,0.91-0.29
						c1.16-0.67,2.09-2.29,2.09-3.62C133.71,276.43,133.71,276.36,133.7,276.29z"/>
					<g>
						<path class="st23" d="M132.4,277.98c0.06-0.03,0.12-0.04,0.17-0.02c0.09,0.05,0.09,0.22,0,0.38
							c-0.05,0.08-0.11,0.14-0.17,0.18c-0.06,0.03-0.12,0.04-0.17,0.02c-0.09-0.05-0.09-0.22,0-0.38
							C132.28,278.07,132.34,278.01,132.4,277.98z"/>
						<path class="st23" d="M131.48,277.11c0.3-0.17,0.54-0.03,0.54,0.31c0,0.34-0.24,0.75-0.53,0.92c-0.3,0.17-0.54,0.03-0.54-0.31
							C130.95,277.69,131.18,277.28,131.48,277.11z"/>
						<path class="st23" d="M131.49,278.95c0.13-0.08,0.24-0.02,0.24,0.13c0,0.15-0.1,0.33-0.23,0.41
							c-0.13,0.08-0.24,0.01-0.24-0.13C131.25,279.2,131.36,279.02,131.49,278.95z"/>
						<path class="st23" d="M130.56,279.04c0.06-0.03,0.12-0.04,0.17-0.02c0.09,0.05,0.09,0.22,0,0.38
							c-0.05,0.08-0.11,0.14-0.17,0.18c-0.06,0.03-0.12,0.04-0.17,0.02c-0.09-0.05-0.09-0.22,0-0.38
							C130.44,279.14,130.5,279.07,130.56,279.04z"/>
						<path class="st23" d="M132.4,275.87c0.06-0.03,0.12-0.04,0.17-0.02c0.09,0.05,0.09,0.22,0,0.38
							c-0.05,0.08-0.11,0.14-0.17,0.18c-0.06,0.03-0.12,0.04-0.17,0.02c-0.09-0.05-0.09-0.22,0-0.38
							C132.28,275.96,132.34,275.9,132.4,275.87z"/>
						<path class="st23" d="M131.48,276.5c-0.13,0.08-0.24,0.02-0.24-0.13c0-0.15,0.1-0.33,0.23-0.41c0.13-0.08,0.24-0.01,0.24,0.13
							C131.71,276.24,131.61,276.43,131.48,276.5z"/>
						<path class="st23" d="M130.56,277.47c-0.06,0.03-0.12,0.04-0.17,0.02c-0.09-0.05-0.09-0.22,0-0.38
							c0.05-0.08,0.11-0.14,0.17-0.18c0.06-0.03,0.12-0.04,0.17-0.02c0.09,0.05,0.09,0.22,0,0.38
							C130.68,277.37,130.62,277.43,130.56,277.47z"/>
						<path class="st23" d="M132.55,277.11c0-0.15,0.1-0.33,0.24-0.41c0.13-0.08,0.24-0.01,0.24,0.13c0,0.15-0.1,0.33-0.23,0.41
							C132.65,277.32,132.55,277.26,132.55,277.11z"/>
						<path class="st23" d="M130.18,278.2c0.13-0.08,0.24-0.02,0.24,0.13c0,0.15-0.1,0.33-0.23,0.41c-0.13,0.08-0.24,0.02-0.24-0.13
							C129.95,278.46,130.05,278.28,130.18,278.2z"/>
					</g>
				</g>
			</g>
			<linearGradient id="SVGID_21_" gradientUnits="userSpaceOnUse" x1="108.2249" y1="270.7193" x2="124.2245" y2="270.7193">
				<stop  offset="0" style="stop-color:#3282ED"/>
				<stop  offset="1" style="stop-color:#60A2F0"/>
			</linearGradient>
			<polygon class="st52" points="124.22,280.06 108.25,271.03 108.22,261.37 124.2,270.41 			"/>
			<polygon class="st33" points="124.2,270.41 108.22,261.37 110.4,251.99 126.37,261.02 			"/>
			<linearGradient id="SVGID_22_" gradientUnits="userSpaceOnUse" x1="110.3965" y1="253.4156" x2="137.0765" y2="253.4156">
				<stop  offset="0" style="stop-color:#3282ED"/>
				<stop  offset="1" style="stop-color:#60A2F0"/>
			</linearGradient>
			<polygon class="st53" points="126.37,261.02 110.4,251.99 121.1,245.81 137.08,254.84 			"/>
			<linearGradient id="SVGID_23_" gradientUnits="userSpaceOnUse" x1="108.2249" y1="261.1991" x2="126.3683" y2="261.1991">
				<stop  offset="0" style="stop-color:#3282ED"/>
				<stop  offset="1" style="stop-color:#60A2F0"/>
			</linearGradient>
			<path class="st54" d="M110.4,251.99l-2.17,9.39l15.97,9.03l2.17-9.38L110.4,251.99z M123.77,269.45l-14.83-8.39l1.88-8.11
				l14.83,8.39L123.77,269.45z"/>
			<g id="XMLID_1_">
				<g id="XMLID_2_" class="st36">
					<g id="XMLID_3_">
						<polygon id="XMLID_4_" class="st37" points="111.07,264.8 111.07,271 121.38,276.95 121.38,270.75 						"/>
					</g>
				</g>
			</g>
			<g>
				<polygon class="st22" points="123.44,278.34 123.44,280.51 107.56,271.37 107.56,269.2 				"/>
				<polygon class="st20" points="123.44,278.34 123.44,280.51 124.22,280.07 124.22,277.9 				"/>
				<polygon class="st38" points="107.56,269.2 123.44,278.34 124.22,277.9 108.34,268.76 				"/>
			</g>
			<g>
				<polygon class="st39" points="124.2,275.68 121.65,274.2 121.65,275.74 124.2,277.2 				"/>
			</g>
			<g>
				<polygon class="st39" points="110.78,267.92 108.22,266.45 108.22,267.99 110.78,269.45 				"/>
			</g>
			<linearGradient id="SVGID_24_" gradientUnits="userSpaceOnUse" x1="124.1966" y1="267.4532" x2="137.1081" y2="267.4532">
				<stop  offset="0" style="stop-color:#3282ED"/>
				<stop  offset="1" style="stop-color:#60A2F0"/>
			</linearGradient>
			<path class="st55" d="M137.08,254.84l-10.71,6.18l-2.17,9.38l0.03,9.66l2.29-1.33c0.58-2.74,2.5-5.61,4.77-6.92
				c2.27-1.31,4.19-0.67,4.79,1.38l1.03-0.59v-6.38L137.08,254.84z"/>
			<g>
				<path class="st33" d="M132.83,258.08c0.11-0.06,0.2-0.01,0.21,0.12l0.02,5.59c0,0.13-0.09,0.29-0.2,0.35l-7.11,4.1
					c-0.14,0.08-0.24-0.02-0.19-0.2l1.26-6.33c0.03-0.11,0.11-0.22,0.19-0.27L132.83,258.08z"/>
			</g>
			<linearGradient id="SVGID_25_" gradientUnits="userSpaceOnUse" x1="121.1198" y1="278.8249" x2="123.0527" y2="278.8249">
				<stop  offset="0" style="stop-color:#3282ED"/>
				<stop  offset="1" style="stop-color:#60A2F0"/>
			</linearGradient>
			<polygon class="st56" points="123.05,278.88 123.05,279.88 121.12,278.77 121.12,277.77 			"/>
			<linearGradient id="SVGID_26_" gradientUnits="userSpaceOnUse" x1="107.8648" y1="271.2296" x2="109.7977" y2="271.2296">
				<stop  offset="0" style="stop-color:#3282ED"/>
				<stop  offset="1" style="stop-color:#60A2F0"/>
			</linearGradient>
			<polygon class="st57" points="109.8,271.29 109.8,272.28 107.86,271.17 107.86,270.18 			"/>
			<polygon class="st20" points="159.67,255.75 159.67,259.35 152.94,263.17 152.94,259.64 			"/>
			<polygon class="st43" points="152.94,263.17 151.67,262.47 151.67,260.37 152.94,259.64 			"/>
			<polygon class="st44" points="125.65,261.34 108.94,261.06 110.82,252.95 			"/>
		</g>
		<g>
			<linearGradient id="SVGID_27_" gradientUnits="userSpaceOnUse" x1="157.505" y1="243.6533" x2="159.3905" y2="243.6533">
				<stop  offset="0" style="stop-color:#3282ED"/>
				<stop  offset="1" style="stop-color:#60A2F0"/>
			</linearGradient>
			<polygon class="st58" points="157.51,250.46 159.39,249.37 159.39,236.85 157.51,237.93 			"/>
			<linearGradient id="SVGID_28_" gradientUnits="userSpaceOnUse" x1="161.6619" y1="240.051" x2="167.7031" y2="240.051">
				<stop  offset="0" style="stop-color:#3282ED"/>
				<stop  offset="1" style="stop-color:#60A2F0"/>
			</linearGradient>
			<polygon class="st59" points="165.82,243.54 163.55,244.85 163.55,234.45 161.66,235.53 161.66,245.94 161.66,248.06 
				163.55,246.97 163.55,246.97 167.7,244.57 167.7,242.45 167.7,232.04 165.82,233.13 			"/>
			<linearGradient id="SVGID_29_" gradientUnits="userSpaceOnUse" x1="169.9745" y1="236.4492" x2="171.8595" y2="236.4492">
				<stop  offset="0" style="stop-color:#3282ED"/>
				<stop  offset="1" style="stop-color:#60A2F0"/>
			</linearGradient>
			<polygon class="st60" points="169.97,230.73 169.97,243.25 171.86,242.17 171.86,229.64 			"/>
		</g>
	</g>
</g>
</svg>
