<svg t="1640934688968" class="icon" viewBox="0 0 1024 1024" version="1.1" xmlns="http://www.w3.org/2000/svg" p-id="8290" width="200" height="200"><path d="M997.318 432.194c0 238.656-193.539 432.167-432.194 432.167-238.707 0-432.194-193.512-432.194-432.167C132.93 193.487 326.417 0 565.124 0c238.655 0 432.194 193.487 432.194 432.194z" fill="#E9EAEB" p-id="8291"></path><path d="M782.799 351.161l112.349 506.69-55.141 0.233-100.104-220.077-123.978-114.159z" fill="#9EC7EB" p-id="8292"></path><path d="M840.007 871.313a13.204 13.204 0 0 1-12.041-7.752l-98.991-217.635-122.016-112.35a13.273 13.273 0 0 1-4.265-9.341 13.251 13.251 0 0 1 3.722-9.587l166.872-172.687c3.386-3.488 8.372-4.806 13.102-3.54a13.275 13.275 0 0 1 9.328 9.871l112.351 506.69c0.854 3.914-0.077 7.998-2.584 11.124s-6.278 4.962-10.285 4.973l-55.141 0.233-0.052 0.001zM634.866 523.292l114.005 104.986a13.037 13.037 0 0 1 3.074 4.25l96.563 212.288 30.182-0.131-103.489-466.638-140.335 145.245z" fill="#2D4978" p-id="8293"></path><path d="M41.07 550.966L22 532.595 498.276 38.669l19.072 18.372z" fill="#E9EAEB" p-id="8294"></path><path d="M710.653 285.993L203.524 175.735v55.116l220.464 99.251 114.677 123.461z" fill="#9EC7EB" p-id="8295"></path><path d="M538.665 466.793h-0.336a13.218 13.218 0 0 1-9.354-4.225L416.106 341.07l-218.009-98.152a13.233 13.233 0 0 1-7.803-12.067v-55.116c0-4.005 1.809-7.791 4.935-10.297a13.325 13.325 0 0 1 11.112-2.635l507.13 110.258a13.22 13.22 0 0 1 9.896 9.29c1.344 4.677 0 9.716-3.488 13.113L547.89 463.034a13.172 13.172 0 0 1-9.225 3.759zM216.754 222.298l212.661 95.736a12.92 12.92 0 0 1 4.263 3.062l105.452 113.54 144.676-140.942-467.052-101.537v30.141z" fill="#2D4978" p-id="8296"></path><path d="M401.973 582.735L203.524 541.78l-22.067 61.731 110.284 66.149v57.339z" fill="#FFFFFF" p-id="8297"></path><path d="M291.741 740.228A13.233 13.233 0 0 1 278.51 727v-49.845l-103.849-62.3c-5.426-3.242-7.778-9.857-5.659-15.801l22.067-61.731c2.222-6.201 8.759-9.818 15.116-8.501l198.448 40.956c4.471 0.918 8.14 4.07 9.742 8.333a13.265 13.265 0 0 1-1.886 12.661L302.257 735.036a13.282 13.282 0 0 1-10.516 5.192z m-94.186-142.479l100.981 60.568a13.188 13.188 0 0 1 6.434 11.343v18.23l73.695-96.459-166.563-34.367-14.547 40.685z" fill="#2D4978" p-id="8298"></path><path d="M487.346 661.108l41.81 198.267-61.706 22.3-66.615-109.973-57.312 0.231z" fill="#FFFFFF" p-id="8299"></path><path d="M467.45 894.906a13.24 13.24 0 0 1-11.318-6.372l-62.739-103.578-49.818 0.209c-6.46-0.156-10.724-3.568-12.558-8.942-1.861-5.361-0.052-11.303 4.418-14.768L479.259 650.63c3.618-2.791 8.45-3.501 12.662-1.938a13.23 13.23 0 0 1 8.372 9.69l41.81 198.267c1.369 6.447-2.248 12.921-8.449 15.17l-61.706 22.3a13.326 13.326 0 0 1-4.498 0.787z m-66.615-136.435a13.25 13.25 0 0 1 11.318 6.371l61.007 100.711 40.671-14.703-35.089-166.408-96.175 74.107 18.217-0.078h0.051z" fill="#2D4978" p-id="8300"></path><path d="M837.217 137.7s99.172-90.439 141.084-48.527c41.911 41.912-39.689 145.528-39.689 145.528L453.549 719.815S284.351 860.563 246.263 822.528c-33.075-33.074 119.069-207.286 119.069-207.286L837.217 137.7z" fill="#FFFFFF" p-id="8301"></path><path d="M264.919 842.281c-11.68 0-21.111-3.501-28.01-10.386-37.752-37.752 70.257-170.181 118.449-225.361L827.81 128.397c3.308-3.049 70.232-63.54 121.809-63.54 15.296 0 28.113 5.039 38.035 14.961 48.812 48.811-29.561 151.524-38.655 163.074L462.902 729.169c-14.703 12.313-137.621 113.112-197.983 113.112z m684.7-750.964c-34.367 0-86.356 40.542-103.487 56.162L374.738 624.545c-80.543 92.273-130.362 177.389-119.121 188.63 1.757 1.758 4.883 2.648 9.302 2.648 43.075 0 144.651-76.64 180.181-106.176l484.157-484.3c18.218-23.333 67.055-99.443 39.689-126.821-4.856-4.845-11.188-7.209-19.327-7.209z" fill="#2D4978" p-id="8302"></path><path d="M591.584 771.392l180.825-166.77" fill="#FFFFFF" p-id="8303"></path><path d="M591.584 784.62a13.173 13.173 0 0 1-9.716-4.261c-4.961-5.375-4.625-13.734 0.75-18.696l180.825-166.77c5.349-4.936 13.722-4.6 18.684 0.763 4.961 5.374 4.625 13.733-0.75 18.694L600.551 781.119a13.204 13.204 0 0 1-8.967 3.501z" fill="#2D4978" p-id="8304"></path><path d="M574.504 1018.535l-18.76-18.63L705.666 848.77l18.76 18.628z" fill="#E9EAEB" p-id="8305"></path></svg>