<svg t="1640933445561" class="icon" viewBox="0 0 1024 1024" version="1.1" xmlns="http://www.w3.org/2000/svg" p-id="1970" width="200" height="200"><path d="M489.45 203.56c-6.3-0.28-11.87 2.45-11.87 8.43 0 47.44 2.31 296.15-130.32 502.79-82.76 128.94-142.63 190.19-177.78 212.8-7.53 4.85-3.15 14.17 6.72 14.17h174.69c21.4 0 14.68-114.32 165.57-114.32 138 0 147.22 109.89 165.95 109.89 48.29 0 144.02-0.01 165.44-0.01 8.56 0 13.49-7.35 8.5-12.65-26.86-28.51-112.29-91.8-177.43-209.89-117.79-213.55-123.81-450.61-125.77-503.5-0.16-4.33-3-7.73-8.7-7.73h-55z" fill="#FFFFFF" p-id="1971"></path><path d="M350.88 954.2H176.19c-11 0-20.7-5.65-24.11-14.05-3.36-8.21-0.09-17 8.31-22.4 20.35-13.09 77.99-59.64 173.74-208.84 83.05-129.38 128.7-305 128.57-494.51V212c0-5.89 2.66-11.24 7.5-15.07 5.03-3.99 11.95-6.08 19.58-5.79h54.68c13.23 0 23.14 8.32 23.57 19.78l0.13 3.83c8.59 238.34 72.32 400.65 124.28 494.85 50.81 92.13 113.96 150.03 151.68 184.62 10.1 9.26 18.08 16.58 23.92 22.78 5.71 6.05 6.79 14.11 2.79 21-4.21 7.26-13.02 11.77-22.99 11.77l-165.44 0.01c-14.61 0-20.77-11.27-29.29-26.87-16.98-31.05-45.38-83.02-136.66-83.02-99.21 0-122.58 53.32-136.53 85.17-6.87 15.63-12.78 29.14-29.04 29.14z m-160.81-24.87H345.9c1.76-3.05 4.1-8.36 6.05-12.83 14.45-32.94 44.49-101.49 164.5-101.49 110.42 0 146.43 65.9 163.74 97.56 2.35 4.31 5.15 9.43 7.15 12.33l149.8-0.01c-4.23-4.04-9.27-8.66-15.03-13.94-38.88-35.66-103.96-95.34-156.71-190.97-53.08-96.22-118.18-261.74-126.98-503.99h-45.96c-0.12 192.94-47 372.1-132.1 504.67-83.23 129.71-139.42 185.2-170.29 208.67z m354.39-713.34h0.15-0.15z" fill="#2D2A25" p-id="1972"></path><path d="M413.29 583.88s-40.83 104.57-76.18 144.48h349.04c-40.11-71.54-65.94-144.49-65.94-144.49l-206.92 0.01z" fill="#E782A8" p-id="1973"></path><path d="M686.15 740.8H337.11c-5.62 0-10.76-2.65-13.28-6.83-2.53-4.19-2.02-9.21 1.32-12.99 33.53-37.86 73.6-139.92 73.99-140.95 2.01-5.12 7.72-8.58 14.16-8.58h206.92c6.6 0 12.4 3.62 14.27 8.9 0.26 0.72 26 72.94 65.13 142.75 2.17 3.85 1.82 8.35-0.92 11.94s-7.46 5.76-12.55 5.76z m-322.08-24.86h298.97c-26.96-51.01-46.39-100.06-53.79-119.63H424.01c-8.98 22.01-33.99 80.78-59.94 119.63z" fill="#2D2A26" p-id="1974"></path><path d="M319.14 728.37h382.88" fill="#E782A8" p-id="1975"></path><path d="M702.02 740.8H319.13c-8.23 0-14.88-5.57-14.88-12.43s6.66-12.43 14.88-12.43h382.89c8.23 0 14.88 5.57 14.88 12.43s-6.65 12.43-14.88 12.43z" fill="#2D2A26" p-id="1976"></path><path d="M543.4 203.56h-56.19c-5.96 0-10.83-3.87-10.83-8.6v-30.99s0.48-4.68 1.52-6.9c3.89-8.28 15.47-28.02 37.4-28.02 20.3 0 31.73 16.9 36.4 25.99 1.72 3.34 2.52 6.91 2.52 10.51v29.41c0.01 4.73-4.87 8.6-10.82 8.6z" fill="#E782A8" p-id="1977"></path><path d="M543.39 215.99H487.2c-14.17 0-25.71-9.43-25.71-21.03v-30.99c0.25-3.02 0.9-7.95 2.57-11.47 10.73-22.79 29.4-35.88 51.23-35.88 20.86 0 39.11 12.21 50.08 33.5a33.524 33.524 0 0 1 3.72 15.44v29.4c0.02 11.6-11.52 21.03-25.7 21.03z m-52.13-24.86h48.08v-25.57c0-2.04-0.44-3.93-1.31-5.61-2.85-5.54-10.8-18.46-22.73-18.46-13.05 0-21.32 15.41-23.55 20.13-0.38 1.15-0.55 3.41-0.55 3.41l0.06 26.1z" fill="#2D2A26" p-id="1978"></path><path d="M515.3 82.24v39.14" fill="#E782A8" p-id="1979"></path><path d="M515.3 133.81c-8.23 0-14.88-5.57-14.88-12.43V82.23c0-6.87 6.66-12.43 14.88-12.43 8.23 0 14.88 5.57 14.88 12.43v39.14c0 6.87-6.65 12.44-14.88 12.44z" fill="#2D2A26" p-id="1980"></path><path d="M472.45 365.85l88 55.74" fill="#FFFFFF" p-id="1981"></path><path d="M560.44 434.03c-3.12 0-6.29-0.83-8.98-2.53l-88-55.75c-6.54-4.15-7.83-11.95-2.86-17.42 4.94-5.46 14.29-6.55 20.86-2.39l88 55.75c6.54 4.15 7.83 11.95 2.86 17.42-2.92 3.22-7.37 4.92-11.88 4.92z" fill="#2D2A25" p-id="1982"></path><path d="M560.45 318.65l-88 55.74" fill="#FFFFFF" p-id="1983"></path><path d="M472.47 386.83c-4.51 0-8.94-1.69-11.87-4.92-4.97-5.48-3.68-13.27 2.86-17.42l88-55.75c6.55-4.15 15.87-3.07 20.86 2.39 4.97 5.48 3.68 13.27-2.86 17.42l-88 55.75c-2.7 1.7-5.87 2.53-8.99 2.53z" fill="#2D2A25" p-id="1984"></path><path d="M560.45 430.37l-116.37 73.72" fill="#FFFFFF" p-id="1985"></path><path d="M444.1 516.52c-4.51 0-8.95-1.69-11.87-4.92-4.97-5.47-3.68-13.26 2.86-17.41l116.37-73.71c6.55-4.16 15.9-3.07 20.86 2.4 4.97 5.47 3.68 13.26-2.86 17.41L453.09 514c-2.7 1.69-5.87 2.52-8.99 2.52z" fill="#2D2A25" p-id="1986"></path></svg>