<svg t="1640934625529" class="icon" viewBox="0 0 1024 1024" version="1.1" xmlns="http://www.w3.org/2000/svg" p-id="7570" width="200" height="200"><path d="M297.7 696.2H88.4c-6.8 0-12.3 5.5-12.3 12.3v209.3c0 6.8 5.5 12.3 12.3 12.3h209.3c6.8 0 12.3-5.5 12.3-12.3V708.5c0-6.8-5.5-12.3-12.3-12.3z m-12.3 209.3H100.7V720.8h184.7v184.7zM141.6 666.3h110.8c11.9 0 21.5-9.6 21.5-21.5V533.9c0-11.9-9.6-21.5-21.5-21.5H141.6c-11.9 0-21.5 9.6-21.5 21.5v110.8c0 11.9 9.6 21.6 21.5 21.6z m21.5-110.8h67.7v67.7h-67.7v-67.7zM648.5 425.3H540c0.5-1.5 0.8-3 0.8-4.6V293h88.4c5.8 0 10.6-5.5 10.6-12.3 0-6.8-4.7-12.3-10.6-12.3h-88.4V250h88.4c5.8 0 10.6-5.5 10.6-12.3 0-6.8-4.7-12.3-10.6-12.3h-88.4v-49.2h105.1c6.8 0 12.3-5.5 12.3-12.3 0-6.8-5.5-12.3-12.3-12.3H540.8V113c0-8.5-6.9-15.4-15.4-15.4S510 104.5 510 113v38.5h-98c-6.8 0-12.3 5.5-12.3 12.3 0 6.8 5.5 12.3 12.3 12.3h98v49.2h-81.3c-5.8 0-10.6 5.5-10.6 12.3 0 6.8 4.7 12.3 10.6 12.3H510v18.5h-81.3c-5.8 0-10.6 5.5-10.6 12.3 0 6.8 4.7 12.3 10.6 12.3H510v127.7c0 1.6 0.3 3.1 0.8 4.6H402.3c-6.8 0-12.3 5.5-12.3 12.3v480.2c0 6.8 5.5 12.3 12.3 12.3h246.2c6.8 0 12.3-5.5 12.3-12.3V437.6c0-6.8-5.5-12.3-12.3-12.3z m-12.3 480.2H414.6V450h221.6v455.5z" fill="" p-id="7571"></path><path d="M542.6 792.5c10.2 0 18.5-8.3 18.5-18.5V515.5c0-10.2-8.3-18.5-18.5-18.5s-18.5 8.3-18.5 18.5V774c0 10.2 8.3 18.5 18.5 18.5z" fill="" p-id="7572"></path><path d="M542.6 837.8m-24.6 0a24.6 24.6 0 1 0 49.2 0 24.6 24.6 0 1 0-49.2 0Z" fill="" p-id="7573"></path><path d="M933.5 578.1H761.1c-8.5 0-15.4 6.9-15.4 15.4v320.1c0 8.5 6.9 15.4 15.4 15.4h172.4c8.5 0 15.4-6.9 15.4-15.4V593.5c0-8.5-6.9-15.4-15.4-15.4z m-15.4 320.1H776.5V608.9h141.6v289.3zM789.2 532.3c0 5.5 5.4 10 12 10h95.7c6.6 0 12-4.5 12-10V367.7c0-5.5-5.4-10-12-10h-64c-6.6 0-12 4.5-12 10 0 0.6 0.1 1.1 0.2 1.7l-33.6 45c-3 4-2.2 9.1 1.6 12.3v105.6z m53.9-154.6H885v144.5h-71.8V419.8c0-0.6-0.1-1.1-0.2-1.7l30.1-40.4z" fill="" p-id="7574"></path></svg>