<svg t="1640934560172" class="icon" viewBox="0 0 1024 1024" version="1.1" xmlns="http://www.w3.org/2000/svg" p-id="5579" width="200" height="200"><path d="M496.384 95.616C369.568 98.432 248 128 160 176v409.6c0 195.2 140.8 252.8 352 345.6 211.2-92.8 352-150.4 352-345.6V176c-108.8-59.2-240.832-83.2-367.616-80.384z m176.256 80.448c54.592-1.28 108.16 1.504 159.36 6.304v400c0 163.2-99.2 214.432-320 310.432-220.8-96-320-147.2-320-310.4V352c144-132 316.8-172.16 480.64-175.936z m-155.2 176.96c-32.544-0.192-63.456 10.56-79.04 21.344V768h60.8v-128c44.8 12.8 131.2-3.2 131.2-144 0-112-58.752-142.72-112.96-143.008z m203.872 1.024c-40.64 3.2-78.112 29.952-78.112 77.952 0 89.6 96 80 96 131.2 3.2 44.8-54.4 41.6-92.8 9.6v54.4c67.2 41.6 150.4 16 153.6-60.8 3.2-96-99.2-86.4-99.2-137.6 0-35.2 57.6-38.4 89.6-3.2v-51.2c-19.2-15.616-44.704-22.24-69.088-20.352zM224 358.4v188.8c0 140.8 150.4 96.032 182.4 73.632v-262.4h-60.8v227.2c-9.6 6.4-60.8 22.4-60.8-35.2v-192H224z m289.76 43.584c22.048-1.952 52.608 10.048 52.608 94.048 3.2 128-63.968 96-70.368 96v-185.6a63.68 63.68 0 0 1 17.76-4.48z" p-id="5580"></path></svg>