<svg t="1640934652954" class="icon" viewBox="0 0 1024 1024" version="1.1" xmlns="http://www.w3.org/2000/svg" p-id="7981" width="200" height="200"><path d="M842.518 548.548c0 204.648-165.925 370.528-370.528 370.528-204.648 0-370.528-165.88-370.528-370.528 0-204.604 165.88-370.506 370.528-370.506 204.603 0 370.528 165.902 370.528 370.506z" fill="#E9EAEB" p-id="7982"></path><path d="M534.062 181.83H385.903l-2.525-7.897c-3.124-9.847-7.887-16.327-14.111-19.262-9.216-4.353-19.849-0.188-19.938-0.144l-12.694 5.095-2.747-13.38c-0.333-1.484-8.839-38.446-58.572-38.446-50.464 0-64.62 64.376-64.753 65.03l-1.905 9.005H59.592v-22.685h131.101c9.038-29.74 35.001-74.035 84.624-74.035 45.612 0 68.452 25.486 77.158 45.38 7.089-0.975 16.57-0.897 26.14 3.511 10.213 4.708 18.055 13.147 23.394 25.144h132.053v22.684zM908.4 255.865h-57.442l-2.504-7.909c-3.123-9.847-7.864-16.327-14.089-19.261-9.238-4.354-19.805-0.2-19.915-0.155l-12.672 5.084-2.77-13.358c-0.332-1.485-8.883-38.436-58.616-38.436-50.464 0-64.619 64.376-64.753 65.029l-1.904 9.005H524.668V233.18H655.77c9.038-29.74 35.001-74.035 84.623-74.035 45.612 0 68.476 25.476 77.203 45.369 7.155-0.986 16.593-0.875 26.141 3.522 10.212 4.707 18.032 13.147 23.349 25.143H908.4v22.686z" fill="#B6B9BE" p-id="7983"></path><path d="M162.913 264.992v161.627" fill="#9EC7EB" p-id="7984"></path><path d="M162.913 437.961a11.335 11.335 0 0 1-11.342-11.342V264.992a11.336 11.336 0 0 1 11.342-11.342 11.336 11.336 0 0 1 11.342 11.342v161.627a11.336 11.336 0 0 1-11.342 11.342z" fill="#2D4978" p-id="7985"></path><path d="M222.46 345.805v92.156" fill="#9EC7EB" p-id="7986"></path><path d="M222.46 449.304a11.335 11.335 0 0 1-11.342-11.342v-92.156a11.335 11.335 0 0 1 11.342-11.342 11.336 11.336 0 0 1 11.342 11.342v92.156a11.336 11.336 0 0 1-11.342 11.342z" fill="#2D4978" p-id="7987"></path><path d="M355.731 412.441H120.379v34.027H89.188v56.711h36.862v110.588h229.681z" fill="#9EC7EB" p-id="7988"></path><path d="M355.731 625.109H126.05a11.336 11.336 0 0 1-11.342-11.343v-99.245h-25.52a11.335 11.335 0 0 1-11.342-11.342v-56.711c0-6.27 5.073-11.342 11.342-11.342h19.849v-22.685a11.336 11.336 0 0 1 11.342-11.342h235.352c6.27 0 11.343 5.073 11.343 11.342v201.326c0 6.269-5.074 11.342-11.343 11.342z m-218.338-22.685h206.996v-178.64H131.722v22.684c0 6.27-5.073 11.342-11.342 11.342h-19.85v34.027h25.52c6.27 0 11.343 5.073 11.343 11.342v99.245z" fill="#2D4978" p-id="7989"></path><path d="M355.731 345.805h187.148v114.84H355.731z" fill="#FFFFFF" p-id="7990"></path><path d="M542.879 471.988H355.731a11.336 11.336 0 0 1-11.342-11.342v-114.84a11.336 11.336 0 0 1 11.342-11.342h187.148a11.336 11.336 0 0 1 11.342 11.342v114.84a11.336 11.336 0 0 1-11.342 11.342z m-175.805-22.684h164.462v-92.156H367.074v92.156z" fill="#2D4978" p-id="7991"></path><path d="M542.879 345.805h187.146v114.84H542.879z" fill="#FFFFFF" p-id="7992"></path><path d="M730.025 471.988H542.879a11.336 11.336 0 0 1-11.343-11.342v-114.84a11.336 11.336 0 0 1 11.343-11.342h187.146c6.27 0 11.342 5.073 11.342 11.342v114.84a11.335 11.335 0 0 1-11.342 11.342z m-175.804-22.684h164.463v-92.156H554.221v92.156z" fill="#2D4978" p-id="7993"></path><path d="M274.474 469.152h197.515v136.816H274.474z" fill="#FFFFFF" p-id="7994"></path><path d="M471.989 617.311H274.474a11.336 11.336 0 0 1-11.342-11.342V469.152a11.336 11.336 0 0 1 11.342-11.342h197.515a11.336 11.336 0 0 1 11.342 11.342v136.816c0 6.269-5.073 11.343-11.342 11.343z m-186.173-22.685h174.83V480.495h-174.83v114.131z" fill="#2D4978" p-id="7995"></path><path d="M471.989 469.152h197.56v136.816h-197.56z" fill="#FFFFFF" p-id="7996"></path><path d="M669.549 617.311h-197.56a11.336 11.336 0 0 1-11.343-11.342V469.152a11.336 11.336 0 0 1 11.343-11.342h197.56c6.27 0 11.342 5.073 11.342 11.342v136.816c0 6.269-5.073 11.343-11.342 11.343z m-186.218-22.685h174.875V480.495H483.331v114.131z" fill="#2D4978" p-id="7997"></path><path d="M669.549 469.152h197.559v136.816H669.549z" fill="#FFFFFF" p-id="7998"></path><path d="M867.107 617.311H669.549a11.335 11.335 0 0 1-11.343-11.342V469.152a11.335 11.335 0 0 1 11.343-11.342h197.559c6.27 0 11.343 5.073 11.343 11.342v136.816c-0.001 6.269-5.074 11.343-11.344 11.343z m-186.216-22.685h174.875V480.495H680.891v114.131z" fill="#2D4978" p-id="7999"></path><path d="M79.751 806.584V596.753h428.171l99.244-48.205h337.433s0 172.971-147.449 258.036" fill="#9EC7EB" p-id="8000"></path><path d="M797.149 817.926c-3.922 0-7.732-2.037-9.814-5.67-3.146-5.427-1.285-12.362 4.143-15.495 118.473-68.353 137.968-197.903 141.158-236.87H609.78l-96.897 47.063a11.374 11.374 0 0 1-4.961 1.143H91.093v198.488c0 6.269-5.073 11.342-11.342 11.342s-11.342-5.073-11.342-11.342V596.753c0-6.27 5.073-11.343 11.342-11.343h425.557l96.896-47.064a11.404 11.404 0 0 1 4.963-1.14H944.6a11.336 11.336 0 0 1 11.342 11.342c0 7.333-1.75 180.524-153.12 267.862a11.384 11.384 0 0 1-5.673 1.516z" fill="#2D4978" p-id="8001"></path><path d="M175.23 460.646h22.684v22.685H175.23zM605.526 602.424h41.116v22.686h-41.116zM121.044 821.67c-23.349 0-44.239-16.924-64.42-33.285-16.416-13.301-33.384-27.058-47.274-27.058v-22.686c21.932 0 42.068 16.327 61.563 32.121 17.124 13.88 34.802 28.224 50.132 28.224 13.934 0 30.926-13.79 47.363-27.115 20.159-16.35 40.982-33.239 64.265-33.239 22.042 0 42.246 16.381 61.784 32.221 17.058 13.822 34.692 28.112 49.888 28.112 14.067 0 31.147-13.824 47.651-27.205 20.115-16.294 40.917-33.141 64.111-33.141 22.13 0 42.4 16.415 62.005 32.289 17.014 13.788 34.625 28.045 49.733 28.045 14.133 0 31.235-13.856 47.783-27.247 20.07-16.271 40.85-33.099 63.978-33.099 22.197 0 42.489 16.438 62.117 32.332 16.99 13.781 34.559 28.014 49.622 28.014 14.222 0 31.368-13.891 47.938-27.315 20.07-16.249 40.806-33.04 63.89-33.04 22.264 0 42.6 16.459 62.271 32.388 16.992 13.745 34.536 27.956 49.557 27.956v22.685c-23.039 0-43.774-16.78-63.822-33.019-16.615-13.437-33.784-27.326-48.005-27.326-15.042 0-32.61 14.223-49.601 27.991-19.649 15.905-39.986 32.366-62.228 32.366-23.083 0-43.841-16.815-63.911-33.064-16.548-13.413-33.672-27.281-47.828-27.281-15.108 0-32.698 14.256-49.71 28.035-19.606 15.884-39.875 32.311-62.051 32.311-23.149 0-43.93-16.827-64.021-33.108-16.526-13.381-33.606-27.226-47.717-27.226-15.175 0-32.787 14.276-49.844 28.089-19.561 15.862-39.809 32.255-61.917 32.255h-0.021c-23.216 0-44.018-16.868-64.133-33.174-16.482-13.359-33.517-27.16-47.518-27.16-15.241 0-32.896 14.322-49.977 28.169-19.496 15.814-39.655 32.175-61.653 32.185zM121.044 908.62c-23.349 0-44.239-16.924-64.42-33.285-16.416-13.302-33.384-27.059-47.274-27.059V825.59c21.932 0 42.068 16.328 61.563 32.122 17.124 13.88 34.802 28.224 50.132 28.224 13.934 0 30.926-13.791 47.363-27.116 20.159-16.349 40.982-33.239 64.265-33.239 22.042 0 42.246 16.381 61.784 32.221 17.058 13.823 34.692 28.113 49.888 28.113 14.067 0 31.147-13.825 47.651-27.206 20.115-16.293 40.917-33.14 64.111-33.14 22.13 0 42.4 16.415 62.005 32.288 17.014 13.789 34.625 28.045 49.733 28.045 14.133 0 31.235-13.856 47.783-27.247 20.07-16.271 40.85-33.098 63.978-33.098 22.197 0 42.489 16.438 62.117 32.332 16.99 13.78 34.559 28.013 49.622 28.013 14.222 0 31.368-13.89 47.938-27.314 20.07-16.25 40.806-33.04 63.89-33.04 22.264 0 42.6 16.458 62.271 32.388 16.992 13.745 34.536 27.955 49.557 27.955v22.686c-23.039 0-43.774-16.781-63.822-33.019-16.615-13.437-33.784-27.327-48.005-27.327-15.042 0-32.61 14.223-49.601 27.992-19.649 15.905-39.986 32.365-62.228 32.365-23.083 0-43.841-16.814-63.911-33.064-16.548-13.412-33.672-27.28-47.828-27.28-15.108 0-32.698 14.256-49.71 28.035-19.606 15.883-39.875 32.31-62.051 32.31-23.149 0-43.93-16.826-64.021-33.107-16.526-13.381-33.606-27.226-47.717-27.226-15.175 0-32.787 14.276-49.844 28.089-19.561 15.861-39.809 32.254-61.917 32.254h-0.021c-23.216 0-44.018-16.868-64.133-33.173-16.482-13.359-33.517-27.16-47.518-27.16-15.241 0-32.896 14.322-49.977 28.168-19.496 15.815-39.655 32.176-61.653 32.186z" fill="#2D4978" p-id="8002"></path></svg>