<svg t="1640933538790" class="icon" viewBox="0 0 1024 1024" version="1.1" xmlns="http://www.w3.org/2000/svg" p-id="1251" width="200" height="200"><path d="M920 350.72v26.75c0 32.29-17.96 52.69-44.68 62.68-2.2 0.83-4.48 1.58-6.8 2.27-0.07 0.02-0.14 0.04-0.22 0.06-9.12 2.79-15.74 11.08-15.74 20.89v38.99c-4.43-0.79-8.94-1.19-13.49-1.19h-17.98c-4.55 0-9.07 0.4-13.49 1.19v-38.99c0-9.81-6.62-18.1-15.74-20.89-0.08-0.02-0.15-0.04-0.22-0.06-2.12-0.63-4.21-1.31-6.24-2.05-27.03-9.92-45.24-30.38-45.24-62.9v-26.74c0.26-48.14 40.42-87.09 89.92-87.09s89.66 38.95 89.92 87.08zM535 164.01c-23.44-9.87-51.06-17.67-82.08-23.2C420.09 134.96 385.13 132 349 132s-71.09 2.96-103.92 8.81c-31.02 5.53-58.64 13.33-82.08 23.2-40.54 17.07-59 36.84-59 47.99 0 8.96 11.91 23.48 37.62 37.69 1.39 0.77 2.82 1.54 4.29 2.31 5.19 2.7 10.88 5.38 17.09 7.99 10.51 4.42 21.85 8.43 33.98 12.01 14.91 4.4 30.99 8.14 48.1 11.19C277.91 289.04 312.87 292 349 292s71.09-2.96 103.92-8.81c17.11-3.05 33.19-6.79 48.1-11.19 12.13-3.58 23.47-7.59 33.98-12.01 6.21-2.61 11.9-5.29 17.09-7.99 1.47-0.77 2.9-1.54 4.29-2.31C582.09 235.48 594 220.96 594 212c0-11.15-18.46-30.92-59-47.99z m21.38 130.3C504.42 317.51 430.73 332 349 332s-155.42-14.49-207.38-37.69c-14.28-6.37-26.91-13.4-37.62-20.97V332c0 11.15 18.46 30.92 59 47.99 23.44 9.87 51.06 17.67 82.08 23.2C277.91 409.04 312.87 412 349 412s71.09-2.96 103.92-8.81c31.02-5.53 58.64-13.33 82.08-23.2 40.54-17.07 59-36.84 59-47.99v-58.66c-10.71 7.57-23.34 14.6-37.62 20.97zM349 552.5c-15.31 0-30.35-0.51-45-1.49v239.95c14.76 1.03 29.79 1.54 45 1.54 37.3 0 73.45-3.07 107.43-9.13 32.48-5.78 61.52-14.01 86.33-24.45 21.35-8.99 38.95-19.51 51.24-30.59V493.84c-49.71 35.13-140.83 58.66-245 58.66z m-55.04-22.31c3.33 0.29 6.68 0.54 10.04 0.77 14.76 1.03 29.79 1.54 45 1.54 37.3 0 73.45-3.07 107.43-9.13 32.48-5.78 61.52-14.01 86.33-24.45 21.35-8.99 38.95-19.51 51.24-30.59v-74.99C544.29 428.47 453.17 452 349 452s-195.29-23.53-245-58.66V812c0 11.15 18.46 30.92 59 47.99 23.44 9.87 51.06 17.67 82.08 23.2C277.91 889.04 312.87 892 349 892s71.09-2.96 103.92-8.81c31.02-5.53 58.64-13.33 82.08-23.2 40.54-17.07 59-36.84 59-47.99v-58.16c-21.9 15.48-51.85 28.71-87.41 38.66-45.13 12.64-99.32 20-157.59 20-22.36 0-44.12-1.08-65-3.14v-280.1c3.3 0.34 6.62 0.65 9.96 0.93z" fill="#FFFFFF" p-id="1252"></path><path d="M875.04 576.18v197.43c0 2.79-0.35 5.51-0.99 8.11-3.79 15.38-18.06 26.91-34.98 26.91h-17.98c-16.92 0-31.19-11.53-34.98-26.91-0.31-1.24-0.54-2.51-0.71-3.81a33.88 33.88 0 0 1-0.28-4.3V576.18c0-1.46 0.1-2.89 0.28-4.3 0.46-3.62 1.49-7.06 3.01-10.26 1.15-2.44 2.58-4.73 4.26-6.83 3.87-4.85 9.01-8.7 14.93-11.05a36.39 36.39 0 0 1 13.49-2.58h17.98c4.77 0 9.32 0.92 13.49 2.58 8.48 3.37 15.38 9.81 19.2 17.88 2.11 4.44 3.28 9.37 3.28 14.56z" fill="#FAADB7" p-id="1253"></path><path d="M349 552.5c-15.31 0-30.35-0.51-45-1.49v239.95c14.76 1.03 29.79 1.54 45 1.54 37.3 0 73.45-3.07 107.43-9.13 32.48-5.78 61.52-14.01 86.33-24.45 21.35-8.99 38.95-19.51 51.24-30.59V493.84c-49.71 35.13-140.83 58.66-245 58.66z" fill="#A3D6FF" p-id="1254"></path><path d="M349 92C191.6 92 64 145.73 64 212v600c0 66.27 127.6 120 285 120s285-53.73 285-120V212c0-66.27-127.6-120-285-120z m245 636.33c-12.29 11.08-29.89 21.6-51.24 30.59-24.81 10.44-53.85 18.67-86.33 24.45-33.98 6.06-70.13 9.13-107.43 9.13-15.21 0-30.24-0.51-45-1.54V551.01c14.65 0.98 29.69 1.49 45 1.49 104.17 0 195.29-23.53 245-58.66v234.49z m0-260c-12.29 11.08-29.89 21.6-51.24 30.59-24.81 10.44-53.85 18.67-86.33 24.45-33.98 6.06-70.13 9.13-107.43 9.13-15.21 0-30.24-0.51-45-1.54-3.36-0.23-6.71-0.48-10.04-0.77-3.34-0.28-6.66-0.59-9.96-0.93v280.1c20.88 2.06 42.64 3.14 65 3.14 58.27 0 112.46-7.36 157.59-20 35.56-9.95 65.51-23.18 87.41-38.66V812c0 11.15-18.46 30.92-59 47.99-23.44 9.87-51.06 17.67-82.08 23.2C420.09 889.04 385.13 892 349 892s-71.09-2.96-103.92-8.81c-31.02-5.53-58.64-13.33-82.08-23.2-40.54-17.07-59-36.84-59-47.99V393.34C153.71 428.47 244.83 452 349 452s195.29-23.53 245-58.66v74.99zM594 332c0 11.15-18.46 30.92-59 47.99-23.44 9.87-51.06 17.67-82.08 23.2C420.09 409.04 385.13 412 349 412s-71.09-2.96-103.92-8.81c-31.02-5.53-58.64-13.33-82.08-23.2-40.54-17.07-59-36.84-59-47.99v-58.66c10.71 7.57 23.34 14.6 37.62 20.97C193.58 317.51 267.27 332 349 332s155.42-14.49 207.38-37.69c14.28-6.37 26.91-13.4 37.62-20.97V332z m-37.62-82.31c-1.39 0.77-2.82 1.54-4.29 2.31-5.19 2.7-10.88 5.38-17.09 7.99-10.51 4.42-21.85 8.43-33.98 12.01-14.91 4.4-30.99 8.14-48.1 11.19C420.09 289.04 385.13 292 349 292s-71.09-2.96-103.92-8.81c-17.11-3.05-33.19-6.79-48.1-11.19-12.13-3.58-23.47-7.59-33.98-12.01-6.21-2.61-11.9-5.29-17.09-7.99-1.47-0.77-2.9-1.54-4.29-2.31C115.91 235.48 104 220.96 104 212c0-11.15 18.46-30.92 59-47.99 23.44-9.87 51.06-17.67 82.08-23.2C277.91 134.96 312.87 132 349 132s71.09 2.96 103.92 8.81c31.02 5.53 58.64 13.33 82.08 23.2 40.54 17.07 59 36.84 59 47.99 0 8.96-11.91 23.48-37.62 37.69z m364.96 10.71c-24.47-23.7-56.88-36.76-91.26-36.76s-66.79 13.06-91.26 36.76c-24.75 23.98-38.48 55.98-38.66 90.11v26.96c0 24.22 7.14 46.4 20.65 64.15 11.59 15.23 27.32 26.9 46.79 34.75v46.59c-11.86 11.63-19.73 26.98-21.88 43.86-0.4 3.15-0.6 6.29-0.6 9.36v197.43c0 3.06 0.2 6.21 0.6 9.36 0.36 2.79 0.88 5.59 1.55 8.31 3.98 16.19 13.5 30.82 26.8 41.2 13.35 10.41 30.04 16.15 47.02 16.15h17.98c16.98 0 33.67-5.74 47.02-16.15 13.3-10.38 22.82-25.01 26.8-41.2 1.43-5.8 2.15-11.74 2.15-17.67V576.18c0-15.39-4.72-30.19-13.64-42.83-2.64-3.74-5.6-7.21-8.84-10.39v-46.6c19.64-7.92 35.46-19.72 47.06-35.11 13.33-17.68 20.38-39.73 20.38-63.78V350.5c-0.19-34.12-13.92-66.12-38.66-90.1z m-46.3 513.21c0 2.79-0.35 5.51-0.99 8.11-3.79 15.38-18.06 26.91-34.98 26.91h-17.98c-16.92 0-31.19-11.53-34.98-26.91-0.31-1.24-0.54-2.51-0.71-3.81a33.88 33.88 0 0 1-0.28-4.3V576.18c0-1.46 0.1-2.89 0.28-4.3 0.46-3.62 1.49-7.06 3.01-10.26 1.15-2.44 2.58-4.73 4.26-6.83 3.87-4.85 9.01-8.7 14.93-11.05a36.39 36.39 0 0 1 13.49-2.58h17.98c4.77 0 9.32 0.92 13.49 2.58 8.48 3.37 15.38 9.81 19.2 17.88 2.11 4.44 3.28 9.37 3.28 14.56v197.43zM920 377.47c0 32.29-17.96 52.69-44.68 62.68-2.2 0.83-4.48 1.58-6.8 2.27-0.07 0.02-0.14 0.04-0.22 0.06-9.12 2.79-15.74 11.08-15.74 20.89v38.99c-4.43-0.79-8.94-1.19-13.49-1.19h-17.98c-4.55 0-9.07 0.4-13.49 1.19v-38.99c0-9.81-6.62-18.1-15.74-20.89-0.08-0.02-0.15-0.04-0.22-0.06-2.12-0.63-4.21-1.31-6.24-2.05-27.03-9.92-45.24-30.38-45.24-62.9v-26.74c0.26-48.14 40.42-87.09 89.92-87.09s89.66 38.95 89.92 87.08v26.75z" fill="#BD7800" p-id="1255"></path></svg>