<svg t="1638600078409" class="icon" viewBox="0 0 1024 1024" version="1.1" xmlns="http://www.w3.org/2000/svg" p-id="10737" width="200" height="200"><path d="M396.4 334c45.9 0 86.7 21.084 115.6 56.222C540.9 355.082 581.7 334 627.6 334c86.7 0 156.4 77.306 156.4 173.938 0 26.354-3.4 50.95-11.9 73.792 0 0-6.8 21.082-11.9 33.38C693.9 764.452 512 838 512 838s-181.9-73.548-248.2-224.646c0 0-8.5-19.326-11.9-33.38-6.8-22.84-11.9-47.44-11.9-73.794 0-94.874 69.7-172.18 156.4-172.18z" fill="#FAEDFF" p-id="10738"></path><path d="M844.686 779.766l32.984 10.088c-17.846 58.35-61.434 107.814-121.786 143.776-53.146 31.668-116.57 50.85-173.782 53.41l-1.972 0.08-1.314-34.466c51.918-1.98 110.58-19.556 159.412-48.654 52.958-31.556 90.59-73.98 105.998-122.754l0.46-1.48z" fill="#5F91FB" p-id="10739"></path><path d="M512.898 939.914m20.696 0l34.492 0q20.696 0 20.696 20.696l0 20.694q0 20.696-20.696 20.696l-34.492 0q-20.696 0-20.696-20.696l0-20.694q0-20.696 20.696-20.696Z" fill="#5F91FB" p-id="10740"></path><path d="M487.618 686v-46.844h-60.82c-12.846 0-31.356 1.512-45.334 3.022 51-49.864 92.932-104.264 92.932-154.884 0-52.132-35.134-86.132-88.02-86.132-38.156 0-63.088 15.112-88.776 42.31l30.22 30.222c13.98-15.488 30.978-28.71 51.378-28.71 26.444 0 41.932 17 41.932 45.332 0 43.066-44.954 95.576-120.886 163.574V686h187.374z m197.572 0v-72.532h33.244V571.16h-33.244v-164.706H618.7l-104.264 169.24v37.776h118.998V686h51.754z m-51.754-114.84H568.46l43.442-69.51c7.934-15.112 15.49-30.6 22.29-45.334h1.51c-0.756 16.246-2.266 41.556-2.266 57.8v57.042z" fill="#407DFF" p-id="10741"></path><path d="M512.9 22c241.932 0 438.056 198.44 438.056 443.232 0 22.866-1.71 45.328-5.012 67.262h-43.452c0.116-4.01 0.174-8.036 0.174-12.074 0-220.026-174.504-398.392-389.768-398.392-215.262 0-389.768 178.366-389.768 398.392 0 4.04 0.06 8.064 0.176 12.072l-43.454 0.002a451.87 451.87 0 0 1-5.012-67.262C74.84 220.44 270.966 22 512.9 22z" fill="#729FFF" p-id="10742"></path><path d="M512.9 50c241.932 0 438.056 198.44 438.056 443.232 0 22.866-1.71 45.328-5.012 67.262h-43.452c0.116-4.01 0.174-8.036 0.174-12.074 0-220.026-174.504-398.392-389.768-398.392-215.262 0-389.768 178.366-389.768 398.392 0 4.04 0.06 8.064 0.176 12.072l-43.454 0.002a451.87 451.87 0 0 1-5.012-67.262C74.84 248.44 270.966 50 512.9 50z" fill="#407DFF" p-id="10743"></path><path d="M154.174 474.26h27.594c17.144 0 31.044 13.9 31.044 31.044v262.146c0 17.144-13.9 31.042-31.044 31.042H154.174c-32.384 0-58.638-26.252-58.638-58.636V532.898c0-32.384 26.254-58.638 58.638-58.638z" fill="#729FFF" p-id="10744"></path><path d="M95.536 526v224.202C59.342 750.202 30 720.862 30 684.666v-93.13C30 555.342 59.34 526 95.536 526z" fill="#9EBDFF" p-id="10745"></path><path d="M868.174 474.26H840.58c-17.146 0-31.044 13.9-31.044 31.044v262.146c0 17.144 13.9 31.042 31.044 31.042h27.594c32.384 0 58.638-26.252 58.638-58.636V532.898c0-32.384-26.254-58.638-58.638-58.638z" fill="#729FFF" p-id="10746"></path><path d="M926.812 526v224.202c36.194 0 65.536-29.34 65.536-65.536v-93.13c0-36.194-29.34-65.536-65.536-65.536z" fill="#9EBDFF" p-id="10747"></path></svg>