<svg t="1638600013988" class="icon" viewBox="0 0 1082 1024" version="1.1" xmlns="http://www.w3.org/2000/svg" p-id="8091" width="200" height="200"><path d="M398.979657 656.149943v46.811428h117.028572v46.811429h-93.622858v44.470857h93.622858v72.557714h46.811428v-70.217142h70.217143v-46.811429h-70.217143v-46.811429h117.028572v-46.811428h-93.622858l93.622858-140.434286h-44.470858l-95.963428 140.434286-93.622857-140.434286h-49.152l95.963428 140.434286h-93.622857z m-210.651428-655.36h702.171428v93.622857h-702.171428v-93.622857z m-2.340572 217.673143h706.852572v102.985143h88.941714v-105.325715c0-46.811429-39.789714-86.601143-86.601143-86.601143H183.647086c-46.811429 0-86.601143 39.789714-86.601143 86.601143v105.325715h88.941714v-102.985143z" fill="#25A5FE" p-id="8092"></path><path d="M1030.933943 351.875657h-983.04c-25.746286 0-46.811429 21.065143-46.811429 46.811429v561.737143c0 25.746286 21.065143 46.811429 46.811429 46.811428h983.04c25.746286 0 46.811429-21.065143 46.811428-46.811428v-561.737143c0-25.746286-21.065143-46.811429-46.811428-46.811429z m-42.130286 566.418286H90.053486v-477.476572h898.779428v477.476572z" fill="#25A5FE" p-id="8093"></path></svg>