<svg t="1638599942311" class="icon" viewBox="0 0 1024 1024" version="1.1" xmlns="http://www.w3.org/2000/svg" p-id="5610" width="200" height="200"><path d="M512 1024C229.7 1024 0 794.3 0 512S229.7 0 512 0s512 229.7 512 512-229.7 512-512 512z m0-952.6C269.1 71.4 71.4 269 71.4 512S269 952.6 512 952.6 952.6 755 952.6 512 754.9 71.4 512 71.4z" fill="#27D0D8" p-id="5611"></path><path d="M512 833.5c-19.7 0-35.7-16-35.7-35.7V369.1c0-19.7 16-35.7 35.7-35.7s35.7 16 35.7 35.7v428.7c0 19.7-16 35.7-35.7 35.7zM512 262c-19.7 0-35.7-16-35.7-35.7v-23.8c0-19.7 16-35.7 35.7-35.7s35.7 16 35.7 35.7v23.8c0 19.7-16 35.7-35.7 35.7z" fill="#27D0D8" p-id="5612"></path></svg>