<svg t="1638589126165" class="icon" viewBox="0 0 1024 1024" version="1.1" xmlns="http://www.w3.org/2000/svg" p-id="2398" width="200" height="200"><path d="M743.6 877.8c-5.2 0-10.3-1.5-14.7-4.4L531 743.6l-85 100.2c-5.1 6-12.6 9.5-20.6 9.5-2.5 0-5-0.4-7.4-1-10.2-2.9-17.7-11.5-19.2-22l-28.3-192.1-212.2-139.3c-8.3-5.4-12.9-14.9-12.1-24.7 0.8-9.8 6.8-18.4 15.9-22.4L838.9 149c0.4-0.2 0.8-0.4 1.3-0.6h0.1c0.7-0.3 1.5-0.6 2.2-0.8h0.1c1-0.3 1.9-0.5 2.6-0.7 1.1-0.3 2.1-0.4 2.9-0.5 0.9-0.1 1.9-0.2 2.8-0.2 0.6 0 1.4 0 2.4 0.1h0.1c0.6 0 1.3 0.1 2.1 0.3 0.7 0.1 1.2 0.2 1.7 0.3 0.9 0.2 1.8 0.5 2.6 0.8h0.1c0.6 0.2 1.2 0.4 1.7 0.7h0.1c2 0.8 3.9 2 5.7 3.4h0.1c0.4 0.3 0.9 0.7 1.4 1.2l0.2 0.2c0.4 0.3 0.7 0.6 0.9 0.8 2.9 2.9 5.1 6.4 6.4 10.3v0.1c0.2 0.5 0.4 1.1 0.6 1.8v0.1c0.1 0.3 0.2 0.7 0.3 1.1 0.1 0.6 0.2 1.1 0.3 1.7v0.1c0.3 1.9 0.4 3.8 0.2 5.6v0.1c0 0.7-0.1 1.4-0.2 2l-0.1 0.5-0.1 0.4-107.1 677.3c-1.5 9.1-7.3 16.8-15.7 20.4-3.4 1.5-7.2 2.3-11 2.3z m-203.9-193c0.4 0.2 0.8 0.5 1.2 0.8l182.6 119.9 87.9-555.6-373.3 368.2 101.6 66.7z m-96.3 78.7l42.2-49.7-54.8-36 12.6 85.7z m-51.5-175.7L712 272.2l-3.9-5.7-479 214.4 162.8 106.9z" fill="#6B6B6B" p-id="2399"></path></svg>