<svg t="1638536728507" class="icon" viewBox="0 0 1024 1024" version="1.1" xmlns="http://www.w3.org/2000/svg" p-id="26648" width="200" height="200"><path d="M910.669205 863.962628c0 64.802726-6.824196 85.915241-78.54941 85.915242H281.593038c-74.446702 0-76.708465-21.112515-76.708465-85.915242V220.567424c0-77.958629 63.198298-141.156926 141.156926-141.156926h423.47078c77.958629 0 141.156926 63.198298 141.156926 141.156926v643.395204z" fill="#DCE5F7" p-id="26649"></path><path d="M832.121842 962.616027H281.592014c-85.643912 0-89.451741-32.023037-89.451742-98.651351V220.568448c0-84.86064 69.035468-153.896108 153.896108-153.896107h423.468731c84.86064 0 153.896108 69.035468 153.896108 153.896107v643.396228c0.001024 67.057322-9.006095 98.651351-91.279377 98.651351zM346.037404 92.151727c-70.814981 0-128.416721 57.607884-128.416722 128.416721v643.396228c0 62.000352 0 73.171965 63.972356 73.171965h550.529828c60.924248 0 65.801014-11.053866 65.801015-73.171965V220.568448c0-70.808837-57.601741-128.416721-128.416722-128.416721H346.037404z" fill="#4E6DC4" p-id="26650"></path><path d="M533.029581 186.567264h276.606716c19.141536 0 34.660566 15.153503 34.660566 33.84453v610.913466c0 18.694098-15.51903 33.842482-34.660566 33.842481H306.356728c-19.141536 0-34.66159-15.148383-34.66159-33.842481V220.41077c0-18.690003 15.520054-33.844529 34.66159-33.844529h226.672853z" fill="#FFFFFF" p-id="26651"></path><path d="M809.637321 212.046651c5.062089 0 9.18118 3.75254 9.181179 8.365143v610.913466c0 4.61158-4.119091 8.363095-9.181179 8.363095H306.356728c-5.063113 0-9.182204-3.751516-9.182204-8.363095V220.41077c0-4.612603 4.119091-8.365143 9.182204-8.365143H809.637321m0-25.478363H306.356728c-19.141536 0-34.66159 15.153503-34.66159 33.84453v610.913466c0 18.694098 15.520054 33.842482 34.66159 33.842481H809.637321c19.141536 0 34.660566-15.148383 34.660566-33.842481V220.41077c-0.001024-18.690003-15.51903-33.843506-34.660566-33.843506z" fill="#4E6DC4" p-id="26652"></path><path d="M78.849409 223.595053h539.882445S630.03862 79.438143 765.715712 79.438143H217.353448S95.809045 73.785272 78.849409 223.595053z" fill="#BED3F4" p-id="26653"></path><path d="M618.732878 236.337306H78.852481a12.755563 12.755563 0 0 1-9.504728-4.255267 12.788328 12.788328 0 0 1-3.15971-9.915306C83.294095 71.033068 202.143632 66.672341 215.642536 66.672341l2.301694 0.03686 547.344522-0.012287h18.238469c7.028973 0 12.739181 5.704065 12.739181 12.739181s-5.710208 12.739181-12.739181 12.739181h-17.815605c-122.047131 0-133.841266 127.029357-134.276417 132.435472-0.547779 6.613275-6.07164 11.726559-12.702321 11.726558z m-525.212216-25.479386h514.201353c4.504072-25.105668 20.067128-84.474635 69.583247-118.68162l-461.662726-0.024573c-17.517654 0-102.825732 5.916009-122.121874 118.706193zM768.366551 378.730062c0 11.254547-8.504392 20.37839-18.996144 20.37839h-378.499689c-10.490729 0-18.996144-9.123842-18.996144-20.37839 0-11.254547 8.504392-20.37839 18.996144-20.378389h378.499689c10.491753 0 18.996144 9.123842 18.996144 20.378389zM768.366551 522.556258c0 11.254547-8.504392 20.37839-18.996144 20.378389h-378.499689c-10.490729 0-18.996144-9.123842-18.996144-20.378389 0-11.254547 8.504392-20.37839 18.996144-20.37839h378.499689c10.491753-0.001024 18.996144 9.122818 18.996144 20.37839zM559.409986 666.382453c0 11.254547-8.504392 20.37839-18.996144 20.37839H370.870718c-10.490729 0-18.996144-9.123842-18.996144-20.37839 0-11.254547 8.504392-20.37839 18.996144-20.378389h169.543124c10.490729-0.001024 18.996144 9.122818 18.996144 20.378389z" fill="#4E6DC4" p-id="26654"></path></svg>