<?xml version="1.0" encoding="utf-8"?>
<!-- Generator: Adobe Illustrator 23.0.0, SVG Export Plug-In . SVG Version: 6.00 Build 0)  -->
<svg version="1.1" id="图层_1" xmlns="http://www.w3.org/2000/svg" xmlns:xlink="http://www.w3.org/1999/xlink" x="0px" y="0px"
	 viewBox="0 0 300 300" style="enable-background:new 0 0 300 300;" xml:space="preserve">
<style type="text/css">
	.st0{fill:#8CD7F7;}
	.st1{fill:#AAE0F9;}
	.st2{fill:#2C5871;}
	.st3{fill:#A5D9E7;}
	.st4{opacity:0.2;}
	.st5{fill:#FDC00F;}
	.st6{opacity:0.4;fill:#EF344D;}
	.st7{fill:#F9EB2A;}
	.st8{fill:#EF344D;}
	.st9{fill:#0071BC;}
	.st10{fill:#58595B;}
	.st11{fill:#221E1F;}
	.st12{fill:url(#SVGID_1_);}
	.st13{fill:#929496;}
	.st14{fill:#A4C2D1;}
	.st15{fill:#B7CFDB;}
	.st16{fill:#91B4C6;}
	.st17{fill:none;stroke:#BBBDBF;stroke-width:4;stroke-linecap:round;stroke-linejoin:round;stroke-miterlimit:10;}
	.st18{fill:#0071BB;}
	.st19{fill:#0067AB;}
	.st20{fill:#2382C5;}
	.st21{fill:#005E9C;}
	.st22{fill:#C5C7C9;}
	.st23{fill:#F1F1F2;}
	.st24{font-family:'ArialMT';}
	.st25{font-size:14px;}
	.st26{letter-spacing:2;}
</style>
<g>
	<g>
		<g>
			<path class="st0" d="M280.93,239.95v-35.3c-6.55,0-6.55,4.69-13.1,4.69c-6.55,0-6.55-4.69-13.1-4.69c-6.55,0-6.55,4.69-13.1,4.69
				c-6.55,0-6.55-4.69-13.1-4.69s-6.55,4.69-13.1,4.69c-6.55,0-6.55-4.69-13.1-4.69c-6.55,0-6.55,4.69-13.1,4.69
				c-6.55,0-6.55-4.69-13.1-4.69c-6.55,0-6.55,4.69-13.1,4.69c-6.55,0-6.55-4.69-13.1-4.69s-6.55,4.69-13.1,4.69
				c-6.55,0-6.55-4.69-13.1-4.69c-6.55,0-6.55,4.69-13.1,4.69c-6.55,0-6.55-4.69-13.1-4.69c-6.55,0-6.55,4.69-13.1,4.69
				c-6.55,0-6.55-4.69-13.1-4.69c-6.55,0-6.55,4.69-13.1,4.69c-6.55,0-6.55-4.69-13.1-4.69c-6.55,0-6.55,4.69-13.1,4.69
				c-6.55,0-6.55-4.69-13.1-4.69v35.3H280.93z"/>
			<path class="st1" d="M280.93,250v-35.3c-6.55,0-6.55,4.69-13.1,4.69c-6.55,0-6.55-4.69-13.1-4.69c-6.55,0-6.55,4.69-13.1,4.69
				c-6.55,0-6.55-4.69-13.1-4.69s-6.55,4.69-13.1,4.69c-6.55,0-6.55-4.69-13.1-4.69c-6.55,0-6.55,4.69-13.1,4.69
				c-6.55,0-6.55-4.69-13.1-4.69c-6.55,0-6.55,4.69-13.1,4.69c-6.55,0-6.55-4.69-13.1-4.69s-6.55,4.69-13.1,4.69
				c-6.55,0-6.55-4.69-13.1-4.69c-6.55,0-6.55,4.69-13.1,4.69c-6.55,0-6.55-4.69-13.1-4.69c-6.55,0-6.55,4.69-13.1,4.69
				c-6.55,0-6.55-4.69-13.1-4.69c-6.55,0-6.55,4.69-13.1,4.69c-6.55,0-6.55-4.69-13.1-4.69c-6.55,0-6.55,4.69-13.1,4.69
				c-6.55,0-6.55-4.69-13.1-4.69V250H280.93z"/>
		</g>
		<g>
			<g>
				<rect x="74" y="160.16" class="st2" width="40.67" height="28.11"/>
				<rect x="74.65" y="161.5" class="st3" width="0.65" height="25.42"/>
				<rect x="75.94" y="161.5" class="st3" width="0.65" height="25.42"/>
				<rect x="77.23" y="161.5" class="st3" width="0.65" height="25.42"/>
				<rect x="78.52" y="161.5" class="st3" width="0.65" height="25.42"/>
				<rect x="79.81" y="161.5" class="st3" width="0.65" height="25.42"/>
				<rect x="81.1" y="161.5" class="st3" width="0.64" height="25.42"/>
				<rect x="82.39" y="161.5" class="st3" width="0.65" height="25.42"/>
				<rect x="83.68" y="161.5" class="st3" width="0.65" height="25.42"/>
				<rect x="84.97" y="161.5" class="st3" width="0.65" height="25.42"/>
				<rect x="86.26" y="161.5" class="st3" width="0.65" height="25.42"/>
				<rect x="87.56" y="161.5" class="st3" width="0.65" height="25.42"/>
				<rect x="88.85" y="161.5" class="st3" width="0.65" height="25.42"/>
				<rect x="90.14" y="161.5" class="st3" width="0.65" height="25.42"/>
				<rect x="91.43" y="161.5" class="st3" width="0.65" height="25.42"/>
				<rect x="92.72" y="161.5" class="st3" width="0.65" height="25.42"/>
				<rect x="94.01" y="161.5" class="st3" width="0.65" height="25.42"/>
				<rect x="95.3" y="161.5" class="st3" width="0.65" height="25.42"/>
				<rect x="96.59" y="161.5" class="st3" width="0.65" height="25.42"/>
				<rect x="97.88" y="161.5" class="st3" width="0.65" height="25.42"/>
				<rect x="99.17" y="161.5" class="st3" width="0.64" height="25.42"/>
				<rect x="100.47" y="161.5" class="st3" width="0.65" height="25.42"/>
				<rect x="101.76" y="161.5" class="st3" width="0.65" height="25.42"/>
				<rect x="103.05" y="161.5" class="st3" width="0.65" height="25.42"/>
				<rect x="104.34" y="161.5" class="st3" width="0.64" height="25.42"/>
				<rect x="105.63" y="161.5" class="st3" width="0.65" height="25.42"/>
				<rect x="106.92" y="161.5" class="st3" width="0.64" height="25.42"/>
				<rect x="108.21" y="161.5" class="st3" width="0.65" height="25.42"/>
				<rect x="109.5" y="161.5" class="st3" width="0.65" height="25.42"/>
				<rect x="110.79" y="161.5" class="st3" width="0.65" height="25.42"/>
				<rect x="112.08" y="161.5" class="st3" width="0.65" height="25.42"/>
				<rect x="113.38" y="161.5" class="st3" width="0.65" height="25.42"/>
			</g>
			<g>
				<rect x="135" y="140" class="st2" width="40.67" height="20.16"/>
				<rect x="135.65" y="141.35" class="st4" width="0.65" height="17.46"/>
				<rect x="136.94" y="141.35" class="st4" width="0.65" height="17.46"/>
				<rect x="138.23" y="141.35" class="st4" width="0.65" height="17.46"/>
				<rect x="139.52" y="141.35" class="st4" width="0.65" height="17.46"/>
				<rect x="140.81" y="141.35" class="st4" width="0.65" height="17.46"/>
				<rect x="142.1" y="141.35" class="st4" width="0.65" height="17.46"/>
				<rect x="143.39" y="141.35" class="st4" width="0.65" height="17.46"/>
				<rect x="144.68" y="141.35" class="st4" width="0.64" height="17.46"/>
				<rect x="145.97" y="141.35" class="st4" width="0.65" height="17.46"/>
				<rect x="147.26" y="141.35" class="st4" width="0.65" height="17.46"/>
				<rect x="148.56" y="141.35" class="st4" width="0.65" height="17.46"/>
				<rect x="149.85" y="141.35" class="st4" width="0.65" height="17.46"/>
				<rect x="151.14" y="141.35" class="st4" width="0.65" height="17.46"/>
				<rect x="152.43" y="141.35" class="st4" width="0.65" height="17.46"/>
				<rect x="153.72" y="141.35" class="st4" width="0.65" height="17.46"/>
				<rect x="155.01" y="141.35" class="st4" width="0.64" height="17.46"/>
				<rect x="156.3" y="141.35" class="st4" width="0.65" height="17.46"/>
				<rect x="157.59" y="141.35" class="st4" width="0.65" height="17.46"/>
				<rect x="158.88" y="141.35" class="st4" width="0.65" height="17.46"/>
				<rect x="160.17" y="141.35" class="st4" width="0.65" height="17.46"/>
				<rect x="161.46" y="141.35" class="st4" width="0.65" height="17.46"/>
				<rect x="162.76" y="141.35" class="st4" width="0.65" height="17.46"/>
				<rect x="164.05" y="141.35" class="st4" width="0.65" height="17.46"/>
				<rect x="165.34" y="141.35" class="st4" width="0.65" height="17.46"/>
				<rect x="166.63" y="141.35" class="st4" width="0.65" height="17.46"/>
				<rect x="167.92" y="141.35" class="st4" width="0.65" height="17.46"/>
				<rect x="169.21" y="141.35" class="st4" width="0.65" height="17.46"/>
				<rect x="170.5" y="141.35" class="st4" width="0.65" height="17.46"/>
				<rect x="171.79" y="141.35" class="st4" width="0.65" height="17.46"/>
				<rect x="173.08" y="141.35" class="st4" width="0.65" height="17.46"/>
				<rect x="174.38" y="141.35" class="st4" width="0.65" height="17.46"/>
			</g>
			<g>
				<rect x="94.33" y="140" class="st5" width="40.67" height="20.16"/>
				<rect x="94.98" y="141.35" class="st6" width="0.65" height="17.46"/>
				<rect x="96.27" y="141.35" class="st6" width="0.64" height="17.46"/>
				<rect x="97.56" y="141.35" class="st6" width="0.65" height="17.46"/>
				<rect x="98.85" y="141.35" class="st6" width="0.65" height="17.46"/>
				<rect x="100.14" y="141.35" class="st6" width="0.65" height="17.46"/>
				<rect x="101.43" y="141.35" class="st6" width="0.64" height="17.46"/>
				<rect x="102.72" y="141.35" class="st6" width="0.65" height="17.46"/>
				<rect x="104.02" y="141.35" class="st6" width="0.65" height="17.46"/>
				<rect x="105.31" y="141.35" class="st6" width="0.65" height="17.46"/>
				<rect x="106.6" y="141.35" class="st6" width="0.65" height="17.46"/>
				<rect x="107.89" y="141.35" class="st6" width="0.65" height="17.46"/>
				<rect x="109.18" y="141.35" class="st6" width="0.65" height="17.46"/>
				<rect x="110.47" y="141.35" class="st6" width="0.65" height="17.46"/>
				<rect x="111.76" y="141.35" class="st6" width="0.65" height="17.46"/>
				<rect x="113.05" y="141.35" class="st6" width="0.64" height="17.46"/>
				<rect x="114.34" y="141.35" class="st6" width="0.65" height="17.46"/>
				<rect x="115.63" y="141.35" class="st6" width="0.65" height="17.46"/>
				<rect x="116.93" y="141.35" class="st6" width="0.65" height="17.46"/>
				<rect x="118.22" y="141.35" class="st6" width="0.65" height="17.46"/>
				<rect x="119.51" y="141.35" class="st6" width="0.65" height="17.46"/>
				<rect x="120.8" y="141.35" class="st6" width="0.65" height="17.46"/>
				<rect x="122.09" y="141.35" class="st6" width="0.65" height="17.46"/>
				<rect x="123.38" y="141.35" class="st6" width="0.64" height="17.46"/>
				<rect x="124.67" y="141.35" class="st6" width="0.65" height="17.46"/>
				<rect x="125.96" y="141.35" class="st6" width="0.65" height="17.46"/>
				<rect x="127.25" y="141.35" class="st6" width="0.65" height="17.46"/>
				<rect x="128.55" y="141.35" class="st6" width="0.64" height="17.46"/>
				<rect x="129.84" y="141.35" class="st6" width="0.65" height="17.46"/>
				<rect x="131.13" y="141.35" class="st6" width="0.65" height="17.46"/>
				<rect x="132.42" y="141.35" class="st6" width="0.65" height="17.46"/>
				<rect x="133.71" y="141.35" class="st6" width="0.64" height="17.46"/>
			</g>
			<g>
				<rect x="114.67" y="160.16" class="st7" width="40.67" height="28.11"/>
				<rect x="115.31" y="161.5" class="st5" width="0.64" height="25.42"/>
				<rect x="116.6" y="161.5" class="st5" width="0.65" height="25.42"/>
				<rect x="117.89" y="161.5" class="st5" width="0.65" height="25.42"/>
				<rect x="119.19" y="161.5" class="st5" width="0.65" height="25.42"/>
				<rect x="120.48" y="161.5" class="st5" width="0.64" height="25.42"/>
				<rect x="121.77" y="161.5" class="st5" width="0.65" height="25.42"/>
				<rect x="123.06" y="161.5" class="st5" width="0.65" height="25.42"/>
				<rect x="124.35" y="161.5" class="st5" width="0.65" height="25.42"/>
				<rect x="125.64" y="161.5" class="st5" width="0.64" height="25.42"/>
				<rect x="126.93" y="161.5" class="st5" width="0.65" height="25.42"/>
				<rect x="128.22" y="161.5" class="st5" width="0.65" height="25.42"/>
				<rect x="129.51" y="161.5" class="st5" width="0.65" height="25.42"/>
				<rect x="130.8" y="161.5" class="st5" width="0.64" height="25.42"/>
				<rect x="132.09" y="161.5" class="st5" width="0.65" height="25.42"/>
				<rect x="133.39" y="161.5" class="st5" width="0.65" height="25.42"/>
				<rect x="134.68" y="161.5" class="st5" width="0.65" height="25.42"/>
				<rect x="135.97" y="161.5" class="st5" width="0.64" height="25.42"/>
				<rect x="137.26" y="161.5" class="st5" width="0.65" height="25.42"/>
				<rect x="138.55" y="161.5" class="st5" width="0.65" height="25.42"/>
				<rect x="139.84" y="161.5" class="st5" width="0.65" height="25.42"/>
				<rect x="141.13" y="161.5" class="st5" width="0.65" height="25.42"/>
				<rect x="142.42" y="161.5" class="st5" width="0.65" height="25.42"/>
				<rect x="143.71" y="161.5" class="st5" width="0.65" height="25.42"/>
				<rect x="145.01" y="161.5" class="st5" width="0.64" height="25.42"/>
				<rect x="146.3" y="161.5" class="st5" width="0.65" height="25.42"/>
				<rect x="147.59" y="161.5" class="st5" width="0.65" height="25.42"/>
				<rect x="148.88" y="161.5" class="st5" width="0.64" height="25.42"/>
				<rect x="150.17" y="161.5" class="st5" width="0.65" height="25.42"/>
				<rect x="151.46" y="161.5" class="st5" width="0.65" height="25.42"/>
				<rect x="152.75" y="161.5" class="st5" width="0.64" height="25.42"/>
				<rect x="154.04" y="161.5" class="st5" width="0.65" height="25.42"/>
			</g>
			<g>
				<rect x="155.33" y="160.16" class="st8" width="40.67" height="28.11"/>
				<rect x="155.98" y="161.5" class="st4" width="0.65" height="25.42"/>
				<rect x="157.27" y="161.5" class="st4" width="0.64" height="25.42"/>
				<rect x="158.56" y="161.5" class="st4" width="0.65" height="25.42"/>
				<rect x="159.85" y="161.5" class="st4" width="0.65" height="25.42"/>
				<rect x="161.14" y="161.5" class="st4" width="0.65" height="25.42"/>
				<rect x="162.43" y="161.5" class="st4" width="0.65" height="25.42"/>
				<rect x="163.72" y="161.5" class="st4" width="0.65" height="25.42"/>
				<rect x="165.02" y="161.5" class="st4" width="0.65" height="25.42"/>
				<rect x="166.31" y="161.5" class="st4" width="0.65" height="25.42"/>
				<rect x="167.6" y="161.5" class="st4" width="0.65" height="25.42"/>
				<rect x="168.89" y="161.5" class="st4" width="0.65" height="25.42"/>
				<rect x="170.18" y="161.5" class="st4" width="0.65" height="25.42"/>
				<rect x="171.47" y="161.5" class="st4" width="0.65" height="25.42"/>
				<rect x="172.76" y="161.5" class="st4" width="0.65" height="25.42"/>
				<rect x="174.05" y="161.5" class="st4" width="0.65" height="25.42"/>
				<rect x="175.34" y="161.5" class="st4" width="0.65" height="25.42"/>
				<rect x="176.64" y="161.5" class="st4" width="0.65" height="25.42"/>
				<rect x="177.93" y="161.5" class="st4" width="0.65" height="25.42"/>
				<rect x="179.22" y="161.5" class="st4" width="0.64" height="25.42"/>
				<rect x="180.51" y="161.5" class="st4" width="0.65" height="25.42"/>
				<rect x="181.8" y="161.5" class="st4" width="0.65" height="25.42"/>
				<rect x="183.09" y="161.5" class="st4" width="0.65" height="25.42"/>
				<rect x="184.38" y="161.5" class="st4" width="0.64" height="25.42"/>
				<rect x="185.67" y="161.5" class="st4" width="0.64" height="25.42"/>
				<rect x="186.96" y="161.5" class="st4" width="0.64" height="25.42"/>
				<rect x="188.25" y="161.5" class="st4" width="0.65" height="25.42"/>
				<rect x="189.55" y="161.5" class="st4" width="0.64" height="25.42"/>
				<rect x="190.84" y="161.5" class="st4" width="0.64" height="25.42"/>
				<rect x="192.13" y="161.5" class="st4" width="0.65" height="25.42"/>
				<rect x="193.42" y="161.5" class="st4" width="0.65" height="25.42"/>
				<rect x="194.71" y="161.5" class="st4" width="0.65" height="25.42"/>
			</g>
		</g>
		<g>
			<g>
				<rect x="248.88" y="84" class="st9" width="3.62" height="76.03"/>
				<rect x="241.18" y="92.15" class="st9" width="19.91" height="1.81"/>
				<rect x="237.56" y="123.82" class="st9" width="27.15" height="1.81"/>
				<rect x="241.18" y="113.26" class="st9" width="19.91" height="1.81"/>
				<rect x="241.18" y="102.7" class="st9" width="19.91" height="1.81"/>
				<rect x="214.85" y="159.12" class="st9" width="72.41" height="2.72"/>
				
					<rect x="258.45" y="124.28" transform="matrix(0.9659 -0.2588 0.2588 0.9659 -29.4973 72.1731)" class="st9" width="1.81" height="47.66"/>
				
					<rect x="218.33" y="147.21" transform="matrix(0.2588 -0.9659 0.9659 0.2588 36.4174 343.6875)" class="st9" width="47.66" height="1.81"/>
				<rect x="214.85" y="159.12" class="st9" width="1.81" height="18.1"/>
				<rect x="250.14" y="159.12" class="st9" width="1.81" height="18.1"/>
				<rect x="267.79" y="159.12" class="st9" width="1.81" height="18.1"/>
				<rect x="285.44" y="159.12" class="st9" width="1.81" height="18.1"/>
				<rect x="232.5" y="159.12" class="st9" width="1.81" height="18.1"/>
			</g>
		</g>
		<g>
			<path class="st10" d="M64.87,183.97h0.49v-5.93h-0.49V183.97z M55.72,176.27h0.49v-5.93h-0.49V176.27z M71.57,183.97h0.49v-5.93
				h-0.49V183.97z M58.17,183.97h0.49v-5.93h-0.49V183.97z M78.28,183.97h0.49v-5.93h-0.49V183.97z M98.39,183.97h0.49v-5.93h-0.49
				V183.97z M84.98,183.97h0.49v-5.93h-0.49V183.97z M42.31,176.27h0.49v-5.93h-0.49V176.27z M15.49,176.27h0.49v-5.93h-0.49V176.27
				z M8.79,176.27h0.49v-5.93H8.79V176.27z M22.2,176.27h0.49v-5.93H22.2V176.27z M49.01,176.27h0.49v-5.93h-0.49V176.27z
				 M28.9,176.27h0.49v-5.93H28.9V176.27z M105.09,183.97h0.49v-5.93h-0.49V183.97z M35.6,176.27h0.49v-5.93H35.6V176.27z
				 M91.68,183.97h0.49v-5.93h-0.49V183.97z M178.83,183.97h0.49v-5.93h-0.49V183.97z M185.53,183.97h0.49v-5.93h-0.49V183.97z
				 M165.42,183.97h0.49v-5.93h-0.49V183.97z M172.13,183.97h0.49v-5.93h-0.49V183.97z M192.24,183.97h0.49v-5.93h-0.49V183.97z
				 M205.64,178.04v5.93h0.49v-5.93H205.64z M198.94,183.97h0.49v-5.93h-0.49V183.97z M152.02,183.97h0.49v-5.93h-0.49V183.97z
				 M125.2,183.97h0.49v-5.93h-0.49V183.97z M158.72,183.97h0.49v-5.93h-0.49V183.97z M118.5,183.97h0.49v-5.93h-0.49V183.97z
				 M131.9,183.97h0.49v-5.93h-0.49V183.97z M111.79,183.97h0.49v-5.93h-0.49V183.97z M145.31,183.97h0.49v-5.93h-0.49V183.97z
				 M138.61,183.97h0.49v-5.93h-0.49V183.97z"/>
			<path class="st11" d="M8,170.83h49v-0.49H8V170.83z M8,174.51h49v-0.49H8V174.51z M57.37,182.21h149.61v-0.49H57.37V182.21z
				 M57.37,178.04v0.49h149.61v-0.49H57.37z"/>
		</g>
		<linearGradient id="SVGID_1_" gradientUnits="userSpaceOnUse" x1="6.9235" y1="201.2072" x2="292.9272" y2="201.2072">
			<stop  offset="0" style="stop-color:#3282ED"/>
			<stop  offset="1" style="stop-color:#60A2F0"/>
		</linearGradient>
		<polygon class="st12" points="6.92,176.32 39.51,231.53 254.01,231.53 292.93,170.89 213.28,170.89 199.7,183.56 63.94,182.65 
			53.99,176.32 		"/>
		<g>
			<g>
				<path class="st10" d="M53.68,189.6c-0.55,0-0.99,0.44-0.99,0.99v0.8c0,0.55,0.44,0.99,0.99,0.99c0.55,0,0.99-0.44,0.99-0.99
					v-0.8C54.67,190.04,54.23,189.6,53.68,189.6z M54.17,191.39c0,0.27-0.22,0.49-0.49,0.49c-0.27,0-0.49-0.22-0.49-0.49v-0.8
					c0-0.27,0.22-0.49,0.49-0.49c0.27,0,0.49,0.22,0.49,0.49V191.39z"/>
				<path class="st10" d="M53.68,192.75c-0.55,0-0.99,0.44-0.99,0.99v0.8c0,0.55,0.44,0.99,0.99,0.99c0.55,0,0.99-0.44,0.99-0.99
					v-0.8C54.67,193.19,54.23,192.75,53.68,192.75z M54.17,194.54c0,0.27-0.22,0.49-0.49,0.49c-0.27,0-0.49-0.22-0.49-0.49v-0.8
					c0-0.27,0.22-0.49,0.49-0.49c0.27,0,0.49,0.22,0.49,0.49V194.54z"/>
				<path class="st10" d="M53.68,195.91c-0.55,0-0.99,0.44-0.99,0.99v0.8c0,0.55,0.44,0.99,0.99,0.99c0.55,0,0.99-0.44,0.99-0.99
					v-0.8C54.67,196.35,54.23,195.91,53.68,195.91z M54.17,197.7c0,0.27-0.22,0.49-0.49,0.49c-0.27,0-0.49-0.22-0.49-0.49v-0.8
					c0-0.27,0.22-0.49,0.49-0.49c0.27,0,0.49,0.22,0.49,0.49V197.7z"/>
				<path class="st10" d="M53.68,199.06c-0.55,0-0.99,0.44-0.99,0.99v0.8c0,0.55,0.44,0.99,0.99,0.99c0.55,0,0.99-0.44,0.99-0.99
					v-0.8C54.67,199.51,54.23,199.06,53.68,199.06z M54.17,200.85c0,0.27-0.22,0.49-0.49,0.49c-0.27,0-0.49-0.22-0.49-0.49v-0.8
					c0-0.27,0.22-0.49,0.49-0.49c0.27,0,0.49,0.22,0.49,0.49V200.85z"/>
				<path class="st10" d="M53.68,202.22c-0.55,0-0.99,0.44-0.99,0.99v0.8c0,0.55,0.44,0.99,0.99,0.99c0.55,0,0.99-0.44,0.99-0.99
					v-0.8C54.67,202.66,54.23,202.22,53.68,202.22z M54.17,204.01c0,0.27-0.22,0.49-0.49,0.49c-0.27,0-0.49-0.22-0.49-0.49v-0.8
					c0-0.27,0.22-0.49,0.49-0.49c0.27,0,0.49,0.22,0.49,0.49V204.01z"/>
				<path class="st10" d="M53.68,205.37c-0.55,0-0.99,0.44-0.99,0.99v0.8c0,0.55,0.44,0.99,0.99,0.99c0.55,0,0.99-0.44,0.99-0.99
					v-0.8C54.67,205.82,54.23,205.37,53.68,205.37z M54.17,207.16c0,0.27-0.22,0.49-0.49,0.49c-0.27,0-0.49-0.22-0.49-0.49v-0.8
					c0-0.27,0.22-0.49,0.49-0.49c0.27,0,0.49,0.22,0.49,0.49V207.16z"/>
				<path class="st10" d="M53.68,208.53c-0.55,0-0.99,0.44-0.99,0.99v0.8c0,0.55,0.44,0.99,0.99,0.99c0.55,0,0.99-0.44,0.99-0.99
					v-0.8C54.67,208.97,54.23,208.53,53.68,208.53z M54.17,210.32c0,0.27-0.22,0.49-0.49,0.49c-0.27,0-0.49-0.22-0.49-0.49v-0.8
					c0-0.27,0.22-0.49,0.49-0.49c0.27,0,0.49,0.22,0.49,0.49V210.32z"/>
				<path class="st10" d="M53.68,211.69c-0.55,0-0.99,0.44-0.99,0.99v0.8c0,0.55,0.44,0.99,0.99,0.99c0.55,0,0.99-0.44,0.99-0.99
					v-0.8C54.67,212.13,54.23,211.69,53.68,211.69z M54.17,213.48c0,0.27-0.22,0.49-0.49,0.49c-0.27,0-0.49-0.22-0.49-0.49v-0.8
					c0-0.27,0.22-0.49,0.49-0.49c0.27,0,0.49,0.22,0.49,0.49V213.48z"/>
				<path class="st10" d="M53.68,214.84c-0.55,0-0.99,0.44-0.99,0.99v0.8c0,0.55,0.44,0.99,0.99,0.99c0.55,0,0.99-0.44,0.99-0.99
					v-0.8C54.67,215.28,54.23,214.84,53.68,214.84z M54.17,216.63c0,0.27-0.22,0.49-0.49,0.49c-0.27,0-0.49-0.22-0.49-0.49v-0.8
					c0-0.27,0.22-0.49,0.49-0.49c0.27,0,0.49,0.22,0.49,0.49V216.63z"/>
				<path class="st10" d="M53.68,218c-0.55,0-0.99,0.44-0.99,0.99v0.8c0,0.55,0.44,0.99,0.99,0.99c0.55,0,0.99-0.44,0.99-0.99v-0.8
					C54.67,218.44,54.23,218,53.68,218z M54.17,219.79c0,0.27-0.22,0.49-0.49,0.49c-0.27,0-0.49-0.22-0.49-0.49v-0.8
					c0-0.27,0.22-0.49,0.49-0.49c0.27,0,0.49,0.22,0.49,0.49V219.79z"/>
				<path class="st10" d="M53.68,221.15c-0.55,0-0.99,0.44-0.99,0.99v0.8c0,0.55,0.44,0.99,0.99,0.99c0.55,0,0.99-0.44,0.99-0.99
					v-0.8C54.67,221.6,54.23,221.15,53.68,221.15z M54.17,222.94c0,0.27-0.22,0.49-0.49,0.49c-0.27,0-0.49-0.22-0.49-0.49v-0.8
					c0-0.27,0.22-0.49,0.49-0.49c0.27,0,0.49,0.22,0.49,0.49V222.94z"/>
				<path class="st10" d="M53.68,224.31c-0.55,0-0.99,0.44-0.99,0.99v0.8c0,0.55,0.44,0.99,0.99,0.99c0.55,0,0.99-0.44,0.99-0.99
					v-0.8C54.67,224.75,54.23,224.31,53.68,224.31z M54.17,226.1c0,0.27-0.22,0.49-0.49,0.49c-0.27,0-0.49-0.22-0.49-0.49v-0.8
					c0-0.27,0.22-0.49,0.49-0.49c0.27,0,0.49,0.22,0.49,0.49V226.1z"/>
				<path class="st10" d="M53.68,227.46c-0.55,0-0.99,0.44-0.99,0.99v0.8c0,0.55,0.44,0.99,0.99,0.99c0.55,0,0.99-0.44,0.99-0.99
					v-0.8C54.67,227.91,54.23,227.46,53.68,227.46z M54.17,229.25c0,0.27-0.22,0.49-0.49,0.49c-0.27,0-0.49-0.22-0.49-0.49v-0.8
					c0-0.27,0.22-0.49,0.49-0.49c0.27,0,0.49,0.22,0.49,0.49V229.25z"/>
				<path class="st10" d="M53.68,230.62c-0.55,0-0.99,0.44-0.99,0.99v0.8c0,0.55,0.44,0.99,0.99,0.99c0.55,0,0.99-0.44,0.99-0.99
					v-0.8C54.67,231.06,54.23,230.62,53.68,230.62z M54.17,232.41c0,0.27-0.22,0.49-0.49,0.49c-0.27,0-0.49-0.22-0.49-0.49v-0.8
					c0-0.27,0.22-0.49,0.49-0.49c0.27,0,0.49,0.22,0.49,0.49V232.41z"/>
				<path class="st10" d="M53.68,233.78c-0.55,0-0.99,0.44-0.99,0.99v0.8c0,0.55,0.44,0.99,0.99,0.99c0.55,0,0.99-0.44,0.99-0.99
					v-0.8C54.67,234.22,54.23,233.78,53.68,233.78z M54.17,235.57c0,0.27-0.22,0.49-0.49,0.49c-0.27,0-0.49-0.22-0.49-0.49v-0.8
					c0-0.27,0.22-0.49,0.49-0.49c0.27,0,0.49,0.22,0.49,0.49V235.57z"/>
				<path class="st11" d="M53.93,193.7c0,0.14-0.11,0.25-0.25,0.25c-0.14,0-0.25-0.11-0.25-0.25v-2.28c0-0.14,0.11-0.25,0.25-0.25
					c0.14,0,0.25,0.11,0.25,0.25V193.7z"/>
				<path class="st11" d="M53.93,196.86c0,0.14-0.11,0.25-0.25,0.25c-0.14,0-0.25-0.11-0.25-0.25v-2.28c0-0.14,0.11-0.25,0.25-0.25
					c0.14,0,0.25,0.11,0.25,0.25V196.86z"/>
				<path class="st11" d="M53.93,200.02c0,0.14-0.11,0.25-0.25,0.25c-0.14,0-0.25-0.11-0.25-0.25v-2.28c0-0.14,0.11-0.25,0.25-0.25
					c0.14,0,0.25,0.11,0.25,0.25V200.02z"/>
				<path class="st11" d="M53.93,203.17c0,0.14-0.11,0.25-0.25,0.25c-0.14,0-0.25-0.11-0.25-0.25v-2.28c0-0.14,0.11-0.25,0.25-0.25
					c0.14,0,0.25,0.11,0.25,0.25V203.17z"/>
				<path class="st11" d="M53.93,206.33c0,0.14-0.11,0.25-0.25,0.25c-0.14,0-0.25-0.11-0.25-0.25v-2.28c0-0.14,0.11-0.25,0.25-0.25
					c0.14,0,0.25,0.11,0.25,0.25V206.33z"/>
				<path class="st11" d="M53.93,209.48c0,0.14-0.11,0.25-0.25,0.25c-0.14,0-0.25-0.11-0.25-0.25v-2.28c0-0.14,0.11-0.25,0.25-0.25
					c0.14,0,0.25,0.11,0.25,0.25V209.48z"/>
				<path class="st11" d="M53.93,212.64c0,0.14-0.11,0.25-0.25,0.25c-0.14,0-0.25-0.11-0.25-0.25v-2.28c0-0.14,0.11-0.25,0.25-0.25
					c0.14,0,0.25,0.11,0.25,0.25V212.64z"/>
				<path class="st11" d="M53.93,215.79c0,0.14-0.11,0.25-0.25,0.25c-0.14,0-0.25-0.11-0.25-0.25v-2.28c0-0.14,0.11-0.25,0.25-0.25
					c0.14,0,0.25,0.11,0.25,0.25V215.79z"/>
				<path class="st11" d="M53.93,218.95c0,0.14-0.11,0.25-0.25,0.25c-0.14,0-0.25-0.11-0.25-0.25v-2.28c0-0.14,0.11-0.25,0.25-0.25
					c0.14,0,0.25,0.11,0.25,0.25V218.95z"/>
				<path class="st11" d="M53.93,222.11c0,0.14-0.11,0.25-0.25,0.25c-0.14,0-0.25-0.11-0.25-0.25v-2.28c0-0.14,0.11-0.25,0.25-0.25
					c0.14,0,0.25,0.11,0.25,0.25V222.11z"/>
				<path class="st11" d="M53.93,225.26c0,0.14-0.11,0.25-0.25,0.25c-0.14,0-0.25-0.11-0.25-0.25v-2.28c0-0.14,0.11-0.25,0.25-0.25
					c0.14,0,0.25,0.11,0.25,0.25V225.26z"/>
				<path class="st11" d="M53.93,228.42c0,0.14-0.11,0.25-0.25,0.25c-0.14,0-0.25-0.11-0.25-0.25v-2.28c0-0.14,0.11-0.25,0.25-0.25
					c0.14,0,0.25,0.11,0.25,0.25V228.42z"/>
				<path class="st11" d="M53.93,231.57c0,0.14-0.11,0.25-0.25,0.25c-0.14,0-0.25-0.11-0.25-0.25v-2.28c0-0.14,0.11-0.25,0.25-0.25
					c0.14,0,0.25,0.11,0.25,0.25V231.57z"/>
				<path class="st11" d="M53.93,234.73c0,0.14-0.11,0.25-0.25,0.25c-0.14,0-0.25-0.11-0.25-0.25v-2.28c0-0.14,0.11-0.25,0.25-0.25
					c0.14,0,0.25,0.11,0.25,0.25V234.73z"/>
			</g>
			<circle class="st10" cx="53.68" cy="188.98" r="1.63"/>
		</g>
		<path class="st9" d="M251.19,209.21c-2.32,3.15-6.37,5.13-10.71,5.09c-4.34,0.04-8.39-1.94-10.71-5.09l-1.93,1.93v-6.32h6.32
			l-1.74,1.74c1.41,2.35,3.78,3.97,6.48,4.43v-9.56c-2.79-0.71-4.74-3.22-4.74-6.1c0.08-3.49,2.98-6.25,6.47-6.17
			c3.37,0.08,6.09,2.8,6.17,6.17c0,2.88-1.95,5.38-4.74,6.1v9.56c2.7-0.47,5.07-2.09,6.48-4.43l-1.74-1.74h6.32v6.32L251.19,209.21z
			 M243.64,195.33c0-1.75-1.42-3.16-3.16-3.16c-1.75,0-3.16,1.42-3.16,3.16l0,0c0,1.75,1.42,3.16,3.16,3.16
			C242.22,198.49,243.64,197.08,243.64,195.33z"/>
		<g>
			<path class="st0" d="M280.93,250v-24.38c-6.55,0-6.55,4.69-13.1,4.69c-6.55,0-6.55-4.69-13.1-4.69c-6.55,0-6.55,4.69-13.1,4.69
				c-6.55,0-6.55-4.69-13.1-4.69s-6.55,4.69-13.1,4.69c-6.55,0-6.55-4.69-13.1-4.69c-6.55,0-6.55,4.69-13.1,4.69
				c-6.55,0-6.55-4.69-13.1-4.69c-6.55,0-6.55,4.69-13.1,4.69c-6.55,0-6.55-4.69-13.1-4.69s-6.55,4.69-13.1,4.69
				c-6.55,0-6.55-4.69-13.1-4.69c-6.55,0-6.55,4.69-13.1,4.69c-6.55,0-6.55-4.69-13.1-4.69c-6.55,0-6.55,4.69-13.1,4.69
				c-6.55,0-6.55-4.69-13.1-4.69c-6.55,0-6.55,4.69-13.1,4.69c-6.55,0-6.55-4.69-13.1-4.69c-6.55,0-6.55,4.69-13.1,4.69
				c-6.55,0-6.55-4.69-13.1-4.69V250H280.93z"/>
			<path class="st1" d="M280.93,250v-13.46c-6.55,0-6.55,4.69-13.1,4.69c-6.55,0-6.55-4.69-13.1-4.69c-6.55,0-6.55,4.69-13.1,4.69
				c-6.55,0-6.55-4.69-13.1-4.69s-6.55,4.69-13.1,4.69c-6.55,0-6.55-4.69-13.1-4.69c-6.55,0-6.55,4.69-13.1,4.69
				c-6.55,0-6.55-4.69-13.1-4.69c-6.55,0-6.55,4.69-13.1,4.69c-6.55,0-6.55-4.69-13.1-4.69s-6.55,4.69-13.1,4.69
				c-6.55,0-6.55-4.69-13.1-4.69c-6.55,0-6.55,4.69-13.1,4.69c-6.55,0-6.55-4.69-13.1-4.69c-6.55,0-6.55,4.69-13.1,4.69
				c-6.55,0-6.55-4.69-13.1-4.69c-6.55,0-6.55,4.69-13.1,4.69c-6.55,0-6.55-4.69-13.1-4.69c-6.55,0-6.55,4.69-13.1,4.69
				c-6.55,0-6.55-4.69-13.1-4.69V250H280.93z"/>
		</g>
		<g>
			<g>
				<path class="st13" d="M98.73,89.32c0,0.72-0.58,1.3-1.3,1.3c-0.72,0-1.3-0.58-1.3-1.3c0-0.72,0.58-1.3,1.3-1.3v-2.2h-1.01v1.47
					c-0.75,0.37-1.27,1.14-1.27,2.04c0,1.26,1.02,2.28,2.28,2.28c1.26,0,2.28-1.02,2.28-2.28H98.73z"/>
				<rect x="93.65" y="57.79" class="st13" width="1.15" height="23.12"/>
				<rect x="98.35" y="57.79" class="st13" width="1.15" height="23.12"/>
				<path class="st14" d="M100.34,82.66c0,2.32-1.66,3.4-3.71,3.4c-2.05,0-3.71-1.08-3.71-3.4c0-3.55,2.14-6.48,3.71-6.48
					C98.2,76.18,100.34,79.11,100.34,82.66z"/>
			</g>
			<g>
				<polygon class="st15" points="99.06,59.43 6.92,85.11 6.92,73.86 97.73,50.7 				"/>
			</g>
			<path class="st16" d="M57.12,61.06L54.2,71.93l6.64-1.85l2.87-10.7L57.12,61.06z M69.83,57.82l-2.83,10.55l6.64-1.85l2.78-10.38
				L69.83,57.82z M82.55,54.57l-2.74,10.22l6.64-1.85l2.69-10.05L82.55,54.57z M95.27,51.33l-2.65,9.89l6.44-1.8l-1.34-8.72
				L95.27,51.33z M18.96,70.79l-3.18,11.86l6.64-1.85l3.13-11.69L18.96,70.79z M6.92,73.86v11.26l2.69-0.75l3.22-12.01L6.92,73.86z
				 M44.4,64.3l-3,11.2l6.64-1.85l2.96-11.03L44.4,64.3z M31.68,67.55l-3.09,11.53l6.64-1.85l3.04-11.36L31.68,67.55z"/>
			<polygon class="st14" points="89.46,51.66 98.4,50 100.51,60.84 97.27,61.06 96.64,59.4 91.72,54.62 89.99,54.59 			"/>
			<g>
				<g>
					<polyline class="st17" points="87.86,107.02 96.68,97.19 98.24,97.19 107.06,107.02 					"/>
					<line class="st17" x1="97.99" y1="97.19" x2="97.99" y2="90.34"/>
					<line class="st17" x1="96.94" y1="97.19" x2="96.94" y2="90.34"/>
				</g>
				<g>
					<path class="st18" d="M86.74,108.21v20.28h1.16v-20.28H86.74z M108.18,108.21h-1.16v20.28h1.16V108.21z M106.88,128.64H88.05
						v1.16h18.83V128.64z M106.88,108.07v-1.16H88.05v1.16"/>
					<rect x="87.9" y="108.07" class="st11" width="19.12" height="20.57"/>
					<rect x="87.99" y="108.15" class="st18" width="18.95" height="20.4"/>
					<g>
						<g>
							<g>
								<polygon class="st19" points="96.6,114.05 96.6,115.6 96.31,115.31 96.31,114.34 								"/>
								<polygon class="st20" points="88.86,115.31 88.57,115.6 88.57,114.05 88.86,114.34 								"/>
								<polygon class="st21" points="96.6,114.05 96.31,114.34 88.86,114.34 88.57,114.05 								"/>
								<polygon class="st20" points="96.6,115.6 88.57,115.6 88.86,115.31 96.31,115.31 								"/>
							</g>
							<g>
								<polygon class="st19" points="96.6,117.28 96.6,118.83 96.31,118.54 96.31,117.57 								"/>
								<polygon class="st20" points="88.86,118.54 88.57,118.83 88.57,117.28 88.86,117.57 								"/>
								<polygon class="st21" points="96.6,117.28 96.31,117.57 88.86,117.57 88.57,117.28 								"/>
								<polygon class="st20" points="96.6,118.83 88.57,118.83 88.86,118.54 96.31,118.54 								"/>
							</g>
							<g>
								<polygon class="st19" points="96.6,120.51 96.6,122.06 96.31,121.77 96.31,120.8 								"/>
								<polygon class="st20" points="88.86,121.77 88.57,122.06 88.57,120.51 88.86,120.8 								"/>
								<polygon class="st21" points="96.6,120.51 96.31,120.8 88.86,120.8 88.57,120.51 								"/>
								<polygon class="st20" points="96.6,122.06 88.57,122.06 88.86,121.77 96.31,121.77 								"/>
							</g>
							<g>
								<polygon class="st19" points="96.6,109.76 96.6,111.3 96.31,111.01 96.31,110.05 								"/>
								<polygon class="st20" points="88.86,111.01 88.57,111.3 88.57,109.76 88.86,110.05 								"/>
								<polygon class="st21" points="96.6,109.76 96.31,110.05 88.86,110.05 88.57,109.76 								"/>
								<polygon class="st20" points="96.6,111.3 88.57,111.3 88.86,111.01 96.31,111.01 								"/>
							</g>
							<g>
								<polygon class="st19" points="96.6,124.85 96.6,126.39 96.31,126.1 96.31,125.14 								"/>
								<polygon class="st20" points="88.86,126.1 88.57,126.39 88.57,124.85 88.86,125.14 								"/>
								<polygon class="st21" points="96.6,124.85 96.31,125.14 88.86,125.14 88.57,124.85 								"/>
								<polygon class="st20" points="96.6,126.39 88.57,126.39 88.86,126.1 96.31,126.1 								"/>
							</g>
						</g>
						<g>
							<g>
								<polygon class="st19" points="106.35,114.05 106.35,115.6 106.06,115.31 106.06,114.34 								"/>
								<polygon class="st20" points="98.62,115.31 98.33,115.6 98.33,114.05 98.62,114.34 								"/>
								<polygon class="st21" points="106.35,114.05 106.06,114.34 98.62,114.34 98.33,114.05 								"/>
								<polygon class="st20" points="106.35,115.6 98.33,115.6 98.62,115.31 106.06,115.31 								"/>
							</g>
							<g>
								<polygon class="st19" points="106.35,117.28 106.35,118.83 106.06,118.54 106.06,117.57 								"/>
								<polygon class="st20" points="98.62,118.54 98.33,118.83 98.33,117.28 98.62,117.57 								"/>
								<polygon class="st21" points="106.35,117.28 106.06,117.57 98.62,117.57 98.33,117.28 								"/>
								<polygon class="st20" points="106.35,118.83 98.33,118.83 98.62,118.54 106.06,118.54 								"/>
							</g>
							<g>
								<polygon class="st19" points="106.35,120.51 106.35,122.06 106.06,121.77 106.06,120.8 								"/>
								<polygon class="st20" points="98.62,121.77 98.33,122.06 98.33,120.51 98.62,120.8 								"/>
								<polygon class="st21" points="106.35,120.51 106.06,120.8 98.62,120.8 98.33,120.51 								"/>
								<polygon class="st20" points="106.35,122.06 98.33,122.06 98.62,121.77 106.06,121.77 								"/>
							</g>
							<g>
								<polygon class="st19" points="106.35,109.76 106.35,111.3 106.06,111.01 106.06,110.05 								"/>
								<polygon class="st20" points="98.62,111.01 98.33,111.3 98.33,109.76 98.62,110.05 								"/>
								<polygon class="st21" points="106.35,109.76 106.06,110.05 98.62,110.05 98.33,109.76 								"/>
								<polygon class="st20" points="106.35,111.3 98.33,111.3 98.62,111.01 106.06,111.01 								"/>
							</g>
							<g>
								<polygon class="st19" points="106.35,124.85 106.35,126.39 106.06,126.1 106.06,125.14 								"/>
								<polygon class="st20" points="98.62,126.1 98.33,126.39 98.33,124.85 98.62,125.14 								"/>
								<polygon class="st21" points="106.35,124.85 106.06,125.14 98.62,125.14 98.33,124.85 								"/>
								<polygon class="st20" points="106.35,126.39 98.33,126.39 98.62,126.1 106.06,126.1 								"/>
							</g>
						</g>
					</g>
					<g>
						<g>
							<rect x="106.88" y="106.76" class="st21" width="1.45" height="1.45"/>
							<path class="st11" d="M107.31,107.49c0,0.16,0.13,0.29,0.29,0.29c0.16,0,0.29-0.13,0.29-0.29c0-0.16-0.13-0.29-0.29-0.29
								C107.44,107.2,107.31,107.33,107.31,107.49z"/>
						</g>
						<g>
							<rect x="86.6" y="106.76" class="st21" width="1.45" height="1.45"/>
							<path class="st11" d="M87.03,107.49c0,0.16,0.13,0.29,0.29,0.29c0.16,0,0.29-0.13,0.29-0.29c0-0.16-0.13-0.29-0.29-0.29
								C87.16,107.2,87.03,107.33,87.03,107.49z"/>
						</g>
						<g>
							<rect x="106.88" y="128.49" class="st21" width="1.45" height="1.45"/>
							<path class="st11" d="M107.31,129.22c0,0.16,0.13,0.29,0.29,0.29c0.16,0,0.29-0.13,0.29-0.29c0-0.16-0.13-0.29-0.29-0.29
								C107.44,128.93,107.31,129.06,107.31,129.22z"/>
						</g>
						<g>
							<rect x="86.6" y="128.49" class="st21" width="1.45" height="1.45"/>
							<path class="st11" d="M87.03,129.22c0,0.16,0.13,0.29,0.29,0.29c0.16,0,0.29-0.13,0.29-0.29c0-0.16-0.13-0.29-0.29-0.29
								C87.16,128.93,87.03,129.06,87.03,129.22z"/>
						</g>
					</g>
					<rect x="97.4" y="108.07" class="st11" width="0.12" height="20.57"/>
					<path class="st21" d="M107.59,114.88l-1.11,0.06v0.6l1.11,0.06V114.88z M107.59,120.51l-1.11,0.06v0.6l1.11,0.06V120.51z
						 M107.59,125.26l-1.11,0.06v0.6l1.11,0.06V125.26z M107.59,110.18l-1.11,0.06v0.6l1.11,0.06V110.18z M87.33,110.18v0.71
						l1.11-0.06v-0.6L87.33,110.18z M88.44,125.32l-1.11-0.06v0.71l1.11-0.06V125.32z M88.44,114.99l-1.11-0.06v0.71l1.11-0.06
						V114.99z M88.44,120.61l-1.11-0.06v0.71l1.11-0.06V120.61z"/>
					<g>
						<path class="st22" d="M99.96,122.86h2.09v6.35h0.23v-21.75h-0.23v15.1h-2.09V122.86z M98.97,107.46h-0.23v21.75h0.23v-4.92
							h2.09v-0.29h-2.09V107.46z M92.64,107.46v21.75h0.23v-6.35h2.09v-0.29h-2.09v-15.1H92.64z M95.95,124.01h-2.09v0.29h2.09v4.92
							h0.23v-4.68l0,0v-0.29l0,0v-16.77h-0.23V124.01z"/>
						<path class="st23" d="M99.29,128.78h-0.87v0.29h0.87V128.78z M100.13,123.72h-0.29v0.87h0.29V123.72z M99.29,126.92h-0.87v0.7
							h0.87V126.92z M99.29,108.68h-0.87v0.7h0.87V108.68z M99.29,119.56h-0.87v0.29h0.87V119.56z M102.6,126.92h-0.87v0.7h0.87
							V126.92z M102.6,128.78h-0.87v0.29h0.87V128.78z M102.6,119.56h-0.87v0.29h0.87V119.56z M102.6,107.61h-0.87v0.29h0.87V107.61
							z M102.6,108.68h-0.87v0.7h0.87V108.68z M101.18,122.28h-0.29v0.87h0.29V122.28z M99.29,107.61h-0.87v0.29h0.87V107.61z
							 M96.51,128.78h-0.87v0.29h0.87V128.78z M93.19,128.78h-0.87v0.29h0.87V128.78z M93.19,119.56h-0.87v0.29h0.87V119.56z
							 M92.32,107.61v0.29h0.87v-0.29H92.32z M94.03,122.28h-0.29v0.87h0.29V122.28z M93.19,108.68h-0.87v0.7h0.87V108.68z
							 M93.19,126.92h-0.87v0.7h0.87V126.92z M96.51,126.92h-0.87v0.7h0.87V126.92z M96.51,119.56h-0.87v0.29h0.87V119.56z
							 M95.08,123.72h-0.29v0.87h0.29V123.72z M96.51,107.61h-0.87v0.29h0.87V107.61z M96.51,108.68h-0.87v0.7h0.87V108.68z"/>
					</g>
				</g>
			</g>
		</g>
	</g>
	<g>
		<text transform="matrix(1 0 0 1 118.2242 209.9009)" class="st9 st24 st25 st26">SLIM</text>
		<g>
			<path class="st9" d="M194.87,206.17c0-1.75,1.42-3.17,3.17-3.17c1.75,0,3.17,1.42,3.17,3.17c0,1.75-1.42,3.17-3.17,3.17
				C196.29,209.34,194.87,207.92,194.87,206.17z"/>
			<path class="st9" d="M181.52,206.17c0-1.75,1.42-3.17,3.17-3.17c1.75,0,3.17,1.42,3.17,3.17c0,1.75-1.42,3.17-3.17,3.17
				C182.94,209.34,181.52,207.92,181.52,206.17z"/>
			<path class="st9" d="M168.16,206.17c0-1.75,1.42-3.17,3.17-3.17c1.75,0,3.17,1.42,3.17,3.17c0,1.75-1.42,3.17-3.17,3.17
				C169.59,209.34,168.16,207.92,168.16,206.17z"/>
		</g>
		<g>
			<path class="st9" d="M105.81,206.17c0-1.75,1.42-3.17,3.17-3.17s3.17,1.42,3.17,3.17c0,1.75-1.42,3.17-3.17,3.17
				S105.81,207.92,105.81,206.17z"/>
			<path class="st9" d="M92.46,206.17c0-1.75,1.42-3.17,3.17-3.17c1.75,0,3.17,1.42,3.17,3.17c0,1.75-1.42,3.17-3.17,3.17
				C93.88,209.34,92.46,207.92,92.46,206.17z"/>
			<path class="st9" d="M79.11,206.17c0-1.75,1.42-3.17,3.17-3.17c1.75,0,3.17,1.42,3.17,3.17c0,1.75-1.42,3.17-3.17,3.17
				C80.53,209.34,79.11,207.92,79.11,206.17z"/>
		</g>
	</g>
</g>
</svg>
