<?xml version="1.0" encoding="UTF-8"?>
<svg width="1000px" height="1000px" viewBox="0 0 1000 1000" version="1.1" xmlns="http://www.w3.org/2000/svg" xmlns:xlink="http://www.w3.org/1999/xlink">
    <title>Track Your Parcel</title>
    <defs>
        <linearGradient x1="-86.5266921%" y1="50%" x2="74.6743016%" y2="50%" id="linearGradient-1">
            <stop stop-color="#1B345B" offset="0%"></stop>
            <stop stop-color="#20B7AF" offset="100%"></stop>
        </linearGradient>
        <rect id="path-2" x="0.865800866" y="0.0324096581" width="382.040419" height="735.444591"></rect>
        <linearGradient x1="53.159838%" y1="113.533538%" x2="43.3774241%" y2="-50.0859409%" id="linearGradient-4">
            <stop stop-color="#1B1D31" offset="0%"></stop>
            <stop stop-color="#004164" offset="100%"></stop>
        </linearGradient>
        <linearGradient x1="44.8943574%" y1="54.3379402%" x2="-1.88274491%" y2="49.9996038%" id="linearGradient-5">
            <stop stop-color="#1B345B" offset="0%"></stop>
            <stop stop-color="#20B7AF" offset="100%"></stop>
        </linearGradient>
        <linearGradient x1="-9.30508223%" y1="49.9992809%" x2="651.681731%" y2="49.9992809%" id="linearGradient-6">
            <stop stop-color="#1B345B" offset="0%"></stop>
            <stop stop-color="#20B7AF" offset="100%"></stop>
        </linearGradient>
        <linearGradient x1="-112.602698%" y1="50%" x2="164.67198%" y2="50%" id="linearGradient-7">
            <stop stop-color="#04AFA5" offset="0%"></stop>
            <stop stop-color="#FFFFFF" offset="100%"></stop>
        </linearGradient>
        <path d="M63.6202283,0.673727342 L377.855013,0.673727342 L377.855013,736.118318 L63.6202283,736.118318 C28.6397649,736.118318 0.28249647,707.76105 0.28249647,672.780587 L0.28249647,64.0114591 C0.28249647,29.0309958 28.6397649,0.673727342 63.6202283,0.673727342 Z" id="path-8"></path>
        <linearGradient x1="103.323092%" y1="49.9984414%" x2="38.764429%" y2="49.9984414%" id="linearGradient-10">
            <stop stop-color="#1B345B" offset="0%"></stop>
            <stop stop-color="#20B7AF" offset="100%"></stop>
        </linearGradient>
        <linearGradient x1="50.0014933%" y1="-19.4639428%" x2="50.0014933%" y2="100.064528%" id="linearGradient-11">
            <stop stop-color="#FFBB00" offset="0%"></stop>
            <stop stop-color="#FFFF95" offset="100%"></stop>
        </linearGradient>
        <rect id="path-12" x="0.895895548" y="0.0324096581" width="387.561636" height="735.444591"></rect>
        <linearGradient x1="95.4337935%" y1="49.9984414%" x2="-1.88274491%" y2="49.9984414%" id="linearGradient-14">
            <stop stop-color="#1B345B" offset="0%"></stop>
            <stop stop-color="#20B7AF" offset="100%"></stop>
        </linearGradient>
        <linearGradient x1="49.908856%" y1="101.526157%" x2="50.0936074%" y2="0.518684598%" id="linearGradient-15">
            <stop stop-color="#1B1D31" offset="0%"></stop>
            <stop stop-color="#004164" offset="100%"></stop>
        </linearGradient>
        <linearGradient x1="-83.8566876%" y1="50.8303548%" x2="633.983728%" y2="50.8303548%" id="linearGradient-16">
            <stop stop-color="#1B345B" offset="0%"></stop>
            <stop stop-color="#20B7AF" offset="100%"></stop>
        </linearGradient>
        <linearGradient x1="0.443025696%" y1="50.8416987%" x2="410.827344%" y2="50.8416987%" id="linearGradient-17">
            <stop stop-color="#1B345B" offset="0%"></stop>
            <stop stop-color="#20B7AF" offset="100%"></stop>
        </linearGradient>
        <linearGradient x1="226.242391%" y1="50%" x2="-136.668511%" y2="50%" id="linearGradient-18">
            <stop stop-color="#1B1D31" offset="0%"></stop>
            <stop stop-color="#006088" offset="100%"></stop>
        </linearGradient>
        <linearGradient x1="166.334694%" y1="50%" x2="-191.640816%" y2="50%" id="linearGradient-19">
            <stop stop-color="#FFDDBB" offset="0%"></stop>
            <stop stop-color="#FF786E" offset="100%"></stop>
        </linearGradient>
        <linearGradient x1="49.9526963%" y1="264.655172%" x2="49.9526963%" y2="7.36074271%" id="linearGradient-20">
            <stop stop-color="#FFA48F" offset="0%"></stop>
            <stop stop-color="#FFFFFF" offset="100%"></stop>
        </linearGradient>
        <linearGradient x1="0%" y1="100%" x2="325.212686%" y2="100%" id="linearGradient-21">
            <stop stop-color="#04AFA5" offset="0%"></stop>
            <stop stop-color="#FFFFFF" offset="100%"></stop>
        </linearGradient>
        <linearGradient x1="-107.283491%" y1="50.8180586%" x2="410.455374%" y2="50.1872835%" id="linearGradient-22">
            <stop stop-color="#04AFA5" offset="0%"></stop>
            <stop stop-color="#FFFFFF" offset="100%"></stop>
        </linearGradient>
        <linearGradient x1="-107.283491%" y1="51.5646805%" x2="410.455374%" y2="50.3582126%" id="linearGradient-23">
            <stop stop-color="#04AFA5" offset="0%"></stop>
            <stop stop-color="#FFFFFF" offset="100%"></stop>
        </linearGradient>
    </defs>
    <g id="Track-Your-Parcel" stroke="none" stroke-width="1" fill="none" fill-rule="evenodd">
        <g transform="translate(52.000000, 87.000000)">
            <g id="phone_map" transform="translate(0.692178, 0.511679)">
                <g id="map-2" transform="translate(299.138968, 70.504966)">
                    <mask id="mask-3" fill="white">
                        <use xlink:href="#path-2"></use>
                    </mask>
                    <use id="Mask" fill="url(#linearGradient-1)" fill-rule="nonzero" xlink:href="#path-2"></use>
                    <g mask="url(#mask-3)">
                        <g transform="translate(-368.627451, -5.882353)">
                            <polygon id="Path" fill="url(#linearGradient-4)" fill-rule="nonzero" opacity="0.2" points="530.870199 432.402713 542.64185 386.404148 720.362525 422.28627 751.927217 289.395097 663.738223 267.669051 634.835752 220.084728 493.934764 182.674723 429.022849 414.866773"></polygon>
                            <path d="M1473.91023,238.928629 L1473.91023,226.960206 L1301.16675,188.67051 L1346.87594,0.567169016 L1334.84964,0.567169016 L1289.70762,186.147186 L1104.86839,145.195268 L1142.66037,0.567169016 L1130.63407,0.567169016 L1093.50186,142.695095 L912.933769,102.715466 L928.571429,56.3580804 L929.451119,56.5317036 L930.689631,50.0729217 L947.39218,0.590318772 L935.111235,0.590318772 L920.81626,42.9543718 L758.76797,11.7948006 L762.738153,0.590318772 L750.306734,0.590318772 L690.117369,170.567401 L470.252564,122.520082 L516.725699,0.590318772 L504.213256,0.590318772 L458.700836,119.996759 L207.08614,65.0160891 L228.499664,0.590318772 L216.183994,0.590318772 L195.615436,62.5043406 L120.262981,46.0448642 C96.9200532,40.9485199 73.4543389,54.115973 65.6411325,76.6951409 L36.8891358,159.849064 L0.879690719,153.297683 L0.879690719,165.185082 L152.313818,192.721717 L82.7603769,401.914485 C55.1274291,407.226388 27.7955135,413.999479 0.879690719,422.205246 L0.879690719,434.428317 C53.7569832,418.070423 108.207299,407.316146 163.333102,402.342755 L114.417668,601.094983 L0.879690719,584.253536 L0.879690719,596.106211 L111.616547,612.530963 L79.4383869,743.222909 L91.4415353,743.222909 L123.191425,614.244045 L232.655045,630.448874 L204.944788,743.188184 L216.982661,743.188184 L244.264648,632.173531 L284.776721,638.192467 L375.604787,651.665625 L375.604787,651.665625 L570.398407,680.60282 L554.5061,743.234484 L566.567123,743.234484 L582.019585,682.327476 L815.426997,716.947936 L809.489085,743.234484 L821.469084,743.234484 L827.01345,718.672593 L992.638378,743.234484 L1072.29669,743.234484 L829.594648,707.225039 L850.950297,612.565687 L1086.53379,653.610204 L1088.70986,653.992175 L1241.68345,560.687085 L1329.18953,575.734426 L1291.2818,743.176609 L1303.2618,743.176609 L1340.72968,577.725305 L1473.91023,600.643563 L1473.91023,588.802463 L1343.31088,566.312475 L1390.20071,359.23791 L1473.91023,442.114036 L1473.91023,425.666134 L1288.28391,241.914948 L1298.44665,200.094914 L1473.91023,238.928629 Z M1101.92837,156.538649 L1286.96437,197.525291 L1277.40352,236.879876 L1090.74704,199.423571 L1101.92837,156.538649 Z M1049.7141,310.206727 L998.310068,506.979651 L797.509086,472.370766 L1049.7141,310.206727 Z M856.205292,420.769961 L898.291548,269.903003 L878.533231,223.707665 L1061.833,263.768317 L1054.05468,293.538903 L856.205292,420.769961 Z M1087.79545,210.743802 L1274.67185,248.234831 L1203.23171,542.236729 L1009.8618,508.924231 L1087.79545,210.743802 Z M1090.53869,154.0269 L1064.80774,252.448087 L876.357154,211.264671 L909.229808,113.850499 L1090.53869,154.0269 Z M754.786212,22.941408 L917.04285,54.1935783 L901.509364,100.226868 L740.097692,64.4141954 L754.786212,22.941408 Z M736.162233,75.5145033 L897.747529,111.304026 L864.863301,208.752923 L701.657523,173.079149 L736.162233,75.5145033 Z M203.370604,76.1742714 L453.735213,130.877144 C450.048884,136.336136 444.673314,140.434906 438.433225,142.544621 L363.497465,168.009353 C350.72491,172.361253 340.82063,182.584193 336.875246,195.488113 L331.423478,213.417598 L167.650531,183.623863 L203.370604,76.1742714 Z M48.5218881,161.967266 L76.6719911,80.5148506 C82.5550494,63.5335434 100.203543,53.6305013 117.762808,57.4576938 L191.842026,73.6625229 L155.959905,181.517235 L48.5218881,161.967266 Z M95.8747135,399.495335 L163.923421,194.828345 L327.974165,224.656805 L278.086441,388.533926 C217.130122,385.288758 156.002395,388.966052 95.8747135,399.495335 Z M363.914161,638.099868 L271.836007,624.441512 L235.490891,619.047619 L235.490891,619.047619 L126.02727,602.84279 L175.625622,401.347316 C238.494341,396.588194 301.70671,399.370518 363.914161,409.634928 L363.914161,638.099868 Z M370.754914,398.905017 C344.048511,394.317418 317.124875,391.099253 290.08959,389.263143 L348.033428,198.879552 C350.876405,189.57918 358.010385,182.208405 367.213001,179.063361 L442.160335,153.59863 C452.303436,150.166835 460.740234,142.969036 465.726787,133.493067 L864.539204,220.640322 L885.929578,270.701669 L841.412598,430.28451 L780.517166,469.442322 L464.4304,415.040396 L468.67838,399.842582 L539.84073,365.673542 L703.752575,400.016205 L727.44635,303.944718 L647.938514,285.424914 L617.843832,240.676436 L508.831632,212.977753 L452.843947,413.037942 L370.754914,398.905017 Z M521.043128,361.726509 L472.880061,384.876265 L481.653819,353.496771 L521.043128,361.726509 Z M484.81376,342.188115 L517.003496,227.156978 L610.644258,250.943353 L640.808389,295.796004 L713.267125,312.660601 L695.117717,386.26525 L484.81376,342.188115 Z M573.292127,669.16684 L375.604787,639.8361 L375.604787,411.602658 L627.624604,454.9853 L573.292127,669.16684 Z M818.008195,705.465657 L584.901729,670.891497 L610.366461,570.57203 L839.433294,610.516934 L818.008195,705.465657 Z M1086.38331,641.722805 L613.23703,559.217075 L639.176332,456.976179 L1224.17066,557.677617 L1086.38331,641.722805 Z M1380.38521,349.549737 L1331.77072,564.333171 L1214.77186,544.192884 L1285.00822,255.133458 L1380.38521,349.549737 Z" id="Shape" fill="url(#linearGradient-5)" fill-rule="nonzero" opacity="0.5"></path>
                            <g id="Group" stroke-width="1" fill="none" fill-rule="evenodd" transform="translate(912.100377, 611.153552)">
                                <path d="M61.8098479,30.8586244 C61.8098479,44.2739079 42.560826,69.8312383 34.5625854,79.8550825 C33.7346881,80.8954982 32.4776124,81.5016967 31.1479964,81.5016967 C29.8183804,81.5016967 28.5613047,80.8954982 27.7334074,79.8550825 C19.7467417,69.8312383 0.486144871,44.2739079 0.486144871,30.8586244 C0.486144871,13.9181588 14.2191056,0.185198046 31.1595713,0.185198046 C48.1000369,0.185198046 61.8329977,13.9181588 61.8329977,30.8586244 L61.8098479,30.8586244 Z" id="Path" stroke="#FFFFFF" stroke-width="7.84313725" fill="#508FFF" fill-rule="nonzero"></path>
                                <path d="M44.6327291,29.6548371 C44.4775671,27.9730267 43.0691344,26.6848872 41.3801884,26.6800935 L39.9101789,26.6800935 L39.9101789,25.592055 C39.9101789,20.7528352 35.9872162,16.8298724 31.1479964,16.8298724 C26.3087766,16.8298724 22.3858138,20.7528352 22.3858138,25.592055 L22.3858138,26.6800935 L20.9273792,26.6800935 C19.234172,26.6739074 17.8194438,27.9678048 17.6748385,29.6548371 L16.4363266,43.5446906 C16.3587164,44.4564827 16.6660428,45.3591714 17.2838931,46.0341894 C17.9017433,46.7092073 18.7737836,47.0950081 19.6888673,47.0981784 L42.6071255,47.0981784 C43.5233609,47.0985366 44.3975619,46.7137933 45.0161861,46.0379297 C45.6348104,45.3620662 45.9408928,44.4573186 45.8596662,43.5446906 L44.6327291,29.6548371 Z M24.1914948,25.592055 C24.1914948,21.7564779 27.3008444,18.6471283 31.1364215,18.6471283 C34.9719986,18.6471283 38.0813482,21.7564779 38.0813482,25.592055 L38.0813482,26.6800935 L24.1914948,26.6800935 L24.1914948,25.592055 Z M31.1364215,40.1648263 C27.169242,40.1584533 23.9547953,36.9440066 23.9484223,32.9768271 L25.7541033,32.9768271 C25.754103,34.8997444 26.779967,36.6765934 28.4452621,37.6380522 C30.1105573,38.5995109 32.1622857,38.5995109 33.8275809,37.6380522 C35.4928761,36.6765934 36.5187401,34.8997444 36.5187397,32.9768271 L38.3359956,32.9768271 C38.3329747,34.8943356 37.5651521,36.731418 36.2027642,38.0807687 C34.8403763,39.4301195 32.9959961,40.1802427 31.0785471,40.1648263 L31.1364215,40.1648263 Z" id="Shape" fill="#FFFFFF" fill-rule="nonzero"></path>
                            </g>
                            <g id="Group" stroke-width="1" fill="none" fill-rule="evenodd" transform="translate(520.869505, 255.804801)">
                                <path d="M61.4973262,31.3679191 C61.4973262,44.7832025 42.2483043,70.3405329 34.2500637,80.3643772 C33.4221664,81.4047929 32.1650907,82.0109914 30.8354747,82.0109914 C29.5058587,82.0109914 28.248783,81.4047929 27.4208857,80.3643772 C19.43422,70.3405329 0.173623168,44.7832025 0.173623168,31.3679191 C0.173623168,14.4274534 13.9065839,0.694492673 30.8470496,0.694492673 C47.7875152,0.694492673 61.520476,14.4274534 61.520476,31.3679191 L61.4973262,31.3679191 Z" id="Path" stroke="#FFFFFF" stroke-width="7.84313725" fill="#FF5267" fill-rule="nonzero"></path>
                                <polygon id="Path" fill="#FFFFFF" fill-rule="nonzero" points="38.3012709 19.9898141 38.3012709 32.5485566 23.3812533 32.5485566 23.3812533 19.9898141 18.7050027 19.9898141 18.7050027 49.7951247 23.3812533 49.7951247 23.3812533 37.2248073 38.3012709 37.2248073 38.3012709 49.7951247 42.9775216 49.7951247 42.9775216 19.9898141"></polygon>
                            </g>
                            <g id="Group" stroke-width="1" fill="none" fill-rule="evenodd" transform="translate(1009.329352, 151.473413)">
                                <path d="M61.8677223,30.7846147 C61.8677223,44.1998981 42.6071255,69.7456536 34.6204598,79.7810728 C33.7878067,80.8178545 32.5298305,81.4210022 31.2000833,81.4210022 C29.8703361,81.4210022 28.61236,80.8178545 27.7797069,79.7810728 C19.7930412,69.7456536 0.532444383,44.1998981 0.532444383,30.7846147 C0.532444383,13.844149 14.2654052,0.111188277 31.2058708,0.111188277 C48.1463364,0.111188277 61.8792972,13.844149 61.8792972,30.7846147 L61.8677223,30.7846147 Z" id="Path" stroke="#FFFFFF" stroke-width="7.84313725" fill="#508FFF" fill-rule="nonzero"></path>
                            </g>
                            <g id="Group" stroke-width="1" fill="none" fill-rule="evenodd" transform="translate(94.913999, 81.024145)">
                                <path d="M61.7751233,30.8007501 C61.7751233,44.2160335 42.5261013,69.761789 34.5278607,79.7972081 C33.6974939,80.8336512 32.4413242,81.4368465 31.1132718,81.4368465 C29.7852193,81.4368465 28.5290497,80.8336512 27.6986828,79.7972081 C19.7004422,69.761789 0.451420238,44.2160335 0.451420238,30.8007501 C0.451420238,13.8602844 14.184381,0.127323657 31.1248466,0.127323657 C48.0653123,0.127323657 61.798273,13.8602844 61.798273,30.8007501 L61.7751233,30.8007501 Z" id="Path" stroke="#FFFFFF" stroke-width="7.84313725" fill="#508FFF" fill-rule="nonzero"></path>
                                <path d="M44.5980045,29.5969628 C44.4428425,27.9151524 43.0344098,26.6270128 41.3454638,26.6222191 L39.8754543,26.6222191 L39.8754543,25.5341806 C39.8754543,20.6949608 35.9524916,16.7719981 31.1132718,16.7719981 C26.274052,16.7719981 22.3510892,20.6949608 22.3510892,25.5341806 L22.3510892,26.6222191 L20.8347802,26.6222191 C19.1458342,26.6270128 17.7374015,27.9151524 17.5822395,29.5969628 L16.3553025,43.4868162 C16.2776922,44.3986083 16.5850186,45.3012971 17.2028689,45.976315 C17.8207192,46.6513329 18.6927595,47.0371337 19.6078431,47.040304 L42.5261013,47.040304 C43.4423368,47.0406622 44.3165377,46.6559189 44.935162,45.9800553 C45.5537863,45.3041918 45.8598687,44.3994442 45.778642,43.4868162 L44.5980045,29.5969628 Z M24.1567701,25.5341806 C24.1567701,21.6986035 27.2661198,18.5892539 31.1016969,18.5892539 C34.937274,18.5892539 38.0466236,21.6986035 38.0466236,25.5341806 L38.0466236,26.6222191 L24.1567701,26.6222191 L24.1567701,25.5341806 Z M31.0438225,40.1069519 C27.0721286,40.1005665 23.8558233,36.8790769 23.8558233,32.9073778 L25.6615043,32.9073778 C25.6615041,34.830295 26.6873681,36.6071439 28.3526632,37.5686025 C30.0179584,38.5300612 32.0696866,38.5300612 33.7349817,37.5686025 C35.4002768,36.6071439 36.4261409,34.830295 36.4261407,32.9073778 L38.197097,32.9073778 C38.197097,36.8655816 35.0019445,40.0814972 31.0438225,40.1069519 L31.0438225,40.1069519 Z" id="Shape" fill="#FFFFFF" fill-rule="nonzero"></path>
                            </g>
                            <g id="Group" stroke-width="1" fill="none" fill-rule="evenodd" transform="translate(183.883071, 410.908165)">
                                <rect id="Rectangle" stroke="#FFFFFF" stroke-width="7.84313725" fill="#508FFF" fill-rule="nonzero" x="0.0648887654" y="0.694492673" width="63.3956062" height="63.3956062" rx="25.745098"></rect>
                                <path d="M40.993657,12.8828391 L22.5433016,12.8828391 C18.0684616,12.8828391 14.4408591,16.5104136 14.4408591,20.9852536 L14.4408591,45.1420238 C14.4378075,45.7794855 14.6888823,46.3918952 15.1385537,46.8437389 C15.588225,47.2955825 16.1994176,47.5496058 16.8368868,47.5495984 L18.1795727,47.5495984 L18.1795727,50.1307961 C18.1795727,50.770059 18.6977976,51.2882839 19.3370604,51.2882839 L24.4647313,51.2882839 C25.1039942,51.2882839 25.6222191,50.770059 25.6222191,50.1307961 L25.6222191,47.5495984 L37.9378892,47.5495984 L37.9378892,50.1307961 C37.9378892,50.770059 38.4561141,51.2882839 39.095377,51.2882839 L44.1998981,51.2882839 C44.839161,51.2882839 45.3573859,50.770059 45.3573859,50.1307961 L45.3573859,47.5495984 L46.6884969,47.5495984 C47.3270254,47.5495984 47.9394014,47.2959439 48.3909092,46.8444361 C48.842417,46.3929283 49.0961046,45.7805522 49.0961046,45.1420238 L49.0961046,21.0084034 C49.1022227,18.8555012 48.2512941,16.7886682 46.7311294,15.2641602 C45.2109648,13.7396522 43.1465679,12.8828391 40.993657,12.8828391 L40.993657,12.8828391 Z M20.992268,42.618724 C19.8348707,42.6233862 18.7888303,41.9297933 18.3426629,40.8618396 C17.8964954,39.793886 18.1382336,38.5622877 18.954982,37.7422191 C19.7717304,36.9221506 21.0023379,36.6754181 22.0720928,37.1172494 C23.1418477,37.5590807 23.8396879,38.6022988 23.8396879,39.7597055 C23.8396879,41.3341755 22.5667251,42.612326 20.992268,42.618724 Z M42.5215408,42.6187004 C40.9425616,42.6187004 39.662546,41.3386848 39.662546,39.7597055 C39.662546,38.1807263 40.9425616,36.9007107 42.5215408,36.9007107 C44.1005201,36.9007107 45.3805357,38.1807263 45.3805357,39.7597055 C45.3805357,41.3341755 44.1075728,42.612326 42.5331157,42.6187004 L42.5215408,42.6187004 Z M45.3805357,32.2707595 L18.1564229,32.2707595 L18.1564229,21.0084034 L45.3921106,21.0084034 L45.3805357,32.2707595 Z" id="Shape" fill="#FFFFFF" fill-rule="nonzero"></path>
                            </g>
                        </g>
                    </g>
                </g>
                <polygon id="Path" fill="url(#linearGradient-6)" fill-rule="nonzero" points="378.12362 736.567424 300.004769 805.981966 300.004769 70.5373753 378.12362 1.1228326"></polygon>
                <g id="map" transform="translate(0.268607, 0.449105)">
                    <mask id="mask-9" fill="white">
                        <use xlink:href="#path-8"></use>
                    </mask>
                    <use id="Mask" fill="url(#linearGradient-7)" fill-rule="nonzero" xlink:href="#path-8"></use>
                    <g mask="url(#mask-9)">
                        <g transform="translate(-555.901961, -2.960784)">
                            <polygon id="Path" fill="url(#linearGradient-4)" fill-rule="nonzero" opacity="0.2" points="530.870199 432.402713 542.64185 386.404148 720.35095 422.28627 751.927217 289.395097 663.738223 267.669051 634.835752 220.084728 493.934764 182.674723 429.022849 414.866773"></polygon>
                            <path d="M1473.91023,238.928629 L1473.91023,226.960206 L1301.16675,188.67051 L1346.87594,0.567169016 L1334.84964,0.567169016 L1289.70762,186.147186 L1104.91469,145.218418 L1142.70667,0.590318772 L1130.63407,0.590318772 L1093.50186,142.695095 L912.933769,102.715466 L928.571429,56.3580804 L929.451119,56.5317036 L930.689631,50.0729217 L947.39218,0.590318772 L935.111235,0.590318772 L920.81626,42.9543718 L758.76797,11.7948006 L762.738153,0.590318772 L750.306734,0.590318772 L690.117369,170.567401 L470.252564,122.520082 L516.725699,0.590318772 L504.213256,0.590318772 L458.700836,119.996759 L207.08614,65.0160891 L228.499664,0.590318772 L216.183994,0.590318772 L195.615436,62.5043406 L120.262981,46.0448642 C96.9200532,40.9485199 73.4543389,54.115973 65.6411325,76.6951409 L36.9007107,159.849064 L0.879690719,153.297683 L0.879690719,165.185082 L152.325393,192.721717 L82.7603769,401.914485 C55.1274291,407.226388 27.7955135,413.999479 0.879690719,422.205246 L0.879690719,434.428317 C53.7569832,418.070423 108.207299,407.316146 163.333102,402.342755 L114.417668,601.094983 L0.879690719,584.253536 L0.879690719,596.106211 L111.616547,612.530963 L79.4383869,743.222909 L91.4415353,743.222909 L123.191425,614.244045 L232.655045,630.448874 L204.944788,743.188184 L216.982661,743.188184 L244.264648,632.173531 L284.776721,638.192467 L375.604787,651.665625 L375.604787,651.665625 L570.398407,680.60282 L554.5061,743.234484 L566.567123,743.234484 L582.019585,682.327476 L815.426997,716.947936 L809.489085,743.234484 L821.469084,743.234484 L827.01345,718.672593 L992.638378,743.234484 L1072.29669,743.234484 L829.594648,707.225039 L850.950297,612.565687 L1086.53379,653.610204 L1088.70986,653.992175 L1241.68345,560.687085 L1329.18953,575.734426 L1291.2818,743.188184 L1303.2618,743.188184 L1340.72968,577.73688 L1473.91023,600.655138 L1473.91023,588.802463 L1343.31088,566.312475 L1390.20071,359.23791 L1473.91023,442.160335 L1473.91023,425.666134 L1288.28391,241.914948 L1298.44665,200.094914 L1473.91023,238.928629 Z M1101.92837,156.538649 L1286.96437,197.525291 L1277.40352,236.879876 L1090.74704,199.423571 L1101.92837,156.538649 Z M1049.7141,310.206727 L998.310068,506.979651 L797.509086,472.370766 L1049.7141,310.206727 Z M856.205292,420.769961 L898.291548,269.903003 L878.533231,223.707665 L1061.833,263.768317 L1054.05468,293.538903 L856.205292,420.769961 Z M1087.79545,210.743802 L1274.67185,248.234831 L1203.23171,542.236729 L1009.8618,508.924231 L1087.79545,210.743802 Z M1090.53869,154.0269 L1064.80774,252.448087 L876.357154,211.264671 L909.229808,113.850499 L1090.53869,154.0269 Z M754.786212,22.941408 L917.04285,54.1935783 L901.509364,100.226868 L740.097692,64.4141954 L754.786212,22.941408 Z M736.162233,75.5145033 L897.747529,111.304026 L864.863301,208.752923 L701.657523,173.079149 L736.162233,75.5145033 Z M203.370604,76.1742714 L453.735213,130.877144 C450.039973,136.342162 444.651369,140.441567 438.3985,142.544621 L363.46274,168.009353 C350.690185,172.361253 340.785906,182.584193 336.840521,195.488113 L331.388754,213.417598 L167.638956,183.635438 L203.370604,76.1742714 Z M48.5103132,161.967266 L76.6604162,80.5148506 C82.5434745,63.5335434 100.191968,53.6305013 117.751233,57.4576938 L191.830451,73.6625229 L155.94833,181.517235 L48.5103132,161.967266 Z M95.8631386,399.495335 L163.911846,194.828345 L327.96259,224.656805 L278.074866,388.533926 C217.122395,385.289636 155.998601,388.966927 95.8747135,399.495335 L95.8631386,399.495335 Z M363.914161,638.099868 L271.836007,624.441512 L235.490891,619.047619 L235.490891,619.047619 L126.02727,602.84279 L175.625622,401.347316 C238.494341,396.588194 301.70671,399.370518 363.914161,409.634928 L363.914161,638.099868 Z M370.754914,398.905017 C344.048511,394.317418 317.124875,391.099253 290.08959,389.263143 L348.033428,198.879552 C350.876405,189.57918 358.010385,182.208405 367.213001,179.063361 L442.160335,153.59863 C452.303436,150.166835 460.740234,142.969036 465.726787,133.493067 L864.539204,220.640322 L885.929578,270.701669 L841.412598,430.28451 L780.517166,469.442322 L464.4304,415.040396 L468.67838,399.842582 L539.84073,365.673542 L703.752575,400.016205 L727.44635,303.944718 L647.938514,285.424914 L617.843832,240.676436 L508.831632,212.977753 L452.843947,413.037942 L370.754914,398.905017 Z M521.043128,361.726509 L472.880061,384.876265 L481.653819,353.496771 L521.043128,361.726509 Z M484.81376,342.188115 L517.003496,227.156978 L610.644258,250.943353 L640.808389,295.796004 L713.267125,312.660601 L695.117717,386.26525 L484.81376,342.188115 Z M573.292127,669.16684 L375.604787,639.8361 L375.604787,411.602658 L627.624604,454.9853 L573.292127,669.16684 Z M818.008195,705.465657 L584.901729,670.891497 L610.366461,570.57203 L839.433294,610.516934 L818.008195,705.465657 Z M1086.38331,641.722805 L613.23703,559.217075 L639.176332,456.976179 L1224.17066,557.677617 L1086.38331,641.722805 Z M1380.40836,349.561312 L1331.79387,564.344746 L1214.78343,544.192884 L1285.01979,255.133458 L1380.40836,349.561312 Z" id="Shape" fill="url(#linearGradient-10)" fill-rule="nonzero"></path>
                            <g id="Group" stroke-width="1" fill="none" fill-rule="evenodd" transform="translate(912.100377, 611.153552)">
                                <path d="M61.8098479,30.8586244 C61.8098479,44.2739079 42.560826,69.8312383 34.5625854,79.8550825 C33.7346881,80.8954982 32.4776124,81.5016967 31.1479964,81.5016967 C29.8183804,81.5016967 28.5613047,80.8954982 27.7334074,79.8550825 C19.7467417,69.8312383 0.486144871,44.2739079 0.486144871,30.8586244 C0.486144871,13.9181588 14.2191056,0.185198046 31.1595713,0.185198046 C48.1000369,0.185198046 61.8329977,13.9181588 61.8329977,30.8586244 L61.8098479,30.8586244 Z" id="Path" stroke="#FFFFFF" stroke-width="7.84313725" fill="#508FFF" fill-rule="nonzero"></path>
                                <path d="M44.6327291,29.6548371 C44.4775671,27.9730267 43.0691344,26.6848872 41.3801884,26.6800935 L39.9101789,26.6800935 L39.9101789,25.592055 C39.9101789,20.7528352 35.9872162,16.8298724 31.1479964,16.8298724 C26.3087766,16.8298724 22.3858138,20.7528352 22.3858138,25.592055 L22.3858138,26.6800935 L20.9273792,26.6800935 C19.234172,26.6739074 17.8194438,27.9678048 17.6748385,29.6548371 L16.4363266,43.5446906 C16.3587164,44.4564827 16.6660428,45.3591714 17.2838931,46.0341894 C17.9017433,46.7092073 18.7737836,47.0950081 19.6888673,47.0981784 L42.6071255,47.0981784 C43.5233609,47.0985366 44.3975619,46.7137933 45.0161861,46.0379297 C45.6348104,45.3620662 45.9408928,44.4573186 45.8596662,43.5446906 L44.6327291,29.6548371 Z M24.1914948,25.592055 C24.1914948,21.7564779 27.3008444,18.6471283 31.1364215,18.6471283 C34.9719986,18.6471283 38.0813482,21.7564779 38.0813482,25.592055 L38.0813482,26.6800935 L24.1914948,26.6800935 L24.1914948,25.592055 Z M31.1364215,40.1648263 C27.169242,40.1584533 23.9547953,36.9440066 23.9484223,32.9768271 L25.7541033,32.9768271 C25.7541033,35.9493994 28.1638492,38.3591453 31.1364215,38.3591453 C34.1089938,38.3591453 36.5187397,35.9493994 36.5187397,32.9768271 L38.3359956,32.9768271 C38.3329747,34.8943356 37.5651521,36.731418 36.2027642,38.0807687 C34.8403763,39.4301195 32.9959961,40.1802427 31.0785471,40.1648263 L31.1364215,40.1648263 Z" id="Shape" fill="#FFFFFF" fill-rule="nonzero"></path>
                            </g>
                            <g id="Group" stroke-width="1" fill="none" fill-rule="evenodd" transform="translate(1294.071348, 391.230873)">
                                <path d="M61.3468528,31.182721 C61.3468528,44.5980045 42.086256,70.14376 34.0995902,80.1791791 C33.2693941,81.2199195 32.0105163,81.8260569 30.6792138,81.8260569 C29.3479114,81.8260569 28.0890336,81.2199195 27.2588374,80.1791791 C19.2721717,70.14376 0.0115748779,44.5980045 0.0115748779,31.182721 C0.0115748779,14.2422554 13.7445357,0.509294627 30.6850013,0.509294627 C47.6254669,0.509294627 61.3584277,14.2422554 61.3584277,31.182721 L61.3468528,31.182721 Z" id="Path" stroke="#FFFFFF" stroke-width="7.84313725" fill="#FF9C52" fill-rule="nonzero"></path>
                                <path d="M33.3819478,33.4050976 L37.1437831,29.1802671 C39.3545848,30.048383 42.5724009,29.0645184 45.0725745,26.5643447 C46.8609326,24.9097428 47.9150403,22.6098714 48.0010186,20.1750122 L42.3756279,25.8004028 L41.2181401,24.642915 L47.5495984,18.3114568 C47.3772463,17.958749 47.146334,17.63782 46.8666806,17.3623168 C46.592661,17.0891403 46.2759978,16.8623938 45.9291154,16.6909739 L39.5860824,23.0224321 L38.4285946,21.8649443 L44.0539852,16.2395537 C41.6219755,16.3234701 39.3249489,17.3781846 37.6762275,19.1679978 C35.1760539,21.6681714 34.2037642,24.8975623 35.0487302,27.0967891 L30.6618515,30.997523 L26.2633979,27.0967891 C27.1315138,24.8975623 26.1476491,21.6681714 23.6474755,19.1679978 C20.6148575,16.1238049 16.494201,15.3251383 14.4570225,17.3623168 C12.419844,19.3994953 13.2300854,23.508577 16.2627034,26.5527699 C18.7628771,29.0529435 21.992268,30.0252332 24.1914948,29.1686923 L27.9533301,33.3935227 L16.3784522,43.7183138 C15.5932187,44.4515709 15.2704794,45.5547571 15.5366916,46.5956167 C15.8029038,47.6364764 16.6156708,48.4492434 17.6565304,48.7154556 C18.69739,48.9816677 19.8005762,48.6589285 20.5338334,47.8736949 L30.6965762,36.4377156 L40.8593189,47.8736949 C41.5925761,48.6589285 42.6957623,48.9816677 43.7366219,48.7154556 C44.7774815,48.4492434 45.5902486,47.6364764 45.8564607,46.5956167 C46.1226729,45.5547571 45.7999336,44.4515709 45.0147001,43.7183138 L33.3819478,33.4050976 Z" id="Path" fill="#FFFFFF" fill-rule="nonzero"></path>
                            </g>
                            <g id="Group" stroke-width="1" fill="none" fill-rule="evenodd" transform="translate(520.869505, 255.804801)">
                                <path d="M61.4973262,31.3679191 C61.4973262,44.7832025 42.2483043,70.3405329 34.2500637,80.3643772 C33.4221664,81.4047929 32.1650907,82.0109914 30.8354747,82.0109914 C29.5058587,82.0109914 28.248783,81.4047929 27.4208857,80.3643772 C19.43422,70.3405329 0.173623168,44.7832025 0.173623168,31.3679191 C0.173623168,14.4274534 13.9065839,0.694492673 30.8470496,0.694492673 C47.7875152,0.694492673 61.520476,14.4274534 61.520476,31.3679191 L61.4973262,31.3679191 Z" id="Path" stroke="#FFFFFF" stroke-width="7.84313725" fill="#FF5267" fill-rule="nonzero"></path>
                                <polygon id="Path" fill="#FFFFFF" fill-rule="nonzero" points="38.3012709 19.9898141 38.3012709 32.5485566 23.3812533 32.5485566 23.3812533 19.9898141 18.7050027 19.9898141 18.7050027 49.7951247 23.3812533 49.7951247 23.3812533 37.2248073 38.3012709 37.2248073 38.3012709 49.7951247 42.9775216 49.7951247 42.9775216 19.9898141"></polygon>
                            </g>
                            <g id="Group" stroke-width="1" fill="none" fill-rule="evenodd" transform="translate(1009.329352, 151.473413)">
                                <path d="M61.8677223,30.7846147 C61.8677223,44.1998981 42.6071255,69.7456536 34.6204598,79.7810728 C33.7878067,80.8178545 32.5298305,81.4210022 31.2000833,81.4210022 C29.8703361,81.4210022 28.61236,80.8178545 27.7797069,79.7810728 C19.7930412,69.7456536 0.532444383,44.1998981 0.532444383,30.7846147 C0.532444383,19.8260545 6.37876563,9.69992696 15.8691571,4.22064667 C25.3595485,-1.25863362 37.0521931,-1.25863362 46.5425845,4.22064667 C56.0329759,9.69992696 61.8792972,19.8260545 61.8792972,30.7846147 L61.8677223,30.7846147 Z" id="Path" stroke="#FFFFFF" stroke-width="7.84313725" fill="#508FFF" fill-rule="nonzero"></path>
                                <path d="M44.6790286,29.5808274 C44.5291114,27.8964173 43.1175563,26.6054221 41.426488,26.6060838 L39.9680533,26.6060838 L39.9680533,25.5180452 C39.7965848,20.7995424 35.9217007,17.0629125 31.2000833,17.0629125 C26.478466,17.0629125 22.6035819,20.7995424 22.4321133,25.5180452 L22.4321133,26.6060838 L20.9736787,26.6060838 C19.2826104,26.6054221 17.8710553,27.8964173 17.721138,29.5808274 L16.494201,43.4706808 C16.4129576,44.3802342 16.7178116,45.282045 17.3342677,45.9557434 C17.9507238,46.6294419 18.8219923,47.0129649 19.7351668,47.0125937 L42.6649999,47.0125937 C43.5790376,47.0125937 44.4512309,46.6294935 45.0694662,45.956255 C45.6877015,45.2830166 45.995331,44.3814023 45.9175406,43.4706808 L44.6790286,29.5808274 Z M24.3072436,25.5180452 C24.3072436,21.6824681 27.4165932,18.5731185 31.2521703,18.5731185 C35.0877474,18.5731185 38.197097,21.6824681 38.197097,25.5180452 L38.197097,26.6060838 L24.3072436,26.6060838 L24.3072436,25.5180452 Z M31.182721,40.0792416 C27.2155415,40.0728686 24.0010948,36.858422 23.9947219,32.8912424 L25.8004028,32.8912424 C25.9338656,35.7699889 28.3066699,38.0353353 31.1885085,38.0353353 C34.070347,38.0353353 36.4431513,35.7699889 36.5766141,32.8912424 L38.3822951,32.8912424 C38.3792742,34.808751 37.6114516,36.6458334 36.2490637,37.9951841 C34.8866758,39.3445348 33.0422956,40.0946581 31.1248466,40.0792416 L31.182721,40.0792416 Z" id="Shape" fill="#FFFFFF" fill-rule="nonzero"></path>
                            </g>
                            <g id="Group" stroke-width="1" fill="none" fill-rule="evenodd" transform="translate(1214.204690, 92.599023)">
                                <path d="M61.9024469,30.904924 C61.9024469,44.3317823 42.653425,69.8775378 34.6551844,79.901382 C33.8272871,80.9417977 32.5702114,81.5479962 31.2405954,81.5479962 C29.9109794,81.5479962 28.6539037,80.9417977 27.8260064,79.901382 C19.8277658,69.8775378 0.578743894,44.3317823 0.578743894,30.904924 C0.578743894,13.9644583 14.3117047,0.231497558 31.2521703,0.231497558 C48.1926359,0.231497558 61.9255967,13.9644583 61.9255967,30.904924 L61.9024469,30.904924 Z" id="Path" stroke="#FFFFFF" stroke-width="7.84313725" fill="#87A3CC" fill-rule="nonzero"></path>
                                <path d="M45.6397435,30.4419288 C46.2790064,30.4419288 46.7972313,29.9237039 46.7972313,29.284441 L46.7972313,26.5527699 C46.8025003,26.115304 46.5606667,25.712248 46.1721879,25.5110309 L31.7846147,17.8137371 C31.4220251,17.6243533 30.9897165,17.6243533 30.6271269,17.8137371 L16.2974281,25.4647313 C15.9089492,25.6659485 15.6671156,26.0690045 15.6723003,26.5064704 L15.6723003,29.2381415 C15.6723003,29.8774044 16.1906096,30.3956293 16.8298724,30.3956293 L19.6772924,30.3956293 L19.6772924,42.3293284 L17.2812927,42.3293284 C16.3927173,42.3293284 15.6723003,43.0496611 15.6723003,43.9382365 L15.6723003,43.9382365 C15.6723003,44.3638887 15.8422514,44.7719406 16.1443176,45.0718337 C16.4463838,45.3717267 16.8556516,45.538654 17.2812927,45.5356116 L45.1998981,45.5356116 C45.6255392,45.538654 46.034807,45.3717267 46.3368732,45.0718337 C46.6389394,44.7719406 46.8088062,44.3638887 46.8088062,43.9382365 L46.8088062,43.9382365 C46.8088062,43.0496611 46.0884735,42.3293284 45.1998981,42.3293284 L42.8270482,42.3293284 L42.8270482,30.4419288 L45.6397435,30.4419288 Z M23.3349538,42.3756279 L23.3349538,30.4419288 L29.4117647,30.4419288 L29.4117647,42.3756279 L23.3349538,42.3756279 Z M39.146237,42.3756279 L33.0694261,42.3756279 L33.0694261,30.4419288 L39.146237,30.4419288 L39.146237,42.3756279 Z" id="Shape" fill="#FFFFFF" fill-rule="nonzero"></path>
                            </g>
                        </g>
                    </g>
                </g>
            </g>
            <g id="phone" transform="translate(469.435516, 51.244438)">
                <g id="map-2" transform="translate(18.630923, 19.772206)">
                    <mask id="mask-13" fill="white">
                        <use xlink:href="#path-12"></use>
                    </mask>
                    <use id="Mask" fill="url(#linearGradient-11)" fill-rule="nonzero" xlink:href="#path-12"></use>
                    <g mask="url(#mask-13)">
                        <g transform="translate(-556.862745, -5.882353)">
                            <polygon id="Path" fill="url(#linearGradient-4)" fill-rule="nonzero" opacity="0.2" points="530.870199 432.402713 542.64185 386.404148 720.362525 422.28627 751.927217 289.395097 663.738223 267.669051 634.835752 220.084728 493.934764 182.674723 429.022849 414.866773"></polygon>
                            <path d="M1473.91023,238.928629 L1473.91023,226.960206 L1301.16675,188.67051 L1346.87594,0.567169016 L1334.84964,0.567169016 L1289.70762,186.147186 L1104.86839,145.195268 L1142.66037,0.567169016 L1130.63407,0.567169016 L1093.50186,142.695095 L912.933769,102.715466 L928.571429,56.3580804 L929.451119,56.5317036 L930.689631,50.0729217 L947.39218,0.590318772 L935.111235,0.590318772 L920.81626,42.9543718 L758.76797,11.7948006 L762.738153,0.590318772 L750.306734,0.590318772 L690.117369,170.567401 L470.252564,122.520082 L516.725699,0.590318772 L504.213256,0.590318772 L458.700836,119.996759 L207.08614,65.0160891 L228.499664,0.590318772 L216.183994,0.590318772 L195.615436,62.5043406 L120.262981,46.0448642 C96.9200532,40.9485199 73.4543389,54.115973 65.6411325,76.6951409 L36.8891358,159.849064 L0.879690719,153.297683 L0.879690719,165.185082 L152.313818,192.721717 L82.7603769,401.914485 C55.1274291,407.226388 27.7955135,413.999479 0.879690719,422.205246 L0.879690719,434.428317 C53.7569832,418.070423 108.207299,407.316146 163.333102,402.342755 L114.417668,601.094983 L0.879690719,584.253536 L0.879690719,596.106211 L111.616547,612.530963 L79.4383869,743.222909 L91.4415353,743.222909 L123.191425,614.244045 L232.655045,630.448874 L204.944788,743.188184 L216.982661,743.188184 L244.264648,632.173531 L284.776721,638.192467 L375.604787,651.665625 L375.604787,651.665625 L570.398407,680.60282 L554.5061,743.234484 L566.567123,743.234484 L582.019585,682.327476 L815.426997,716.947936 L809.489085,743.234484 L821.469084,743.234484 L827.01345,718.672593 L992.638378,743.234484 L1072.29669,743.234484 L829.594648,707.225039 L850.950297,612.565687 L1086.53379,653.610204 L1088.70986,653.992175 L1241.68345,560.687085 L1329.18953,575.734426 L1291.2818,743.176609 L1303.2618,743.176609 L1340.72968,577.725305 L1473.91023,600.643563 L1473.91023,588.802463 L1343.31088,566.312475 L1390.20071,359.23791 L1473.91023,442.114036 L1473.91023,425.666134 L1288.28391,241.914948 L1298.44665,200.094914 L1473.91023,238.928629 Z M1101.92837,156.538649 L1286.96437,197.525291 L1277.40352,236.879876 L1090.74704,199.423571 L1101.92837,156.538649 Z M1049.7141,310.206727 L998.310068,506.979651 L797.509086,472.370766 L1049.7141,310.206727 Z M856.205292,420.769961 L898.291548,269.903003 L878.533231,223.707665 L1061.833,263.768317 L1054.05468,293.538903 L856.205292,420.769961 Z M1087.79545,210.743802 L1274.67185,248.234831 L1203.23171,542.236729 L1009.8618,508.924231 L1087.79545,210.743802 Z M1090.53869,154.0269 L1064.80774,252.448087 L876.357154,211.264671 L909.229808,113.850499 L1090.53869,154.0269 Z M754.786212,22.941408 L917.04285,54.1935783 L901.509364,100.226868 L740.097692,64.4141954 L754.786212,22.941408 Z M736.162233,75.5145033 L897.747529,111.304026 L864.863301,208.752923 L701.657523,173.079149 L736.162233,75.5145033 Z M203.370604,76.1742714 L453.735213,130.877144 C450.048884,136.336136 444.673314,140.434906 438.433225,142.544621 L363.497465,168.009353 C350.72491,172.361253 340.82063,182.584193 336.875246,195.488113 L331.423478,213.417598 L167.650531,183.623863 L203.370604,76.1742714 Z M48.5218881,161.967266 L76.6719911,80.5148506 C82.5550494,63.5335434 100.203543,53.6305013 117.762808,57.4576938 L191.842026,73.6625229 L155.959905,181.517235 L48.5218881,161.967266 Z M95.8747135,399.495335 L163.923421,194.828345 L327.974165,224.656805 L278.086441,388.533926 C217.130122,385.288758 156.002395,388.966052 95.8747135,399.495335 Z M363.914161,638.099868 L271.836007,624.441512 L235.490891,619.047619 L235.490891,619.047619 L126.02727,602.84279 L175.625622,401.347316 C238.494341,396.588194 301.70671,399.370518 363.914161,409.634928 L363.914161,638.099868 Z M370.754914,398.905017 C344.048511,394.317418 317.124875,391.099253 290.08959,389.263143 L348.033428,198.879552 C350.876405,189.57918 358.010385,182.208405 367.213001,179.063361 L442.160335,153.59863 C452.303436,150.166835 460.740234,142.969036 465.726787,133.493067 L864.539204,220.640322 L885.929578,270.701669 L841.412598,430.28451 L780.517166,469.442322 L464.4304,415.040396 L468.67838,399.842582 L539.84073,365.673542 L703.752575,400.016205 L727.44635,303.944718 L647.938514,285.424914 L617.843832,240.676436 L508.831632,212.977753 L452.843947,413.037942 L370.754914,398.905017 Z M521.043128,361.726509 L472.880061,384.876265 L481.653819,353.496771 L521.043128,361.726509 Z M484.81376,342.188115 L517.003496,227.156978 L610.644258,250.943353 L640.808389,295.796004 L713.267125,312.660601 L695.117717,386.26525 L484.81376,342.188115 Z M573.292127,669.16684 L375.604787,639.8361 L375.604787,411.602658 L627.624604,454.9853 L573.292127,669.16684 Z M818.008195,705.465657 L584.901729,670.891497 L610.366461,570.57203 L839.433294,610.516934 L818.008195,705.465657 Z M1086.38331,641.722805 L613.23703,559.217075 L639.176332,456.976179 L1224.17066,557.677617 L1086.38331,641.722805 Z M1380.38521,349.549737 L1331.77072,564.333171 L1214.77186,544.192884 L1285.00822,255.133458 L1380.38521,349.549737 Z" id="Shape" fill="url(#linearGradient-14)" fill-rule="nonzero" opacity="0.5"></path>
                            <g id="Group" stroke-width="1" fill="none" fill-rule="evenodd" transform="translate(912.100377, 611.153552)">
                                <path d="M61.8098479,30.8586244 C61.8098479,44.2739079 42.560826,69.8312383 34.5625854,79.8550825 C33.7346881,80.8954982 32.4776124,81.5016967 31.1479964,81.5016967 C29.8183804,81.5016967 28.5613047,80.8954982 27.7334074,79.8550825 C19.7467417,69.8312383 0.486144871,44.2739079 0.486144871,30.8586244 C0.486144871,13.9181588 14.2191056,0.185198046 31.1595713,0.185198046 C48.1000369,0.185198046 61.8329977,13.9181588 61.8329977,30.8586244 L61.8098479,30.8586244 Z" id="Path" stroke="#FFFFFF" stroke-width="7.84313725" fill="#508FFF" fill-rule="nonzero"></path>
                                <path d="M44.6327291,29.6548371 C44.4775671,27.9730267 43.0691344,26.6848872 41.3801884,26.6800935 L39.9101789,26.6800935 L39.9101789,25.592055 C39.9101789,20.7528352 35.9872162,16.8298724 31.1479964,16.8298724 C26.3087766,16.8298724 22.3858138,20.7528352 22.3858138,25.592055 L22.3858138,26.6800935 L20.9273792,26.6800935 C19.234172,26.6739074 17.8194438,27.9678048 17.6748385,29.6548371 L16.4363266,43.5446906 C16.3587164,44.4564827 16.6660428,45.3591714 17.2838931,46.0341894 C17.9017433,46.7092073 18.7737836,47.0950081 19.6888673,47.0981784 L42.6071255,47.0981784 C43.5233609,47.0985366 44.3975619,46.7137933 45.0161861,46.0379297 C45.6348104,45.3620662 45.9408928,44.4573186 45.8596662,43.5446906 L44.6327291,29.6548371 Z M24.1914948,25.592055 C24.1914948,21.7564779 27.3008444,18.6471283 31.1364215,18.6471283 C34.9719986,18.6471283 38.0813482,21.7564779 38.0813482,25.592055 L38.0813482,26.6800935 L24.1914948,26.6800935 L24.1914948,25.592055 Z M31.1364215,40.1648263 C27.169242,40.1584533 23.9547953,36.9440066 23.9484223,32.9768271 L25.7541033,32.9768271 C25.754103,34.8997444 26.779967,36.6765934 28.4452621,37.6380522 C30.1105573,38.5995109 32.1622857,38.5995109 33.8275809,37.6380522 C35.4928761,36.6765934 36.5187401,34.8997444 36.5187397,32.9768271 L38.3359956,32.9768271 C38.3329747,34.8943356 37.5651521,36.731418 36.2027642,38.0807687 C34.8403763,39.4301195 32.9959961,40.1802427 31.0785471,40.1648263 L31.1364215,40.1648263 Z" id="Shape" fill="#FFFFFF" fill-rule="nonzero"></path>
                            </g>
                            <g id="Group" stroke-width="1" fill="none" fill-rule="evenodd" transform="translate(520.869505, 255.804801)">
                                <path d="M61.4973262,31.3679191 C61.4973262,44.7832025 42.2483043,70.3405329 34.2500637,80.3643772 C33.4221664,81.4047929 32.1650907,82.0109914 30.8354747,82.0109914 C29.5058587,82.0109914 28.248783,81.4047929 27.4208857,80.3643772 C19.43422,70.3405329 0.173623168,44.7832025 0.173623168,31.3679191 C0.173623168,14.4274534 13.9065839,0.694492673 30.8470496,0.694492673 C47.7875152,0.694492673 61.520476,14.4274534 61.520476,31.3679191 L61.4973262,31.3679191 Z" id="Path" stroke="#FFFFFF" stroke-width="7.84313725" fill="#FF5267" fill-rule="nonzero"></path>
                                <polygon id="Path" fill="#FFFFFF" fill-rule="nonzero" points="38.3012709 19.9898141 38.3012709 32.5485566 23.3812533 32.5485566 23.3812533 19.9898141 18.7050027 19.9898141 18.7050027 49.7951247 23.3812533 49.7951247 23.3812533 37.2248073 38.3012709 37.2248073 38.3012709 49.7951247 42.9775216 49.7951247 42.9775216 19.9898141"></polygon>
                            </g>
                            <g id="Group" stroke-width="1" fill="none" fill-rule="evenodd" transform="translate(1009.329352, 151.473413)">
                                <path d="M61.8677223,30.7846147 C61.8677223,44.1998981 42.6071255,69.7456536 34.6204598,79.7810728 C33.7878067,80.8178545 32.5298305,81.4210022 31.2000833,81.4210022 C29.8703361,81.4210022 28.61236,80.8178545 27.7797069,79.7810728 C19.7930412,69.7456536 0.532444383,44.1998981 0.532444383,30.7846147 C0.532444383,13.844149 14.2654052,0.111188277 31.2058708,0.111188277 C48.1463364,0.111188277 61.8792972,13.844149 61.8792972,30.7846147 L61.8677223,30.7846147 Z" id="Path" stroke="#FFFFFF" stroke-width="7.84313725" fill="#508FFF" fill-rule="nonzero"></path>
                            </g>
                            <g id="Group" stroke-width="1" fill="none" fill-rule="evenodd" transform="translate(94.913999, 81.024145)">
                                <path d="M61.7751233,30.8007501 C61.7751233,44.2160335 42.5261013,69.761789 34.5278607,79.7972081 C33.6974939,80.8336512 32.4413242,81.4368465 31.1132718,81.4368465 C29.7852193,81.4368465 28.5290497,80.8336512 27.6986828,79.7972081 C19.7004422,69.761789 0.451420238,44.2160335 0.451420238,30.8007501 C0.451420238,13.8602844 14.184381,0.127323657 31.1248466,0.127323657 C48.0653123,0.127323657 61.798273,13.8602844 61.798273,30.8007501 L61.7751233,30.8007501 Z" id="Path" stroke="#FFFFFF" stroke-width="7.84313725" fill="#508FFF" fill-rule="nonzero"></path>
                                <path d="M44.5980045,29.5969628 C44.4428425,27.9151524 43.0344098,26.6270128 41.3454638,26.6222191 L39.8754543,26.6222191 L39.8754543,25.5341806 C39.8754543,20.6949608 35.9524916,16.7719981 31.1132718,16.7719981 C26.274052,16.7719981 22.3510892,20.6949608 22.3510892,25.5341806 L22.3510892,26.6222191 L20.8347802,26.6222191 C19.1458342,26.6270128 17.7374015,27.9151524 17.5822395,29.5969628 L16.3553025,43.4868162 C16.2776922,44.3986083 16.5850186,45.3012971 17.2028689,45.976315 C17.8207192,46.6513329 18.6927595,47.0371337 19.6078431,47.040304 L42.5261013,47.040304 C43.4423368,47.0406622 44.3165377,46.6559189 44.935162,45.9800553 C45.5537863,45.3041918 45.8598687,44.3994442 45.778642,43.4868162 L44.5980045,29.5969628 Z M24.1567701,25.5341806 C24.1567701,21.6986035 27.2661198,18.5892539 31.1016969,18.5892539 C34.937274,18.5892539 38.0466236,21.6986035 38.0466236,25.5341806 L38.0466236,26.6222191 L24.1567701,26.6222191 L24.1567701,25.5341806 Z M31.0438225,40.1069519 C27.0721286,40.1005665 23.8558233,36.8790769 23.8558233,32.9073778 L25.6615043,32.9073778 C25.6615041,34.830295 26.6873681,36.6071439 28.3526632,37.5686025 C30.0179584,38.5300612 32.0696866,38.5300612 33.7349817,37.5686025 C35.4002768,36.6071439 36.4261409,34.830295 36.4261407,32.9073778 L38.197097,32.9073778 C38.197097,36.8655816 35.0019445,40.0814972 31.0438225,40.1069519 L31.0438225,40.1069519 Z" id="Shape" fill="#FFFFFF" fill-rule="nonzero"></path>
                            </g>
                            <g id="Group" stroke-width="1" fill="none" fill-rule="evenodd" transform="translate(183.883071, 410.908165)">
                                <rect id="Rectangle" stroke="#FFFFFF" stroke-width="7.84313725" fill="#508FFF" fill-rule="nonzero" x="0.0648887654" y="0.694492673" width="63.3956062" height="63.3956062" rx="25.745098"></rect>
                                <path d="M40.993657,12.8828391 L22.5433016,12.8828391 C18.0684616,12.8828391 14.4408591,16.5104136 14.4408591,20.9852536 L14.4408591,45.1420238 C14.4378075,45.7794855 14.6888823,46.3918952 15.1385537,46.8437389 C15.588225,47.2955825 16.1994176,47.5496058 16.8368868,47.5495984 L18.1795727,47.5495984 L18.1795727,50.1307961 C18.1795727,50.770059 18.6977976,51.2882839 19.3370604,51.2882839 L24.4647313,51.2882839 C25.1039942,51.2882839 25.6222191,50.770059 25.6222191,50.1307961 L25.6222191,47.5495984 L37.9378892,47.5495984 L37.9378892,50.1307961 C37.9378892,50.770059 38.4561141,51.2882839 39.095377,51.2882839 L44.1998981,51.2882839 C44.839161,51.2882839 45.3573859,50.770059 45.3573859,50.1307961 L45.3573859,47.5495984 L46.6884969,47.5495984 C47.3270254,47.5495984 47.9394014,47.2959439 48.3909092,46.8444361 C48.842417,46.3929283 49.0961046,45.7805522 49.0961046,45.1420238 L49.0961046,21.0084034 C49.1022227,18.8555012 48.2512941,16.7886682 46.7311294,15.2641602 C45.2109648,13.7396522 43.1465679,12.8828391 40.993657,12.8828391 L40.993657,12.8828391 Z M20.992268,42.618724 C19.8348707,42.6233862 18.7888303,41.9297933 18.3426629,40.8618396 C17.8964954,39.793886 18.1382336,38.5622877 18.954982,37.7422191 C19.7717304,36.9221506 21.0023379,36.6754181 22.0720928,37.1172494 C23.1418477,37.5590807 23.8396879,38.6022988 23.8396879,39.7597055 C23.8396879,41.3341755 22.5667251,42.612326 20.992268,42.618724 Z M42.5215408,42.6187004 C40.9425616,42.6187004 39.662546,41.3386848 39.662546,39.7597055 C39.662546,38.1807263 40.9425616,36.9007107 42.5215408,36.9007107 C44.1005201,36.9007107 45.3805357,38.1807263 45.3805357,39.7597055 C45.3805357,41.3341755 44.1075728,42.612326 42.5331157,42.6187004 L42.5215408,42.6187004 Z M45.3805357,32.2707595 L18.1564229,32.2707595 L18.1564229,21.0084034 L45.3921106,21.0084034 L45.3805357,32.2707595 Z" id="Shape" fill="#FFFFFF" fill-rule="nonzero"></path>
                            </g>
                        </g>
                    </g>
                </g>
                <g id="Group" fill-rule="nonzero">
                    <path d="M357.397504,0.347246337 L69.1830451,0.347246337 C31.2939358,0.347246337 0.578735089,31.0624382 0.578735089,68.9515476 L0.578735089,706.067551 C0.569525923,724.274577 7.79815663,741.738538 20.6724697,754.612851 C33.5467828,767.487164 51.0107439,774.715795 69.2177698,774.706586 L357.432229,774.706586 C395.303254,774.661855 425.974701,743.938598 425.955515,706.067551 L425.955515,68.9515476 C425.955515,31.0805119 395.268531,0.372804653 357.397504,0.347246337 Z M407.088455,703.497928 C407.088456,732.074851 383.925673,755.249207 355.348751,755.249207 L71.278098,755.249207 C57.5528054,755.249207 44.3896651,749.796856 34.6844177,740.091608 C24.9791702,730.386361 19.526819,717.223221 19.526819,703.497928 L19.526819,71.5095956 C19.526819,42.9281534 42.6966558,19.7583165 71.278098,19.7583165 L95.9557377,19.7583165 L95.9557377,38.0466236 C95.9557367,43.0923908 97.9609518,47.9313275 101.529933,51.498138 C105.098915,55.0649486 109.939071,57.067219 114.984837,57.064148 L311.642012,57.064148 C322.145101,57.064148 330.659537,48.5497123 330.659537,38.0466236 L330.659537,19.7583165 L355.348751,19.7583165 C383.930193,19.7583165 407.10003,42.9281534 407.10003,71.5095956 L407.088455,703.497928 Z" id="Shape" fill="url(#linearGradient-15)"></path>
                    <rect id="Rectangle" fill="#FFFFFF" x="129.719656" y="19.8046161" width="167.187536" height="15.8460078" rx="7.92300391"></rect>
                </g>
            </g>
            <polyline id="Path" stroke="#FFFFFF" stroke-width="15" stroke-linecap="round" stroke-linejoin="round" points="780.98493 484.457393 822.909137 335.88226 799.87513 281.781281 625.846841 241.373382"></polyline>
            <path d="M577.799523,187.642799 C577.799523,203.384633 597.893511,229.474408 609.769336,243.52631 C611.882846,246.039567 614.998852,247.490532 618.282659,247.490532 C621.566465,247.490532 624.682471,246.039567 626.795981,243.52631 C638.671806,229.474408 658.754219,203.384633 658.754219,187.642799 C659.369923,172.781695 651.792473,158.77823 639.015209,151.164228 C626.237945,143.550227 610.315797,143.550227 597.538533,151.164228 C584.761269,158.77823 577.183819,172.781695 577.799523,187.642799 L577.799523,187.642799 Z M603.680945,187.642799 C603.676269,181.732515 607.233554,176.401809 612.69305,174.137877 C618.152547,171.873946 624.438297,173.122966 628.617501,177.30217 C632.796704,181.481373 634.045724,187.767123 631.781793,193.22662 C629.517862,198.686117 624.187156,202.243402 618.276871,202.238725 C610.227454,202.219588 603.710455,195.692237 603.7041,187.642799 L603.680945,187.642799 Z" id="pin" fill="url(#linearGradient-16)" fill-rule="nonzero"></path>
            <path d="M744.801861,439.766789 C744.801861,455.520198 764.884274,481.609973 776.760099,495.6503 C778.87361,498.163557 781.989615,499.614522 785.273422,499.614522 C788.557228,499.614522 791.673234,498.163557 793.786744,495.6503 C805.662569,481.609973 825.756557,455.520198 825.756557,439.766789 C826.372261,424.905685 818.794811,410.90222 806.017547,403.288218 C793.240283,395.674217 777.318135,395.674217 764.540871,403.288218 C751.763607,410.90222 744.186157,424.905685 744.801861,439.766789 L744.801861,439.766789 Z M770.683284,439.766789 C770.683284,431.705685 777.218105,425.170868 785.279209,425.170868 C793.340314,425.170868 799.87513,431.705685 799.87513,439.766789 C799.87513,447.827894 793.340314,454.362715 785.279209,454.362715 C781.407189,454.365785 777.692873,452.828992 774.95494,450.091059 C772.217007,447.353126 770.680214,443.63881 770.683284,439.766789 L770.683284,439.766789 Z" id="pin-2" fill="url(#linearGradient-17)" fill-rule="nonzero"></path>
            <g id="popup" transform="translate(509.947589, 604.523601)" fill-rule="nonzero">
                <rect id="Rectangle" fill="#FFFFFF" x="0.115748779" y="0.393545848" width="345.371206" height="180.220849" rx="20"></rect>
                <g id="box" transform="translate(22.992268, 55.559414)">
                    <rect id="Rectangle" fill="url(#linearGradient-18)" transform="translate(52.308100, 52.434197) rotate(-180.000000) translate(-52.308100, -52.434197) " x="0.0185892539" y="0.76394194" width="104.579022" height="103.34051" rx="16.4117647"></rect>
                    <rect id="Rectangle" fill="url(#linearGradient-19)" transform="translate(52.308100, 52.434197) rotate(-180.000000) translate(-52.308100, -52.434197) " x="16.8600366" y="17.53594" width="70.896127" height="69.7965136" rx="9.92156863"></rect>
                    <rect id="Rectangle" fill="url(#linearGradient-20)" transform="translate(52.302313, 26.251823) rotate(-180.000000) translate(-52.302313, -26.251823) " x="40.0676667" y="17.5243651" width="24.4692918" height="17.4549159"></rect>
                </g>
                <rect id="Rectangle" fill="url(#linearGradient-21)" x="23.0108572" y="21.7260458" width="298.203579" height="14.6653703" rx="7.33268514"></rect>
                <rect id="Rectangle" fill="url(#linearGradient-22)" x="154.0269" y="82.1237586" width="167.187536" height="10.2321921" rx="5.11609603"></rect>
                <rect id="Rectangle" fill="url(#linearGradient-23)" x="154.0269" y="113.410654" width="120.888025" height="10.2321921" rx="5.11609603"></rect>
            </g>
        </g>
    </g>
</svg>