<svg t="1638589001730" class="icon" viewBox="0 0 1024 1024" version="1.1" xmlns="http://www.w3.org/2000/svg" p-id="4387" width="200" height="200"><path d="M298.666667 533.333333h258.133333c44.8-40.533333 104.533333-64 168.533333-64H298.666667c-70.4 0-128-57.6-128-128s57.6-128 128-128h475.733333c12.8 25.6 38.4 42.666667 68.266667 42.666667 40.533333 0 74.666667-34.133333 74.666666-74.666667S883.2 106.666667 842.666667 106.666667c-29.866667 0-55.466667 17.066667-68.266667 42.666666H298.666667c-106.666667 0-192 85.333333-192 192s85.333333 192 192 192zM731.733333 469.333333H725.333333h6.4zM322.133333 810.666667h-72.533333c-12.8-25.6-38.4-42.666667-68.266667-42.666667C140.8 768 106.666667 802.133333 106.666667 842.666667S140.8 917.333333 181.333333 917.333333c29.866667 0 55.466667-17.066667 68.266667-42.666666h268.8c-14.933333-19.2-25.6-40.533333-34.133333-64h-162.133334zM725.333333 533.333333c-106.666667 0-192 85.333333-192 192s85.333333 192 192 192 192-85.333333 192-192-85.333333-192-192-192z m64 149.333334c-14.933333 0-29.866667-8.533333-36.266666-21.333334H682.666667v42.666667h106.666666c12.8 0 21.333333 8.533333 21.333334 21.333333v85.333334c0 12.8-8.533333 21.333333-21.333334 21.333333h-91.733333c-6.4 12.8-21.333333 21.333333-36.266667 21.333333-23.466667 0-42.666667-19.2-42.666666-42.666666s19.2-42.666667 42.666666-42.666667c14.933333 0 29.866667 8.533333 36.266667 21.333333H768v-42.666666h-106.666667c-12.8 0-21.333333-8.533333-21.333333-21.333334v-85.333333c0-12.8 8.533333-21.333333 21.333333-21.333333h91.733334c6.4-12.8 21.333333-21.333333 36.266666-21.333334 23.466667 0 42.666667 19.2 42.666667 42.666667s-19.2 42.666667-42.666667 42.666667z" p-id="4388"></path></svg>