<svg t="1638588743801" class="icon" viewBox="0 0 1024 1024" version="1.1" xmlns="http://www.w3.org/2000/svg" p-id="2120" width="200" height="200"><path d="M832 736a32 32 0 0 1-32 32h-205.290667l36.437334 36.437333a32 32 0 0 1-45.248 45.248l-90.517334-90.496a32 32 0 0 1 0-45.269333l90.517334-90.496a32 32 0 0 1 45.226666 45.248L595.84 704H768v-117.333333a32 32 0 0 1 64 0v149.333333zM256 362.666667v117.333333a32 32 0 0 1-64 0v-149.333333a32 32 0 0 1 32-32h199.744l-36.416-36.437334a32 32 0 0 1 45.226667-45.248l90.538666 90.517334c6.229333 6.250667 9.365333 14.421333 9.365334 22.613333s-3.136 16.384-9.386667 22.634667l-90.496 90.517333a32 32 0 0 1-45.248-45.269333L422.656 362.666667H256z m362.666667-85.333334h170.666666a42.666667 42.666667 0 0 1 42.666667 42.666667v128a42.666667 42.666667 0 0 1-42.666667 42.666667h-170.666666a42.666667 42.666667 0 0 1-42.666667-42.666667v-128a42.666667 42.666667 0 0 1 42.666667-42.666667zM234.666667 576h170.666666a42.666667 42.666667 0 0 1 42.666667 42.666667v128a42.666667 42.666667 0 0 1-42.666667 42.666666h-170.666666a42.666667 42.666667 0 0 1-42.666667-42.666666v-128a42.666667 42.666667 0 0 1 42.666667-42.666667z" fill="#2A2A37" p-id="2121"></path></svg>