<svg t="1638589030200" class="icon" viewBox="0 0 1024 1024" version="1.1" xmlns="http://www.w3.org/2000/svg" p-id="5205" width="200" height="200"><path d="M845.8752 321.7408v531.4048H177.5104V321.7408h668.3648m30.3104-30.3104H147.2v592.0256h728.9856V291.4304z" fill="#666666" p-id="5206"></path><path d="M156.4672 329.8304A15.36 15.36 0 0 1 143.36 322.2016L52.7872 164.352a15.36 15.36 0 1 1 26.2656-15.36L169.6256 307.2a15.36 15.36 0 0 1-13.1584 22.7328zM866.8672 329.8304a15.36 15.36 0 0 1-7.5264-1.9968 15.36 15.36 0 0 1-5.632-20.48l90.5728-157.9008a15.36 15.36 0 1 1 26.2656 15.36l-90.5216 157.3888a15.36 15.36 0 0 1-13.1584 7.6288zM252.8256 496.9472a15.36 15.36 0 0 1-15.36-15.36V379.648a15.36 15.36 0 1 1 30.3104 0V481.792a15.36 15.36 0 0 1-14.9504 15.1552zM252.8256 616.448a15.36 15.36 0 0 1-15.36-15.36v-55.5008a15.36 15.36 0 0 1 30.3104 0v55.7056a15.36 15.36 0 0 1-14.9504 15.1552zM414.1568 466.5856a15.36 15.36 0 0 1-15.36-15.36V312.32a15.36 15.36 0 1 1 30.3104 0v107.0592l37.4272-30.72A15.36 15.36 0 0 1 486.4 389.12l37.5808 34.4576 40.6016-38.912a15.36 15.36 0 0 1 11.9808-4.1472 15.36 15.36 0 0 1 10.9568 6.4512l6.4 9.1648V312.32a15.36 15.36 0 1 1 30.3104 0v132.1472a15.36 15.36 0 0 1-27.5968 8.6528l-23.808-34.2016-37.9392 36.7616a15.36 15.36 0 0 1-20.48 0l-38.3488-35.1744-52.2752 42.6496a15.36 15.36 0 0 1-9.6256 3.4304zM636.0576 716.2368v59.4432h-59.4432v-59.4432h59.4432m15.36-15.36h-89.9584v89.7536h89.7536v-89.5488zM758.8352 716.2368v59.4432H699.392v-59.4432h59.4432m15.36-15.36h-89.9584v89.7536h89.7536v-89.5488z" fill="#666666" p-id="5207"></path></svg>