<svg t="1638588847599" class="icon" viewBox="0 0 1024 1024" version="1.1" xmlns="http://www.w3.org/2000/svg" p-id="3648" width="200" height="200"><path d="M789.333 960h-64v32a32 32 0 0 1-64 0v-32H362.667v32a32 32 0 0 1-64 0v-32h-64A106.667 106.667 0 0 1 128 853.333V234.667A106.667 106.667 0 0 1 234.667 128H320V64a64 64 0 0 1 64-64h256a64 64 0 0 1 64 64v64h85.333A106.667 106.667 0 0 1 896 234.667v618.666A106.667 106.667 0 0 1 789.333 960zM640 85.333A21.333 21.333 0 0 0 618.667 64H405.333A21.333 21.333 0 0 0 384 85.333V128h256V85.333z m192 149.334A42.667 42.667 0 0 0 789.333 192H234.667A42.667 42.667 0 0 0 192 234.667v618.666A42.667 42.667 0 0 0 234.667 896h554.666A42.667 42.667 0 0 0 832 853.333V234.667zM629.333 789.333a32 32 0 0 1-32-32V330.667a32 32 0 1 1 64 0v426.666a32 32 0 0 1-32 32z m-234.666 0a32 32 0 0 1-32-32V330.667a32 32 0 1 1 64 0v426.666a32 32 0 0 1-32 32z" fill="#333333" p-id="3649"></path></svg>