<svg t="1638600100416" class="icon" viewBox="0 0 1024 1024" version="1.1" xmlns="http://www.w3.org/2000/svg" p-id="11073" width="200" height="200"><path d="M823.694222 212.297956H202.592711c-32.551822 0-58.936889 26.282667-58.936889 58.709333v388.380444c0 32.426667 26.385067 58.697956 58.936889 58.697956h621.090133c32.540444 0 58.936889-26.282667 58.936889-58.697956V271.007289c0-32.426667-26.396444-58.709333-58.925511-58.709333z" fill="#47A7DD" p-id="11074"></path><path d="M195.026489 659.387733V271.007289c0-32.426667 26.385067-58.709333 58.936889-58.709333h-51.370667c-32.551822 0-58.936889 26.282667-58.936889 58.709333v388.380444c0 32.426667 26.385067 58.697956 58.936889 58.697956h51.370667c-32.551822 0-58.936889-26.271289-58.936889-58.697956z" fill="#3F9EC9" p-id="11075"></path><path d="M95.414044 718.085689h835.458845v72.817778H95.414044z" fill="#E6E6E6" p-id="11076"></path><path d="M152.553244 856.837689a66.184533 65.922844 0 1 0 132.369067 0 66.184533 65.922844 0 1 0-132.369067 0Z" fill="#999999" p-id="11077"></path><path d="M741.341867 856.837689a66.195911 65.922844 0 1 0 132.391822 0 66.195911 65.922844 0 1 0-132.391822 0Z" fill="#999999" p-id="11078"></path><path d="M672.199111 109.511111v102.786845h-50.028089V153.258667H404.115911v59.039289h-50.028089V109.511111a31.106844 31.106844 0 0 1 31.163734-31.038578h255.783822a31.106844 31.106844 0 0 1 31.163733 31.038578z" fill="#999999" p-id="11079"></path><path d="M220.410311 349.855289l157.3888-52.610845 36.807111 110.125512-157.3888 52.599466z" fill="#EADAC5" p-id="11080"></path><path d="M930.861511 703.328711h-48.116622a72.851911 72.851911 0 0 0 14.677333-43.940978V422.889244a14.791111 14.791111 0 0 0-14.813866-14.756977 14.791111 14.791111 0 0 0-14.825245 14.756977v236.509867c0 24.234667-19.797333 43.940978-44.123022 43.940978H202.592711c-24.325689 0-44.111644-19.706311-44.111644-43.940978V271.007289c0-24.234667 19.785956-43.940978 44.111644-43.940978h621.090133c24.325689 0 44.111644 19.706311 44.111645 43.940978v100.704711a14.791111 14.791111 0 0 0 14.825244 14.768356 14.791111 14.791111 0 0 0 14.825245-14.768356v-100.704711c0-40.504889-33.086578-73.466311-73.750756-73.466311H687.012978V109.511111C687.012978 84.263822 666.373689 63.715556 641.024 63.715556H385.251556c-25.361067 0-45.9776 20.548267-45.9776 45.795555v88.029867H202.592711c-40.664178 0-73.750756 32.950044-73.750755 73.466311v388.380444c0 16.463644 5.461333 31.675733 14.688711 43.940978H95.414044a14.791111 14.791111 0 0 0-14.813866 14.756978v72.817778a14.791111 14.791111 0 0 0 14.813866 14.756977h60.734578a80.167822 80.167822 0 0 0-18.420622 51.177245c0 44.487111 36.340622 80.6912 81.009778 80.6912s81.009778-36.204089 81.009778-80.6912a80.145067 80.145067 0 0 0-18.420623-51.177245h59.915378c8.192 0 14.825244-6.599111 14.825245-14.756977s-6.633244-14.756978-14.825245-14.756978H110.227911V732.842667h805.808356v43.3152h-515.527111c-8.192 0-14.825244 6.599111-14.825245 14.756977s6.633244 14.756978 14.825245 14.756978h344.428088a80.133689 80.133689 0 0 0-18.409244 51.177245c0 44.487111 36.329244 80.6912 80.9984 80.6912s81.009778-36.204089 81.009778-80.6912a80.145067 80.145067 0 0 0-18.420622-51.177245h60.745955a14.791111 14.791111 0 0 0 14.813867-14.756978v-72.817777a14.791111 14.791111 0 0 0-14.813867-14.768356zM607.345778 197.540978H418.929778V168.027022h188.416v29.513956zM368.901689 109.511111c0-8.977067 7.338667-16.2816 16.349867-16.2816h255.783822c9.0112 0 16.349867 7.304533 16.349866 16.2816v88.029867h-20.400355V153.258667a14.791111 14.791111 0 0 0-14.813867-14.756978H404.115911a14.791111 14.791111 0 0 0-14.813867 14.756978v44.282311h-20.388977V109.511111zM270.108444 856.849067c0 28.205511-23.04 51.165867-51.370666 51.165866S167.367111 885.054578 167.367111 856.849067c0-28.216889 23.04-51.177244 51.370667-51.177245s51.370667 22.948978 51.370666 51.177245z m588.8 0c0 28.205511-23.04 51.165867-51.382044 51.165866-28.319289 0-51.370667-22.960356-51.370667-51.165866 0-28.216889 23.04-51.177244 51.370667-51.177245 28.342044 0 51.382044 22.948978 51.382044 51.177245z" fill="" p-id="11081"></path><path d="M319.829333 439.045689c2.594133 7.736889 10.990933 11.901156 18.750578 9.3184l80.827733-26.908445a14.7456 14.7456 0 0 0 9.352534-18.682311l-36.955022-110.125511a14.836622 14.836622 0 0 0-18.761956-9.329778l-157.411556 52.406045a14.7456 14.7456 0 0 0-9.352533 18.682311l36.9664 110.125511a14.791111 14.791111 0 0 0 18.761956 9.3184l25.622755-8.533333c7.759644-2.582756 11.946667-10.945422 9.352534-18.682311s-10.979556-11.901156-18.750578-9.3184l-11.5712 3.845689-27.556978-82.1248 129.297067-43.053512 27.556977 82.136178-66.7648 22.232178a14.791111 14.791111 0 0 0-9.363911 18.693689z" fill="" p-id="11082"></path></svg>