<svg t="1638588968479" class="icon" viewBox="0 0 1024 1024" version="1.1" xmlns="http://www.w3.org/2000/svg" p-id="3863" width="200" height="200"><path d="M970.9 233h-63.8v-47.1h-31.8V233H576.5v-47.1h-31.8V233h-63.6L516 611H394.4v-56.4c0-51-30.1-95-73.5-115.4v-50.5h76.3l-74.8-120.1H91v120.1h65.6c-0.9 2.6-2.2 5.4-4.4 8.1-8.9 10.7-27.8 16.3-54.7 16.3v31.8c37.7 0 64.6-9.6 79.8-28.5 7.6-9.5 10.7-19.3 11.9-27.6h18.5v52.9c-40.7 21.4-68.5 63.9-68.5 113V841h149.2c4.1 42 39.3 75.1 82.4 75.1h254.5c41.1 0 75.2-30.1 81.8-69.3H908L970.9 233z m-97.4 31.8c-10.8 74.2-72.8 131.4-147.6 131.4S589.2 339 578.4 264.8h295.1z m-357.5 0h30.3C557.4 356.6 633.6 428 725.9 428s168.6-71.3 179.6-163.2h30.1l-49.4 482.9h-196c11.3-14.2 18.3-31.9 18.3-51.5v-2c0-45.9-37.3-83.2-83.2-83.2H548l-32-346.2zM319.3 696.2v-2c0-28.4 23.1-51.5 51.5-51.5h254.5c22.8 0 42 15 48.7 35.6H373.3v31.8h301.4c-6.1 21.6-25.8 37.6-49.3 37.6H370.8c-28.4-0.1-51.5-23.1-51.5-51.5zM122.8 300.4h181.9l35.2 56.5H122.8v-56.5z m116.7 88.2h49.6V429c-7.3-1.3-14.7-2.1-22.3-2.1-9.4 0-18.5 1.1-27.3 3v-41.3zM171 554.5c0-52.8 43-95.8 95.8-95.8s95.8 43 95.8 95.8v57.3c-42 4.2-75 39.3-75 82.4v2c0 27.8 13.8 52.2 34.7 67.3-15.2 11-26.4 27-31.5 45.7H171V554.5z m505.8 278.4c0 28.4-23.1 51.5-51.5 51.5H370.8c-22.8 0-42-15-48.7-35.6h300.7V817H321.5c6.1-21.6 25.8-37.6 49.3-37.6h254.5c28.4 0 51.5 23.1 51.5 51.5v2z m30.1-17.9c-2.6-13.3-8.6-25.3-16.7-35.6H883l-3.6 35.6H706.9z" fill="#231815" p-id="3864"></path></svg>