<svg t="1638600035025" class="icon" viewBox="0 0 1068 1024" version="1.1" xmlns="http://www.w3.org/2000/svg" p-id="8900" width="200" height="200"><path d="M3.710145 0h1024v1024H3.710145z" fill="#D8D8D8" fill-opacity="0" p-id="8901"></path><path d="M402.216812 278.229333h215.296c66.56 0 117.418667-151.893333 117.418666-151.893333 0-45.525333-4.309333-79.957333-78.293333-82.346667-73.984-2.432-91.690667 54.357333-144.853333 54.357334-54.442667 0-81.706667-44.672-148.736-54.4-66.986667-9.685333-78.293333 36.864-78.293334 82.389333 0 0 50.773333 151.893333 117.461334 151.893333z m227.029333 46.976H402.216812C150.782145 325.205333 89.043478 844.586667 89.043478 844.586667 89.043478 912.853333 141.608812 981.333333 206.462145 981.333333h618.496C889.811478 981.333333 942.376812 912.810667 942.376812 844.586667c0 0-61.738667-519.381333-313.130667-519.381334z m25.770667 399.189334c15.189333 0 27.477333 12.928 27.477333 28.842666 0 15.957333-12.288 28.885333-27.477333 28.885334h-111.36v75.690666a29.226667 29.226667 0 0 1-13.397334 25.770667 26.282667 26.282667 0 0 1-27.946666 0 29.226667 29.226667 0 0 1-13.44-25.770667v-75.690666H376.830145c-15.189333 0-27.477333-12.928-27.477333-28.885334 0-15.914667 12.288-28.842667 27.477333-28.842666h112.042667v-36.650667H376.830145c-15.189333 0-27.477333-12.928-27.477333-28.842667 0-15.957333 12.288-28.842667 27.477333-28.842666h75.733333L375.038145 485.12a29.696 29.696 0 0 1 10.666667-38.229333 26.666667 26.666667 0 0 1 36.821333 9.386666l93.354667 173.781334h4.693333l93.397333-173.781334a26.709333 26.709333 0 0 1 37.461334-10.538666c13.141333 7.978667 17.621333 25.6 10.026666 39.381333l-77.525333 144.938667h71.082667c15.189333 0 27.477333 12.928 27.477333 28.842666 0 15.957333-12.288 28.885333-27.477333 28.885334h-111.36v36.608h111.36z" fill="#4A90E2" p-id="8902"></path><path d="M844.243478 883.2m-42.666666 0a42.666667 42.666667 0 1 0 85.333333 0 42.666667 42.666667 0 1 0-85.333333 0Z" fill="#E02020" p-id="8903"></path></svg>