<svg t="1638536592313" class="icon" viewBox="0 0 1024 1024" version="1.1" xmlns="http://www.w3.org/2000/svg" p-id="21800" width="200" height="200"><path d="M235.057249 1018.459125l-81.582927-107.977903c-10.99699-14.396987 10.99799-31.193972 21.99598-16.596985l56.987949 75.384932V778.509341c0-18.196984 27.593975-18.196984 27.593975 0v190.559828l56.987949-75.383932c10.99799-14.596987 32.793971 2.199998 21.99598 16.595985l-81.582926 107.777903a13.796988 13.796988 0 0 1-22.39598 0.4z m270.743757-161.766855L158.473318 691.126419a13.796988 13.796988 0 0 1-7.797993-12.396989V347.399728a13.796988 13.796988 0 0 1 7.797993-12.597989l347.527687-171.963845a13.796988 13.796988 0 0 1 12.197989 0l347.527688 171.963845a13.796988 13.796988 0 0 1 7.797993 12.597989V678.52943a13.796988 13.796988 0 0 1-7.797993 12.397989L518.198994 856.69227a13.796988 13.796988 0 0 1-12.397988 0z m19.995982-335.129699V822.499301l320.133712-152.567863V368.993708zM178.0703 669.931438L498.203012 822.499301V521.562571L178.0693 368.993708z m17.796984-322.93271L512 497.567593l316.133716-150.769865L512 190.431869z m568.281489-101.579908V54.859991l-56.987948 75.384932c-10.99799 14.596987-32.99397-1.999998-21.995981-16.596985L767.146771 5.270035a13.796988 13.796988 0 0 1 21.99598 0.4l81.582927 107.976903c10.99699 14.396987-10.99799 31.193972-21.995981 16.596985l-57.187948-75.384932v190.559829c0 18.196984-27.393975 18.196984-27.393976 0z" p-id="21801"></path></svg>