<svg t="1640794997788" class="icon" viewBox="0 0 1024 1024" version="1.1" xmlns="http://www.w3.org/2000/svg" p-id="3643" width="200" height="200"><path d="M170.142424 260.916573h631.656833v445.400631H170.142424z" fill="#EBBE81" p-id="3644"></path><path d="M170.142424 281.475107h631.656833a20.558534 20.558534 0 0 1-20.558533-20.558534v445.400631a20.558534 20.558534 0 0 1 20.558533-20.558534H170.142424a20.558534 20.558534 0 0 1 20.558534 20.558534V260.916573a20.558534 20.558534 0 0 1-20.558534 20.558534z m0 445.40063h631.656833a20.558534 20.558534 0 0 0 20.558534-20.558533V260.916573a20.558534 20.558534 0 0 0-20.558534-20.558533H170.142424a20.558534 20.558534 0 0 0-20.558534 20.558533v445.400631a20.558534 20.558534 0 0 0 20.558534 20.558533z" fill="#6E6E96" p-id="3645"></path><path d="M801.799257 260.916573l-163.016836-206.119858H304.809043l-134.666619 206.119858z" fill="#F5CB93" p-id="3646"></path><path d="M817.925371 248.162059l-163.012725-206.119858a20.570869 20.570869 0 0 0-16.130225-7.804019H304.809043a20.558534 20.558534 0 0 0-17.211605 9.313016l-134.666618 206.119857a20.558534 20.558534 0 0 0 17.207492 31.804052h631.656833a20.558534 20.558534 0 0 0 16.130226-33.313048z m-630.571343 24.000032l134.670731-206.119858a20.566757 20.566757 0 0 1-17.215716 9.313016h333.973378a20.566757 20.566757 0 0 1-16.126114-7.804019l163.016836 206.119858a20.55031 20.55031 0 0 1 16.126114-33.308937H170.142424a20.558534 20.558534 0 0 1 17.211604 31.79994z" fill="#6E6E96" p-id="3647"></path><path d="M170.142424 706.317204l84.976643-371.180213h467.566841l79.113349 371.180213V260.916573H170.142424z" fill="#966E6E" opacity=".2" p-id="3648"></path><path d="M131.192226 703.792616l316.856344 3.022104 111.03664-40.105587-152.046803-113.520111s-27.667675-26.52462-3.556627-60.100817c18.584914-25.883194 61.971644-10.353278 61.971644-10.353278l330.922492 109.042463-3.548403-1.044374 156.960292 0.970363 0.567416 218.101371-161.462611 0.386501-212.168179 106.135485s-105.202128 42.576723-163.839177-25.813295l-281.693028-186.720825" fill="#F0F0FF" p-id="3649"></path><path d="M126.266402 723.75084l316.856343 3.017993a20.644879 20.644879 0 0 0 11.911614-0.616756l111.032529-40.105587a20.55031 20.55031 0 0 0 13.350711-16.323476 20.55031 20.55031 0 0 0-8.034275-19.493602l-152.046802-113.515999c0.678432 0.50574 1.315746 1.052597 1.92839 1.632348-4.185717-4.280287-13.108121-16.533173-1.089602-33.276043 7.845136-10.928916 32.634616-5.032729 38.345777-2.98921l0.493404 0.172691 330.930716 109.042462a20.558534 20.558534 0 0 1 12.228215-39.250352l-3.552514-1.044373a20.558534 20.558534 0 0 1-5.92497 40.274167l156.960293 0.970363a20.558534 20.558534 0 0 1-20.431071-20.505082l0.567416 218.101372a20.546198 20.546198 0 0 1 5.986645-14.551331 20.587316 20.587316 0 0 1 14.522548-6.060655l-161.466723 0.3865a20.648991 20.648991 0 0 0-7.191375 1.311635l-212.164067 106.135485a18.350547 18.350547 0 0 0-1.652906 0.711325c-2.997434 1.406204-73.953157 16.689418-139.337517-20.657214-0.559192-0.320713-0.859347-0.958028-1.32397-1.410316L145.476295 689.006918a20.558534 20.558534 0 0 0-28.568138 29.563172l281.705363 186.720825a18.638367 18.638367 0 0 1-1.32397-1.406203c67.07016 51.013945 139.07848 48.057628 188.340838 30.969375-0.542745 0.259038-1.093714 0.493405-1.648794 0.707213l212.164066-106.135485a20.451629 20.451629 0 0 1-7.191375 1.315746l161.462612-0.386501a20.517417 20.517417 0 0 0 14.522548-6.064767 20.505081 20.505081 0 0 0 5.986645-14.55133l-0.567416-218.09726a20.558534 20.558534 0 0 0-20.431071-20.505081l-156.964404-0.970363a20.546198 20.546198 0 1 0-5.924969 40.274167l3.552515 1.044374c10.764448 3.170126 22.079865-2.89053 25.422682-13.609749s-2.532811-22.129206-13.194467-25.640603l-330.926603-109.042463 0.493405 0.172692c-21.533008-7.70945-63.797241-12.651722-85.597511 17.717344-27.297621 38.01684-7.989046 73.488534 6.027762 86.933815a19.736192 19.736192 0 0 0 1.928391 1.632348l152.046802 113.515999a20.546198 20.546198 0 0 1-8.034275-19.48949 20.579092 20.579092 0 0 1 13.350712-16.319364L441.06278 687.477364a20.546198 20.546198 0 0 1 11.911614-0.620868l-316.856343-3.022105a20.570869 20.570869 0 0 0-24.888161 15.0324 20.558534 20.558534 0 0 0 15.036512 24.884049z" fill="#6E6E96" p-id="3650"></path><path d="M796.388251 591.77739h153.96697v218.02736h-153.96697z" fill="#8FDBE3" p-id="3651"></path><path d="M796.388251 612.335923h153.96697a20.558534 20.558534 0 0 1-20.558534-20.558533v218.02736c0-11.360646 9.202-20.558534 20.558534-20.558533h-153.96697c11.360646 0 20.558534 9.197888 20.558534 20.558533v-218.02736a20.558534 20.558534 0 0 1-20.558534 20.558533z m0 218.027361h153.96697a20.558534 20.558534 0 0 0 20.558534-20.558534v-218.02736a20.558534 20.558534 0 0 0-20.558534-20.558534h-153.96697a20.558534 20.558534 0 0 0-20.558533 20.558534v218.02736a20.558534 20.558534 0 0 0 20.558533 20.558534z" fill="#6E6E96" p-id="3652"></path><path d="M170.142424 706.317204l241.122817 103.779477s37.00536 20.558534 111.016082 0 253.548395-82.234134 253.548395-82.234134l20.558533 81.942203-237.101568 111.308013s-110.21841 6.044209-160.241434-43.978815-228.902825-170.816744-228.902825-170.816744z" fill="#6E6E96" opacity=".15" p-id="3653"></path><path d="M557.604995 682.436411s91.900757-26.027104 48.727836-52.753197-269.362019-146.833159-156.265413-131.208673c113.096605 15.628597 0.493405 0.172692 0.493404 0.172691s-78.87487-27.178381-39.682081 34.447879c39.188677 61.638595 146.726254 149.3413 146.726254 149.3413z" fill="#6E6E96" opacity=".15" p-id="3654"></path><path d="M816.946785 665.788111h112.849902v47.687574h-112.849902z" fill="#FFFFFF" opacity=".35" p-id="3655"></path></svg>