<svg t="1638533680866" class="icon" viewBox="0 0 1024 1024" version="1.1" xmlns="http://www.w3.org/2000/svg" p-id="14393" width="200" height="200"><path d="M512 909.061224c-218.906122 0-397.061224-178.155102-397.061224-397.061224s178.155102-397.061224 397.061224-397.061224 397.061224 178.155102 397.061224 397.061224-178.155102 397.061224-397.061224 397.061224z" fill="#F2CB51" p-id="14394"></path><path d="M520.881633 587.232653c-11.493878 0-19.853061-9.404082-19.853062-20.37551 0.522449-17.763265 1.567347-30.302041 4.179592-39.183674 2.612245-9.404082 6.791837-17.763265 12.016327-25.6 4.179592-5.22449 9.926531-9.404082 17.763265-15.673469 5.22449-3.657143 11.493878-8.359184 16.718367-13.061224 21.942857-19.330612 30.82449-31.346939 35.004082-38.661225 5.22449-8.881633 7.314286-18.808163 7.314286-29.779592 0-18.808163-7.314286-34.481633-21.942857-48.065306-15.15102-14.106122-35.526531-20.897959-62.693878-20.897959-26.122449 0-39.183673 6.791837-52.767347 19.330612-14.628571 13.061224-22.987755 31.346939-26.122449 56.946939-1.567347 10.971429-10.971429 18.808163-21.942857 17.240816-10.971429-1.567347-18.808163-10.971429-17.240816-21.942857 4.179592-35.004082 17.763265-62.693878 39.706122-82.02449 23.510204-20.897959 46.497959-29.257143 79.412245-29.257143 36.571429 0 66.873469 10.44898 89.338776 31.346939 22.987755 20.897959 35.004082 47.020408 35.004081 77.322449 0 17.763265-4.179592 33.959184-12.538775 49.110204-7.836735 14.106122-21.942857 30.302041-43.363266 49.110204-6.791837 6.269388-14.106122 10.971429-19.853061 15.151021-3.134694 2.612245-7.836735 5.746939-9.404081 7.314285-2.612245 3.657143-4.179592 7.314286-5.22449 12.016327-1.044898 3.134694-2.089796 10.971429-2.612245 29.779592-1.044898 10.971429-9.926531 19.853061-20.897959 19.853061z" fill="#AF8015" p-id="14395"></path><path d="M520.359184 677.093878m-29.779592 0a29.779592 29.779592 0 1 0 59.559184 0 29.779592 29.779592 0 1 0-59.559184 0Z" fill="#AF8015" p-id="14396"></path></svg>