<svg t="1638534558680" class="icon" viewBox="0 0 1137 1024" version="1.1" xmlns="http://www.w3.org/2000/svg" p-id="19722" width="200" height="200"><path d="M555.235556 932.977778c-166.115556 0-341.333333-52.337778-341.333334-147.911111 0-68.266667 97.848889-125.155556 248.035556-143.36l4.551111 45.511111c-134.257778 15.928889-207.075556 61.44-207.075556 97.848889 0 47.786667 127.431111 102.4 295.822223 102.4s295.822222-54.613333 295.822222-102.4c0-36.408889-81.92-84.195556-218.453334-97.848889l4.551112-45.511111c157.013333 15.928889 259.413333 72.817778 259.413333 143.36 0 95.573333-177.493333 147.911111-341.333333 147.911111zM34.133333 796.444444h-22.755555c0-97.848889 161.564444-182.044444 402.773333-207.075555l2.275556 22.755555c-225.28 22.755556-382.293333 100.124444-382.293334 184.32z" fill="#46AAFF" p-id="19723"></path><path d="M568.888889 1012.622222v-22.755555c288.995556 0 534.755556-88.746667 534.755555-193.422223 0-88.746667-182.044444-170.666667-423.253333-188.871111l2.275556-22.755555c261.688889 20.48 443.733333 106.951111 443.733333 211.626666 0 120.604444-245.76 216.177778-557.511111 216.177778z" fill="#46AAFF" p-id="19724"></path><path d="M555.235556 819.2l-18.204445-22.755556C364.088889 593.92 282.168889 439.182222 282.168889 323.128889c0-204.8 100.124444-323.128889 273.066667-323.128889 191.146667 0 259.413333 193.422222 259.413333 325.404444 0 122.88-61.44 211.626667-184.32 386.844445-18.204444 25.031111-36.408889 52.337778-56.888889 81.92l-18.204444 25.031111z m-2.275556-773.688889c-197.973333 0-227.555556 172.942222-227.555556 277.617778 0 100.124444 75.093333 241.208889 225.28 420.977778 13.653333-20.48 27.306667-38.684444 40.96-56.888889 118.328889-168.391111 175.217778-254.862222 175.217778-361.813334C766.862222 248.035556 728.177778 45.511111 552.96 45.511111z" fill="#46AAFF" p-id="19725"></path><path d="M555.235556 443.733333c-68.266667 0-125.155556-56.888889-125.155556-125.155555s56.888889-125.155556 125.155556-125.155556 125.155556 56.888889 125.155555 125.155556-56.888889 125.155556-125.155555 125.155555z m0-227.555555c-56.888889 0-102.4 45.511111-102.4 102.4s45.511111 102.4 102.4 102.4 102.4-45.511111 102.4-102.4-47.786667-102.4-102.4-102.4zM516.551111 1012.622222c-179.768889 0-391.395556-31.857778-477.866667-109.226666l13.653334-15.928889c86.471111 77.368889 325.404444 109.226667 516.551111 102.4v22.755555h-52.337778z" fill="#46AAFF" p-id="19726"></path></svg>