<svg t="1638533654796" class="icon" viewBox="0 0 1024 1024" version="1.1" xmlns="http://www.w3.org/2000/svg" p-id="13566" width="200" height="200"><path d="M502.44126 547.699816l173.134676 21.540732 108.208773-44.472117 4.999956 262.404995-276.250782 145.219319" fill="#5FCEFF" p-id="13567"></path><path d="M491.22013 548.764385v379.366888l-270.106334-160.912916 3.698817-244.88277 114.020742 46.904961" fill="#FFB578" p-id="13568"></path><path d="M988.850052 407.70104l-308.724923 161.539508-177.683869-24.520246 308.724923-161.571477z" fill="#42BC90" p-id="13569"></path><path d="M912.252256 282.062752l-101.086073 101.086073L502.44126 246.161531l101.118042-101.118042z" fill="#FFB578" p-id="13570"></path><path d="M811.166183 383.148825l-308.724923 161.571477-308.692954-161.571477L502.44126 246.161531z" fill="#8B87C1" p-id="13571"></path><path d="M401.355187 145.043489L502.44126 246.161531l-308.692954 136.987294-101.118042-101.086073z" fill="#5FCEFF" p-id="13572"></path><path d="M502.44126 544.720302l-153.163623 24.520246-308.692953-161.539508 153.163622-24.552215z" fill="#FF4893" p-id="13573"></path><path d="M502.44126 567.095426a22.371927 22.371927 0 0 1-10.377147-2.551128l-308.692954-161.571478a22.378321 22.378321 0 0 1 1.30114-40.280978l308.692953-136.987293a22.378321 22.378321 0 0 1 18.152016 0l308.724922 136.987293a22.375124 22.375124 0 0 1 1.30114 40.284175l-308.72812 161.571478a22.346352 22.346352 0 0 1-10.37395 2.547931z m-257.264375-182.287409l257.264375 134.653555 257.28995-134.653555-257.28995-114.164603-257.264375 114.164603zM502.44126 951.462271a22.362336 22.362336 0 0 1-10.95259-2.864425l-280.112641-157.191721a22.378321 22.378321 0 0 1 21.901983-39.030988l269.431788 151.197527 269.307109-143.688002a22.381518 22.381518 0 0 1 21.06759 39.488146l-280.11264 149.455215a22.378321 22.378321 0 0 1-10.530599 2.634248z" fill="#4F46A3" p-id="13574"></path><path d="M502.44126 951.462271a22.378321 22.378321 0 0 1-22.378321-22.378321v-283.821048a22.378321 22.378321 0 1 1 44.756642 0v283.821048a22.378321 22.378321 0 0 1-22.378321 22.378321zM222.322225 794.27055a22.378321 22.378321 0 0 1-22.371927-22.173719l-2.429646-263.488745a22.378321 22.378321 0 0 1 22.170522-22.582923h0.210996a22.378321 22.378321 0 0 1 22.371927 22.173719l2.429646 263.488746a22.378321 22.378321 0 0 1-22.170522 22.582922h-0.210996zM782.557098 802.007056h-0.21739a22.381518 22.381518 0 0 1-22.164128-22.592514l2.461615-256.487528a22.378321 22.378321 0 0 1 22.375124-22.164128h0.21739a22.381518 22.381518 0 0 1 22.164128 22.592513l-2.461615 256.487528a22.378321 22.378321 0 0 1-22.375124 22.164129z" fill="#4F46A3" p-id="13575"></path><path d="M502.44126 667.641223a22.378321 22.378321 0 0 1-22.378321-22.378321v-98.112954a22.378321 22.378321 0 1 1 44.756642 0v98.112954a22.378321 22.378321 0 0 1-22.378321 22.378321zM912.236271 304.447467a22.282414 22.282414 0 0 1-9.066417-1.93093l-308.692953-137.019262a22.381518 22.381518 0 0 1 18.155212-40.907571l308.692953 137.019262a22.381518 22.381518 0 0 1-9.088795 42.838501zM92.643052 304.447467a22.384715 22.384715 0 0 1-9.091992-42.838501l308.724923-137.019262a22.378321 22.378321 0 0 1 18.158409 40.907571l-308.724923 137.019262a22.346352 22.346352 0 0 1-9.066417 1.93093zM680.14431 591.618869a22.378321 22.378321 0 0 1-10.393131-42.20871l308.724922-161.539509a22.375124 22.375124 0 0 1 30.201143 9.453242 22.378321 22.378321 0 0 1-9.453242 30.201143l-308.724923 161.539509a22.285611 22.285611 0 0 1-10.354769 2.554325zM349.258456 591.618869a22.288808 22.288808 0 0 1-10.357966-2.554325l-308.692954-161.539509a22.378321 22.378321 0 0 1 20.751098-39.657582l308.692954 161.539509a22.378321 22.378321 0 0 1-10.393132 42.211907z" fill="#4F46A3" p-id="13576"></path><path d="M502.44126 268.539852a22.320777 22.320777 0 0 1-15.827867-6.556848l-101.086073-101.118042a22.384715 22.384715 0 0 1 0.003197-31.64934 22.387912 22.387912 0 0 1 31.64934 0.003197l101.086073 101.118042a22.384715 22.384715 0 0 1-15.82467 38.202991zM193.748306 405.527146a22.314383 22.314383 0 0 1-15.821473-6.550455l-101.118042-101.086073a22.378321 22.378321 0 0 1 31.646143-31.652536l101.118042 101.086073a22.378321 22.378321 0 0 1-15.82467 38.202991z" fill="#4F46A3" p-id="13577"></path><path d="M502.44126 268.539852a22.375124 22.375124 0 0 1-15.82467-38.199794l101.114845-101.118042a22.378321 22.378321 0 0 1 31.64934 31.646143l-101.118042 101.118042a22.311186 22.311186 0 0 1-15.821473 6.553651zM811.166183 405.527146a22.378321 22.378321 0 0 1-15.82467-38.199794l101.082876-101.086073a22.378321 22.378321 0 0 1 31.64934 31.646143l-101.082876 101.086072a22.323974 22.323974 0 0 1-15.82467 6.553652z" fill="#4F46A3" p-id="13578"></path><path d="M988.878824 430.079361a22.538166 22.538166 0 0 1-3.091406-0.214193l-177.683868-24.552215a22.381518 22.381518 0 0 1-19.10789-25.229958 22.381518 22.381518 0 0 1 25.233156-19.104693l177.683869 24.552215a22.381518 22.381518 0 0 1-3.033861 44.548844zM680.153901 591.618869c-1.016615 0-2.049215-0.067135-3.088208-0.210995l-177.683869-24.520246a22.378321 22.378321 0 0 1-19.107889-25.229959 22.375124 22.375124 0 0 1 25.226761-19.111086l177.683869 24.520246a22.384715 22.384715 0 0 1-3.030664 44.55204z" fill="#4F46A3" p-id="13579"></path><path d="M349.248865 591.618869a22.384715 22.384715 0 0 1-3.507002-44.481708l153.163622-24.520246a22.381518 22.381518 0 0 1 7.074747 44.197184l-153.163623 24.520246c-1.198839 0.191814-2.39448 0.284524-3.567744 0.284524zM40.555911 430.079361a22.384715 22.384715 0 0 1-3.513396-44.478512l153.163623-24.552215a22.378321 22.378321 0 1 1 7.084337 44.193987l-153.163623 24.552215c-1.202036 0.191814-2.39448 0.284524-3.570941 0.284525z" fill="#4F46A3" p-id="13580"></path></svg>