<svg t="1638534543777" class="icon" viewBox="0 0 1024 1024" version="1.1" xmlns="http://www.w3.org/2000/svg" p-id="18941" width="200" height="200"><path d="M784.6 421H597.7c-13.7 0-24.9 11.2-24.9 24.9s11.2 24.9 24.9 24.9h186.9c13.7 0 24.9-11.2 24.9-24.9S798.4 421 784.6 421zM784.6 525.1H597.7c-13.7 0-24.9 11.2-24.9 24.9s11.2 24.9 24.9 24.9h186.9c13.7 0 24.9-11.2 24.9-24.9s-11.1-24.9-24.9-24.9zM784.6 628.1H597.7c-13.7 0-24.9 11.2-24.9 24.9s11.2 24.9 24.9 24.9h186.9c13.7 0 24.9-11.2 24.9-24.9s-11.1-24.9-24.9-24.9z" fill="#FF4E7D" p-id="18942"></path><path d="M436 559.4c23.5-20.4 37.3-50.1 37.3-80.9 0-59.4-48.3-107.8-107.8-107.8S257.7 419 257.7 478.5c0 30.9 13.8 60.5 37.3 80.9a145.29 145.29 0 0 0-47.9 43.4c-17 24.3-25.9 52.7-25.9 82.4 0 12.5 10.2 22.7 22.7 22.7s22.7-10.2 22.7-22.7c0-54.6 44.4-99 98.9-99 54.6 0 99 44.4 99 99 0 12.5 10.2 22.7 22.7 22.7s22.7-10.2 22.7-22.7c0-29.6-9-58.1-25.9-82.4-12.6-17.8-29.1-32.7-48-43.4z m-70.5-143.3c34.4 0 62.4 28 62.4 62.4s-28 62.4-62.4 62.4-62.4-28-62.4-62.4 28-62.4 62.4-62.4z" fill="#4E30DC" p-id="18943"></path><path d="M865.5 220.9H160.6c-28.7 0-52 23.3-52 52v524.8c0 28.6 23.3 51.9 52 51.9h704.9c28.6 0 51.9-23.3 51.9-51.9V272.8c0-28.6-23.3-51.9-51.9-51.9z m1.3 576.7c0 0.7-0.6 1.3-1.3 1.3H160.6c-0.7 0-1.3-0.6-1.3-1.3V272.8c0-0.7 0.6-1.3 1.3-1.3h704.9c0.7 0 1.3 0.6 1.3 1.3v524.8z" fill="#4E30DC" p-id="18944"></path></svg>