<svg t="1638534525679" class="icon" viewBox="0 0 1039 1024" version="1.1" xmlns="http://www.w3.org/2000/svg" p-id="18068" width="200" height="200"><path d="M727.254072 697.195332l288.291394 288.225727a80.260613 80.260613 0 0 0 0-113.520584L775.699372 632.037963a417.539053 417.539053 0 0 0-653.379505-509.783763 417.522637 417.522637 0 0 0 528.121072 641.707324l236.513531 236.529947a80.309863 80.309863 0 0 0 113.537001 0L712.626908 712.626908q7.568039-7.551622 14.627164-15.431576z m-548.313454-41.320508c-131.332564-131.463896-131.332564-345.37181 0.0985-476.835706a337.163524 337.163524 0 0 1 476.835706 0c131.463896 131.463896 131.463896 345.37181 0 476.835706a337.196358 337.196358 0 0 1-476.835706 0z" fill="#2C2570" p-id="18069"></path><path d="M417.456971 417.456971m-309.797102 0a309.797101 309.797101 0 1 0 619.594203 0 309.797101 309.797101 0 1 0-619.594203 0Z" fill="#FF8E58" p-id="18070"></path></svg>