<svg t="1638929697776" class="icon" viewBox="0 0 1024 1024" version="1.1" xmlns="http://www.w3.org/2000/svg" p-id="11467" width="200" height="200"><path d="M922.368 101.632c23.936 23.936 36.48 53.952 37.632 90.112v640.512c-1.152 36.16-13.696 66.176-37.632 90.112-23.936 23.936-53.952 36.48-90.112 37.632H191.744c-36.16-1.152-66.24-13.696-90.112-37.632-23.936-23.936-36.48-53.952-37.632-90.112V191.744c1.152-36.16 13.696-66.176 37.632-90.112 23.936-23.936 53.952-36.48 90.112-37.632h640.512c36.16 1.152 66.176 13.696 90.112 37.632z m-218.752 564.352l19.264-19.264-166.272-173.248c-19.84 13.44-41.856 19.392-66.048 17.92-24.192-1.472-44.8-11.84-61.696-31.04C409.6 440.576 400 417.216 400 390.4c0-26.816 9.6-50.176 28.864-70.016l38.528-38.528c-19.84-12.8-40.256-17.92-61.248-15.296s-41.152 11.84-60.352 27.584L217.984 428.864c-19.264 19.84-28.864 42.176-28.864 66.944 0 24.832 9.6 47.424 28.864 67.84L384.256 736c32.064 38.528 70.272 57.728 114.624 57.728h32.384c2.944 0 6.272-0.256 10.048-0.896 3.776-0.576 8.896-2.304 15.296-5.248l38.528-19.264c3.52-2.944 6.848-5.12 10.048-6.592 3.2-1.472 6.272-3.648 9.216-6.592 3.52 0 6.72-1.344 9.6-3.968 2.944-2.624 6.144-5.696 9.6-9.216l6.144-6.144 32.384-32.384 31.488-37.44zM465.6 390.4c0 9.92 4.672 18.368 14.016 25.344 6.976 6.4 14.592 9.6 22.72 9.6 8.192 0 15.744-3.2 22.72-9.6l12.224-12.224c3.52-3.52 7.872-5.568 13.12-6.144 5.376-0.576 9.6-0.896 12.8-0.896s6.4 0.576 9.6 1.728c3.2 1.216 6.272 4.992 9.216 11.392l186.368 191.616 31.488-37.632c19.264-20.416 28.864-43.008 28.864-67.84 0-24.768-9.6-47.104-28.864-66.944l-127.744-134.72c-9.344-6.4-19.264-12.096-29.76-17.088-10.496-4.928-22.016-7.552-34.56-7.872-12.544-0.256-23.936 1.472-34.112 5.248-10.24 3.776-19.968 10.368-29.312 19.712L479.616 364.992c-9.344 6.976-14.016 15.488-14.016 25.408z" p-id="11468"></path></svg>