<svg t="1638929728517" class="icon" viewBox="0 0 1024 1024" version="1.1" xmlns="http://www.w3.org/2000/svg" p-id="12186" width="200" height="200"><path d="M848.072 664.924c13.088-29.448 22.282-60.652 27.061-93.147 27.2-44.12 42.7-94.766 42.7-148.616 0-171.16-156.288-309.891-349.042-309.891-42.915 0-83.995 6.889-121.976 19.476-40.822 0.483-80.301 6.148-117.6 16.36 65.972-46.668 149.115-74.583 239.576-74.583 214.177 0 387.823 156.09 387.823 348.638 0 93.903-41.364 179.078-108.542 241.763zM840.27 520.01c0 192.548-173.647 348.655-387.824 348.655-27.295 0-53.918-2.566-79.612-7.404l-133.72 90.96 0.095-141.023C134.049 748.825 64.597 641.728 64.597 520.01c0-192.548 173.638-348.637 387.85-348.637 214.175 0 387.823 156.09 387.823 348.637z m-736.892 0c0 6.836 0.306 13.605 0.792 20.339 0.142 1.72 0.357 3.461 0.52 5.183 0.45 4.873 0.97 9.712 1.67 14.517 0.342 2.324 0.77 4.6 1.15 6.887 0.737 4.307 1.524 8.543 2.458 12.78a315.626 315.626 0 0 0 1.58 6.664 293.853 293.853 0 0 0 3.573 13.122c0.573 1.878 1.11 3.79 1.723 5.665 1.49 4.631 3.125 9.195 4.848 13.726 0.594 1.602 1.167 3.202 1.795 4.789a283.676 283.676 0 0 0 7.31 16.686c0.16 0.343 0.301 0.69 0.466 1.034 8.89 18.46 19.77 35.956 32.32 52.35 0.214 0.294 0.429 0.551 0.645 0.826 20.72 26.917 46.006 50.838 74.997 70.727v-0.293a354.116 354.116 0 0 0 38.549 23.025v0.259c0.198 0.104 0.412 0.172 0.612 0.291l-0.216 42.864c-0.017 0-0.017-0.018-0.035-0.018l0.018 2.257-0.257 48.89 0.655-0.465v0.277l46.607-33.03c-0.129-0.034-0.25-0.087-0.379-0.122l40.78-29c0.163 0.034 0.335 0.086 0.499 0.122l0.439-0.311c17.703 4.012 35.94 6.8 54.59 8.387l-0.24 0.17c2.272 0.173 4.572 0.276 6.87 0.433 1.585 0.086 3.142 0.188 4.701 0.275 6.63 0.362 13.295 0.62 20.027 0.62 192.754 0 349.035-138.766 349.035-309.926S645.2 210.103 452.446 210.103c-192.788 0-349.068 138.748-349.068 309.907z" fill="" p-id="12187"></path></svg>