<svg t="1638929444062" class="icon" viewBox="0 0 1024 1024" version="1.1" xmlns="http://www.w3.org/2000/svg" p-id="7669" width="200" height="200"><path d="M546.909091 80.674909c75.927273 0 137.704727 60.613818 139.589818 136.087273l0.046546 3.549091v141.963636h286.254545a46.545455 46.545455 0 0 1 46.487273 44.218182l0.058182 2.327273V699.578182c0 63.185455-50.350545 114.594909-113.105455 116.317091l-4.794182 0.034909-52.596363-1.384727a23.272727 23.272727 0 0 1-0.512-46.510546l1.733818-0.011636 51.991272 1.361454h0.919273a69.818182 69.818182 0 0 0 69.771637-67.188363l0.046545-2.618182V408.820364H640v-188.509091a93.090909 93.090909 0 0 0-90.181818-93.044364L546.909091 127.220364H279.272727A23.272727 23.272727 0 0 1 277.527273 80.756364L279.272727 80.674909h267.636364z" p-id="7670"></path><path d="M781.265455 151.272727a69.818182 69.818182 0 0 1 51.246545 22.411637l2.152727 2.443636 172.218182 204.520727a23.272727 23.272727 0 0 1-34.304 31.383273l-1.28-1.396364-172.241454-204.532363a23.272727 23.272727 0 0 0-15.755637-8.192L781.253818 197.818182H663.272727a23.272727 23.272727 0 0 1-1.745454-46.487273L663.272727 151.272727h117.992728z" p-id="7671"></path><path d="M93.090909 209.454545m23.272727 0l279.272728 0q23.272727 0 23.272727 23.272728l0 0q0 23.272727-23.272727 23.272727l-279.272728 0q-23.272727 0-23.272727-23.272727l0 0q0-23.272727 23.272727-23.272728Z" p-id="7672"></path><path d="M46.545455 360.727273m23.272727 0l279.272727 0q23.272727 0 23.272727 23.272727l0 0q0 23.272727-23.272727 23.272727l-279.272727 0q-23.272727 0-23.272727-23.272727l0 0q0-23.272727 23.272727-23.272727Z" p-id="7673"></path><path d="M290.909091 663.272727c-77.114182 0-139.636364 62.522182-139.636364 139.636364s62.522182 139.636364 139.636364 139.636364 139.636364-62.522182 139.636364-139.636364-62.522182-139.636364-139.636364-139.636364z m0 46.545455a93.090909 93.090909 0 1 1 0 186.181818 93.090909 93.090909 0 0 1 0-186.181818zM733.090909 663.272727c-77.114182 0-139.636364 62.522182-139.636364 139.636364s62.522182 139.636364 139.636364 139.636364 139.636364-62.522182 139.636364-139.636364-62.522182-139.636364-139.636364-139.636364z m0 46.545455a93.090909 93.090909 0 1 1 0 186.181818 93.090909 93.090909 0 0 1 0-186.181818z" p-id="7674"></path><path d="M0 523.636364m23.272727 0l279.272728 0q23.272727 0 23.272727 23.272727l0 0q0 23.272727-23.272727 23.272727l-279.272728 0q-23.272727 0-23.272727-23.272727l0 0q0-23.272727 23.272727-23.272727Z" p-id="7675"></path><path d="M616.727273 768v46.545455H407.272727v-46.545455zM162.909091 768a23.272727 23.272727 0 0 1 1.745454 46.487273L162.909091 814.545455H58.181818a23.272727 23.272727 0 0 1-1.745454-46.487273L58.181818 768h104.727273z" p-id="7676"></path></svg>