<svg t="1638929269234" class="icon" viewBox="0 0 1024 1024" version="1.1" xmlns="http://www.w3.org/2000/svg" p-id="4341" width="200" height="200"><path d="M512.537805 4.093235C232.773837 4.093235 5.172019 231.685734 5.172019 511.439258c0 279.736115 227.601818 507.32759 507.365786 507.32759 279.76704 0 507.368858-227.591475 507.368858-507.32759C1019.90656 231.685734 792.303718 4.093235 512.537805 4.093235zM512.537805 966.843187c-251.129651 0-455.438029-204.298957-455.438029-455.404032 0-251.120333 204.307354-455.422464 455.438029-455.422464 251.130675 0 455.443149 204.299981 455.443149 455.422464C967.979827 762.543206 763.668378 966.843187 512.537805 966.843187zM490.074214 527.631974c-2.18071-14.180966-15.551795-23.882957-29.614694-21.702246l-50.692608 7.808819L409.766912 404.345118l51.927754 0c14.33303 0 25.964339-11.629875 25.964339-25.962291 0-14.33344-11.631411-25.962291-25.964339-25.962291l-51.927754 0 0-86.539982c0-14.334464-11.619123-25.962291-25.962291-25.962291-14.344294 0-25.964339 11.627827-25.964339 25.962291l0 86.539982-34.615774 0 0-51.924603c0-14.33344-11.621171-25.962291-25.964339-25.962291-14.342246 0-25.963315 11.628851-25.963315 25.962291l0 61.676711c0 19.808154-11.89335 31.961907-20.418867 31.961907-14.34327 0-25.964339 11.628851-25.964339 25.962291 0 14.332416 11.621171 25.962291 25.964339 25.962291 26.58048 0 49.602662-16.885555 62.177587-41.715098l44.784784 0 0 117.371174-107.156787 16.496742c-14.174413 2.18071-23.894118 15.431475-21.712384 29.612442 1.968947 12.829184 13.031322 22.00617 25.624678 22.00617 1.310925 0 2.646426-0.101274 3.982848-0.303923l99.263795-15.280026 0 176.258353c0 14.335488 11.620147 25.961267 25.964339 25.961267 14.34327 0 25.962291-11.625779 25.962291-25.961267L409.769138 566.270021l58.605056-9.025536C482.536243 555.063808 492.255027 541.812019 490.074214 527.631974zM755.944141 404.345139 652.091754 404.345139l0-51.924603 86.543528 0c14.334054 0 25.963315-11.629875 25.963315-25.962291 0-14.33344-11.629363-25.962291-25.963315-25.962291l-86.543528 0 0-69.231781c0-14.334464-11.629363-25.962291-25.962291-25.962291-14.335078 0-25.963315 11.626803-25.963315 25.962291l0 69.231781-69.235641 0c-14.335078 0-25.963315 11.628851-25.963315 25.962291 0 14.332416 11.628339 25.962291 25.963315 25.962291l69.235641 0 0 51.924603-86.545574 0c-14.332006 0-25.96137 11.628851-25.96137 25.961267 0 14.33344 11.629363 25.963315 25.96137 25.963315l242.32372 0c14.335078 0 25.963315-11.629875 25.963315-25.963315C781.907558 415.97399 770.278195 404.345139 755.944141 404.345139zM755.944141 525.501542l-51.924684 0 0-34.616402c0-14.33344-11.629363-25.962291-25.964339-25.962291-14.33303 0-25.962291 11.628851-25.962291 25.962291l0 34.616402L513.619448 525.501542c-14.332006 0-25.96137 11.628851-25.96137 25.963315 0 14.332416 11.629363 25.961267 25.96137 25.961267l138.471282 0 0 123.607202c0 23.343616 0 33.01079-48.006246 33.01079-14.33303 0-25.960346 11.630899-25.960346 25.962291 0 14.334464 11.627315 25.963315 25.960346 25.963315 29.903258 0 99.932979 0 99.932979-84.936499L704.017463 577.427128l51.924684 0c14.335078 0 25.963315-11.628851 25.963315-25.961267C781.907558 537.131418 770.278195 525.501542 755.944141 525.501542zM539.583795 603.38944c-14.33303 0-25.964339 11.628851-25.964339 25.961267l0 51.924603c0 14.334464 11.631411 25.963315 25.964339 25.963315 14.335078 0 25.963315-11.628851 25.963315-25.963315l0-51.924603C565.547213 615.018291 553.918874 603.38944 539.583795 603.38944z" p-id="4342"></path></svg>